G04*
G04 #@! TF.GenerationSoftware,Altium Limited,CircuitStudio,1.5.2 (30)*
G04*
G04 Layer_Color=16777215*
%FSLAX25Y25*%
%MOIN*%
G70*
G01*
G75*
%ADD40C,0.01000*%
%ADD56C,0.00591*%
%ADD57C,0.01575*%
%ADD58C,0.00984*%
%ADD59C,0.00787*%
D40*
X12303Y53150D02*
X11565Y53576D01*
Y52723D01*
X12303Y53150D01*
D56*
X101673Y60039D02*
X101083D01*
X101673D01*
X104626Y94488D02*
X104035D01*
X104626D01*
X64724Y57461D02*
X64134D01*
X64724D01*
X82973Y50197D02*
X82382D01*
X82973D01*
X126279Y62008D02*
X125689D01*
X126279D01*
X125295Y55118D02*
X124705D01*
X125295D01*
X94784Y50197D02*
X94193D01*
X94784D01*
X99705Y84646D02*
X99114D01*
X99705D01*
X69193Y116142D02*
X68602D01*
X69193D01*
D57*
X84252Y97638D02*
X83465D01*
X84252D01*
D58*
X10138Y77362D02*
X9400Y77788D01*
Y76936D01*
X10138Y77362D01*
X40650Y43799D02*
X39911Y44225D01*
Y43373D01*
X40650Y43799D01*
X40652Y26080D02*
X39913Y26506D01*
Y25654D01*
X40652Y26080D01*
X66240Y31988D02*
X65502Y32414D01*
Y31562D01*
X66240Y31988D01*
X61024Y106299D02*
Y128740D01*
Y157480D01*
X67913D01*
X61024Y106299D02*
X67913D01*
D59*
X126772Y79331D02*
X127165D01*
X126772Y82087D02*
X127165D01*
X5315Y82480D02*
Y82874D01*
X2559Y82480D02*
Y82874D01*
X38189Y79921D02*
Y81595D01*
X36516Y79921D02*
X38189D01*
Y107382D02*
Y109055D01*
X36516D02*
X38189D01*
X9055D02*
X10728D01*
X9055Y107382D02*
Y109055D01*
Y79921D02*
Y81595D01*
Y79921D02*
X10728D01*
X50000Y52756D02*
X53346D01*
Y47244D02*
Y52756D01*
X41142D02*
X44488D01*
X41142Y47244D02*
Y52756D01*
X50002Y35037D02*
X53348D01*
Y29525D02*
Y35037D01*
X41144D02*
X44490D01*
X41144Y29525D02*
Y35037D01*
X108071Y69488D02*
X108465D01*
X108071Y72244D02*
X108465D01*
X129331Y68701D02*
Y69095D01*
X126575Y68701D02*
Y69095D01*
X95472Y53740D02*
X95866D01*
X95472Y56496D02*
X95866D01*
X95472Y69488D02*
X95866D01*
X95472Y72244D02*
X95866D01*
X66732Y35433D02*
Y39370D01*
X78937Y35433D02*
Y39370D01*
X66732Y35433D02*
X78937D01*
X66732Y39370D02*
X78937D01*
M02*
