<svg version="1.1" viewBox="0.0 0.0 960.0 960.0" fill="none" stroke="none" stroke-linecap="square" stroke-miterlimit="10" xmlns:xlink="http://www.w3.org/1999/xlink" xmlns="http://www.w3.org/2000/svg"><clipPath id="p.0"><path d="m0 0l960.0 0l0 960.0l-960.0 0l0 -960.0z" clip-rule="nonzero"/></clipPath><g clip-path="url(#p.0)"><path fill="#000000" fill-opacity="0.0" d="m0 0l960.0 0l0 960.0l-960.0 0z" fill-rule="evenodd"/><path fill="#ffffff" d="m0 160.0032l0 0c0 -88.36733 71.63587 -160.0032 160.0032 -160.0032l639.99365 0l0 0c42.435486 0 83.13287 16.857431 113.13934 46.863853c30.006409 30.006416 46.86383 70.70386 46.86383 113.13935l0 639.99365c0 88.36731 -71.635864 160.00317 -160.00317 160.00317l-639.99365 0c-88.36733 0 -160.0032 -71.635864 -160.0032 -160.00317z" fill-rule="evenodd"/><path fill="#cf7b7b" d="m48.0 192.00288l0 0c0 -79.5306 64.47228 -144.00288 144.00288 -144.00288l575.99426 0l0 0c38.191956 0 74.81964 15.171688 101.82538 42.177467c27.005798 27.005775 42.17749 63.633476 42.17749 101.82542l0 575.99426c0 79.53058 -64.47229 144.00287 -144.00287 144.00287l-575.99426 0c-79.5306 0 -144.00288 -64.47229 -144.00288 -144.00287z" fill-rule="evenodd"/><path fill="#ffffff" d="m255.31656 90.24002c-11.217957 0 -18.337036 2.5981216 -21.357254 7.7943726c-3.020218 5.1962433 -4.530319 12.990608 -4.530319 23.383102c0 15.58873 3.6674042 31.827011 11.002213 48.714798c7.3348083 16.887802 16.61119 34.20862 27.829147 51.962463c11.217957 17.75383 23.298828 35.940704 36.242615 54.560577c12.943787 18.619873 25.024658 36.806732 36.242584 54.560577c11.217957 17.753845 20.494354 35.074646 27.829163 51.962463c7.3348083 16.887787 11.002197 32.26001 11.002197 46.11667c-20.710052 25.981232 -44.44034 55.426636 -71.19083 88.33618c-26.750488 32.909546 -52.422333 67.334656 -77.01553 103.27539c-24.5932 35.940674 -45.303253 71.664856 -62.130173 107.17255c-16.826935 35.50769 -25.240387 69.283264 -25.240387 101.32678c0 12.124573 1.5101013 21.867554 4.530319 29.228882c3.020218 7.361389 9.70784 11.042053 20.062866 11.042053c6.040436 -1.7321167 13.375259 -9.526489 22.00444 -23.383118c8.629196 -13.856628 16.826935 -29.445374 24.5932 -46.766235c7.766266 -17.3208 15.1010895 -33.992065 22.00444 -50.013855c6.903351 -16.021729 12.943787 -27.063782 18.121307 -33.126038c3.4516602 -6.9283447 9.492096 -16.454773 18.121307 -28.579346c6.903351 -12.124573 15.532532 -25.76471 25.887573 -40.92047c10.355011 -15.155701 20.925781 -30.311401 31.71228 -45.467102c10.7864685 -15.155762 21.14151 -28.795898 31.065094 -40.92047c9.923553 -12.124573 19.199951 -22.300537 27.829132 -30.527954c8.629181 -8.227356 15.532532 -12.341064 20.710052 -12.341064l6.4718933 0c19.847137 18.18689 39.262848 39.188354 58.24707 63.004456c18.984192 23.816162 37.536987 48.065308 55.658264 72.74744c18.121338 24.68219 37.10553 48.714844 56.952698 72.09796c19.847107 23.383057 40.988647 43.735046 63.42456 61.055847c11.83429 3.1672363 21.32428 4.7508545 28.46997 4.7508545c8.485474 0 13.6651 -2.2331543 15.538879 -6.699463c3.4516602 -8.227356 0.21575928 -21.43451 -9.707825 -39.621338c-9.923584 -18.18689 -24.80896 -40.054382 -44.656067 -65.6026c-19.847168 -25.548218 -40.34149 -52.178955 -61.483032 -79.89227c-21.14148 -27.713318 -40.988647 -55.210144 -59.54138 -82.49042c-18.552765 -27.280273 -31.71228 -51.74594 -39.478577 -73.39697c19.847137 -25.115173 43.577454 -50.66339 71.19086 -76.64462c27.613403 -25.981232 56.30548 -51.312927 86.07617 -75.99509c29.77069 -24.68216 59.9729 -47.848755 90.60651 -69.49979c30.633667 -21.651016 59.75714 -41.136948 87.370605 -58.457764c-2.5888062 -17.320816 -11.217957 -26.84726 -25.887573 -28.579346c-3.4517212 -0.407547 -6.963135 -0.61131287 -10.534241 -0.61131287c-11.606079 0 -23.842957 2.152359 -36.710632 6.4570923c-16.826904 5.629257 -33.006653 13.207123 -48.539185 22.733566c-15.532532 9.526459 -26.31903 16.887802 -32.359497 22.084045c-50.049316 50.230377 -90.17505 88.33618 -120.3772 114.31741c-30.202179 25.981232 -53.716736 43.08554 -70.54364 51.312927c-9.134613 4.4663086 -17.124908 6.6994324 -23.970856 6.6994324c-5.764984 0 -10.718506 -1.5835876 -14.860504 -4.7508545c-9.060669 -6.928314 -17.905579 -18.18686 -26.53479 -33.775604c-3.4516602 -4.3302 -9.060638 -12.774078 -16.826904 -25.331696c-7.766266 -12.557587 -16.395477 -27.280273 -25.887573 -44.168076c-9.492126 -16.887802 -19.631409 -34.425125 -30.417908 -52.611984c-10.786499 -18.18686 -21.14151 -35.07466 -31.065094 -50.663406c-9.923553 -15.58873 -18.984222 -28.579346 -27.181946 -38.971832c-8.197723 -10.392494 -14.453888 -16.021759 -18.768494 -16.887802z" fill-rule="evenodd"/></g></svg>