<svg version="1.1" viewBox="0.0 0.0 960.0 960.0" fill="none" stroke="none" stroke-linecap="square" stroke-miterlimit="10" xmlns:xlink="http://www.w3.org/1999/xlink" xmlns="http://www.w3.org/2000/svg"><clipPath id="p.0"><path d="m0 0l960.0 0l0 960.0l-960.0 0l0 -960.0z" clip-rule="nonzero"/></clipPath><g clip-path="url(#p.0)"><path fill="#000000" fill-opacity="0.0" d="m0 0l960.0 0l0 960.0l-960.0 0z" fill-rule="evenodd"/><path fill="#ffffff" d="m96.0 480.0l0 0c0 -212.07733 171.92267 -384.0 384.0 -384.0l0 0c101.84314 0 199.51501 40.45703 271.529 112.47099c72.01398 72.01396 112.47101 169.68587 112.47101 271.529l0 0c0 212.07733 -171.92267 384.0 -384.0 384.0l0 0c-212.07733 0 -384.0 -171.92267 -384.0 -384.0z" fill-rule="evenodd"/><path fill="#7ca9f7" d="m518.6722 222.1332c66.77905 24.252396 119.29462 50.67015 157.54669 79.25328c38.4682 28.58316 64.18573 56.733185 77.15253 84.450226c12.966797 27.500397 17.61322 55.000824 13.93927 82.50137c-3.4578247 27.283905 -13.723206 54.7843 -30.796143 82.50134c-16.856873 27.717102 -38.576233 53.81006 -65.1582 78.27887c-26.58197 24.25232 -54.46057 45.0401 -83.635864 62.36328c-29.175354 17.106506 -57.486206 29.882385 -84.93262 38.327393c-21.845093 6.7215576 -40.609833 10.082397 -56.29419 10.082397c-4.021637 0 -7.8407593 -0.22094727 -11.457367 -0.66296387c-37.387604 0 -71.6416 -6.9293213 -102.76193 -20.78772c-31.12033 -14.075134 -58.13449 -32.805664 -81.04253 -56.191895c-22.908035 -23.38623 -40.845444 -51.10327 -53.81224 -83.151c-12.750687 -32.04773 -19.126038 -65.50299 -19.126038 -100.365845c0 -41.142334 10.373444 -77.62924 31.12033 -109.46045c20.746887 -31.831238 47.761047 -58.68213 81.04254 -80.55252c33.49759 -21.870422 71.31741 -38.43567 113.45953 -49.695724c42.14212 -11.260056 80.394196 -16.890045 114.756226 -16.890045zm51.86725 -198.13321c-67.21127 0 -134.42258 9.419449 -201.63385 28.258343c-66.99515 18.62233 -128.0472 47.746857 -183.15613 87.373505c-54.892807 39.410065 -99.62826 88.67273 -134.20644 147.78787c-34.362038 58.89859 -51.543053 127.86624 -51.543053 206.90305c0 66.69409 11.454025 127.75806 34.362034 183.19202c23.12415 55.21747 55.217 101.6651 96.278534 139.3429c41.27765 37.677795 89.25484 66.91052 143.93155 87.6983c54.89279 20.571228 114.64816 30.856812 179.26608 30.856812c62.889008 0 124.48135 -10.177429 184.77701 -30.532043c60.295593 -20.354614 114.5401 -50.128662 162.7334 -89.32233c48.409424 -39.193542 86.98566 -87.589966 115.72876 -145.18945c28.743042 -57.599426 43.114624 -122.77759 43.114624 -195.5347c0 -32.04773 -4.3223267 -64.85339 -12.966858 -98.41699c-8.428406 -33.78009 -20.746887 -66.80234 -36.955383 -99.06662c-16.208496 -32.264282 -35.55066 -63.554153 -58.02643 -93.86966c-22.47583 -30.315445 -48.517517 -57.382797 -78.125 -81.20214c-29.39148 -23.819267 -60.835938 -42.766403 -94.33356 -56.841496c-33.49756 -14.2915745 -69.91266 -21.437363 -109.2453 -21.437363z" fill-rule="evenodd"/></g></svg>