G04*
G04 #@! TF.GenerationSoftware,Altium Limited,CircuitStudio,1.5.2 (30)*
G04*
G04 Layer_Physical_Order=4*
G04 Layer_Color=16737996*
%FSLAX25Y25*%
%MOIN*%
G70*
G01*
G75*
%ADD39C,0.00600*%
%ADD41C,0.00800*%
%ADD43C,0.01500*%
%ADD49C,0.08032*%
%ADD50C,0.11811*%
%ADD51C,0.02400*%
%ADD52O,0.05118X0.08661*%
%ADD53C,0.05118*%
%ADD54C,0.03937*%
%ADD55C,0.02500*%
G36*
X128323Y164369D02*
X130603Y163822D01*
X132770Y162924D01*
X134770Y161699D01*
X136554Y160176D01*
X138077Y158392D01*
X139302Y156392D01*
X140200Y154225D01*
X140747Y151945D01*
X140928Y149648D01*
X140920Y149606D01*
Y15748D01*
X140928Y15706D01*
X140747Y13410D01*
X140200Y11129D01*
X139302Y8962D01*
X138077Y6962D01*
X136554Y5179D01*
X134770Y3655D01*
X132770Y2430D01*
X130603Y1532D01*
X128323Y985D01*
X126026Y804D01*
X125984Y812D01*
X15748D01*
X15706Y804D01*
X13410Y985D01*
X11129Y1532D01*
X8962Y2430D01*
X6962Y3655D01*
X5179Y5179D01*
X3655Y6962D01*
X2430Y8962D01*
X1532Y11129D01*
X985Y13410D01*
X804Y15706D01*
X812Y15748D01*
Y39370D01*
X25591D01*
Y55118D01*
X812D01*
Y91493D01*
X1312Y91645D01*
X1619Y91186D01*
X2231Y90777D01*
X2953Y90633D01*
X3675Y90777D01*
X4287Y91186D01*
X4695Y91798D01*
X4839Y92520D01*
X4695Y93242D01*
X4438Y93627D01*
X4799Y93987D01*
X5184Y93730D01*
X5906Y93586D01*
X6627Y93730D01*
X7239Y94139D01*
X7517Y94555D01*
X12795D01*
X13146Y94625D01*
X13435Y94817D01*
X13469Y94810D01*
X13895Y94567D01*
X13879Y94488D01*
X14050Y93630D01*
X14536Y92902D01*
X15264Y92416D01*
X15622Y92345D01*
Y94488D01*
X16122D01*
Y94988D01*
X18266D01*
X18194Y95347D01*
X17708Y96074D01*
X16981Y96561D01*
X16122Y96731D01*
X16043Y96716D01*
X15797Y97176D01*
X20934Y102313D01*
X21395Y102067D01*
X21379Y101988D01*
X21550Y101130D01*
X22036Y100402D01*
X22764Y99916D01*
X23122Y99845D01*
Y101988D01*
X23622D01*
Y102488D01*
X25766D01*
X25694Y102847D01*
X25208Y103574D01*
X24480Y104060D01*
X23622Y104231D01*
X23543Y104216D01*
X23297Y104676D01*
X24184Y105563D01*
X40391D01*
X40627Y105122D01*
X40580Y105052D01*
X40437Y104331D01*
X40580Y103609D01*
X40989Y102997D01*
X41601Y102588D01*
X42323Y102445D01*
X43045Y102588D01*
X43657Y102997D01*
X44065Y103609D01*
X44209Y104331D01*
X44065Y105052D01*
X44019Y105122D01*
X44255Y105563D01*
X57509D01*
X85965Y77107D01*
X86263Y76908D01*
X86614Y76838D01*
X100750D01*
X101028Y76422D01*
X101640Y76013D01*
X102362Y75870D01*
X103084Y76013D01*
X103696Y76422D01*
X104105Y77034D01*
X104248Y77756D01*
X104105Y78478D01*
X103696Y79090D01*
X103084Y79499D01*
X102362Y79642D01*
X101640Y79499D01*
X101255Y79241D01*
X100895Y79602D01*
X101152Y79987D01*
X101296Y80709D01*
X101152Y81431D01*
X100743Y82042D01*
X100131Y82451D01*
X99410Y82595D01*
X98688Y82451D01*
X98076Y82042D01*
X97667Y81431D01*
X97523Y80709D01*
X97667Y79987D01*
X98076Y79375D01*
X98377Y79173D01*
X98225Y78673D01*
X86994D01*
X83358Y82310D01*
X83604Y82771D01*
X83661Y82759D01*
X84383Y82903D01*
X84995Y83312D01*
X85404Y83924D01*
X85548Y84646D01*
X85404Y85368D01*
X84995Y85979D01*
X84383Y86388D01*
X83661Y86532D01*
X82940Y86388D01*
X82328Y85979D01*
X81919Y85368D01*
X81775Y84646D01*
X81787Y84588D01*
X81326Y84342D01*
X58538Y107130D01*
X58240Y107328D01*
X57889Y107398D01*
X23804D01*
X23511Y107340D01*
X23452Y107328D01*
X23155Y107130D01*
X18715Y102690D01*
X18240Y102796D01*
X18182Y102865D01*
X17708Y103574D01*
X16981Y104060D01*
X16622Y104132D01*
Y101988D01*
X16122D01*
Y101488D01*
X13978D01*
X14050Y101130D01*
X14536Y100402D01*
X15246Y99928D01*
X15314Y99871D01*
X15420Y99395D01*
X12415Y96390D01*
X7517D01*
X7239Y96806D01*
X6627Y97215D01*
X5906Y97359D01*
X5406Y97259D01*
X5035Y97605D01*
X5377Y97991D01*
X5906Y97886D01*
X6627Y98030D01*
X7239Y98439D01*
X7648Y99051D01*
X7792Y99772D01*
X7648Y100494D01*
X7602Y100564D01*
X7837Y101005D01*
X10282D01*
X10633Y101075D01*
X10931Y101274D01*
X17992Y108334D01*
X67533D01*
X88649Y87218D01*
Y84289D01*
X88233Y84011D01*
X87824Y83399D01*
X87681Y82677D01*
X87824Y81955D01*
X88233Y81343D01*
X88845Y80935D01*
X89567Y80791D01*
X90289Y80935D01*
X90901Y81343D01*
X91310Y81955D01*
X91453Y82677D01*
X91310Y83399D01*
X90901Y84011D01*
X90485Y84289D01*
Y87598D01*
X90415Y87950D01*
X90216Y88247D01*
X68562Y109901D01*
X68265Y110100D01*
X67913Y110170D01*
X19885D01*
X19733Y110670D01*
X20035Y110871D01*
X20313Y111287D01*
X46654D01*
X47005Y111357D01*
X47302Y111556D01*
X58564Y122818D01*
X59055Y122720D01*
X59777Y122864D01*
X60389Y123273D01*
X60798Y123884D01*
X60941Y124606D01*
X60798Y125328D01*
X60389Y125940D01*
X59777Y126349D01*
X59055Y126493D01*
X58609Y126404D01*
X58375Y126851D01*
X58635Y127134D01*
X59055Y127051D01*
X59777Y127194D01*
X60389Y127603D01*
X60798Y128215D01*
X60941Y128937D01*
X60798Y129659D01*
X60389Y130271D01*
X59777Y130680D01*
X59055Y130823D01*
X58333Y130680D01*
X57721Y130271D01*
X57313Y129659D01*
X57169Y128937D01*
X57266Y128446D01*
X44895Y116075D01*
X17717D01*
X17424Y116017D01*
X17365Y116005D01*
X17097Y115826D01*
X16994Y115854D01*
X16639Y116084D01*
X16650Y116142D01*
X16552Y116633D01*
X17112Y117193D01*
X39567D01*
X39918Y117262D01*
X40216Y117461D01*
X58564Y135810D01*
X59055Y135712D01*
X59777Y135856D01*
X60389Y136265D01*
X60798Y136877D01*
X60941Y137598D01*
X60798Y138320D01*
X60389Y138932D01*
X59777Y139341D01*
X59055Y139485D01*
X58333Y139341D01*
X57721Y138932D01*
X57313Y138320D01*
X57169Y137598D01*
X57266Y137108D01*
X39187Y119028D01*
X16732D01*
X16439Y118970D01*
X16381Y118958D01*
X16083Y118759D01*
X15255Y117930D01*
X14764Y118028D01*
X14042Y117884D01*
X13430Y117475D01*
X13021Y116864D01*
X12878Y116142D01*
X13021Y115420D01*
X13430Y114808D01*
X14042Y114399D01*
X14764Y114255D01*
X14821Y114267D01*
X15067Y113806D01*
X14384Y113122D01*
X8502D01*
X8224Y113539D01*
X7612Y113947D01*
X6890Y114091D01*
X6168Y113947D01*
X5556Y113539D01*
X5482Y113428D01*
X4962Y113549D01*
X4921Y113859D01*
X11207Y120145D01*
X37402D01*
X37753Y120215D01*
X38050Y120414D01*
X59704Y142068D01*
X59903Y142365D01*
X59914Y142424D01*
X59973Y142717D01*
Y144648D01*
X60389Y144926D01*
X60798Y145538D01*
X60941Y146260D01*
X60798Y146982D01*
X60389Y147594D01*
X59777Y148003D01*
X59055Y148146D01*
X58333Y148003D01*
X57721Y147594D01*
X57313Y146982D01*
X57169Y146260D01*
X57313Y145538D01*
X57721Y144926D01*
X58138Y144648D01*
Y143097D01*
X37021Y121981D01*
X17916D01*
X17765Y122481D01*
X18066Y122682D01*
X18475Y123294D01*
X18619Y124016D01*
X18475Y124738D01*
X18066Y125349D01*
X17454Y125758D01*
X16732Y125902D01*
X16011Y125758D01*
X15398Y125349D01*
X14990Y124738D01*
X14846Y124016D01*
X14990Y123294D01*
X15398Y122682D01*
X15700Y122481D01*
X15548Y121981D01*
X10827D01*
X10476Y121911D01*
X10178Y121712D01*
X3288Y114822D01*
X3089Y114524D01*
X3019Y114173D01*
Y106234D01*
X3089Y105882D01*
X3288Y105585D01*
X4310Y104563D01*
X4212Y104072D01*
X4355Y103351D01*
X3928Y103132D01*
X3730Y103084D01*
X3675Y103121D01*
X2953Y103264D01*
X2231Y103121D01*
X1619Y102712D01*
X1312Y102253D01*
X812Y102405D01*
Y149606D01*
X804Y149648D01*
X985Y151945D01*
X1532Y154225D01*
X2430Y156392D01*
X3655Y158392D01*
X5179Y160176D01*
X6962Y161699D01*
X8962Y162924D01*
X11129Y163822D01*
X13410Y164369D01*
X15706Y164550D01*
X15748Y164542D01*
X125984D01*
X126026Y164550D01*
X128323Y164369D01*
D02*
G37*
%LPC*%
G36*
X68898Y58973D02*
X68176Y58829D01*
X67564Y58420D01*
X67155Y57808D01*
X67011Y57087D01*
X67155Y56365D01*
X67564Y55753D01*
X68176Y55344D01*
X68898Y55200D01*
X69620Y55344D01*
X70231Y55753D01*
X70640Y56365D01*
X70784Y57087D01*
X70640Y57808D01*
X70231Y58420D01*
X69620Y58829D01*
X68898Y58973D01*
D02*
G37*
G36*
X35433Y65863D02*
X34711Y65719D01*
X34099Y65310D01*
X33690Y64698D01*
X33547Y63976D01*
X33690Y63254D01*
X34099Y62643D01*
X34711Y62234D01*
X35433Y62090D01*
X35804Y62164D01*
X54397Y43570D01*
X54728Y43349D01*
X55118Y43272D01*
X58496D01*
X58706Y42957D01*
X59317Y42549D01*
X60039Y42405D01*
X60761Y42549D01*
X61373Y42957D01*
X61782Y43569D01*
X61926Y44291D01*
X61782Y45013D01*
X61373Y45625D01*
X60761Y46034D01*
X60039Y46178D01*
X59317Y46034D01*
X58706Y45625D01*
X58496Y45311D01*
X55541D01*
X37246Y63606D01*
X37319Y63976D01*
X37176Y64698D01*
X36767Y65310D01*
X36155Y65719D01*
X35433Y65863D01*
D02*
G37*
G36*
X62008Y62516D02*
X61286Y62373D01*
X60674Y61964D01*
X60265Y61352D01*
X60122Y60630D01*
X60265Y59908D01*
X60674Y59296D01*
X61286Y58887D01*
X62008Y58744D01*
X62730Y58887D01*
X63342Y59296D01*
X63750Y59908D01*
X63894Y60630D01*
X63750Y61352D01*
X63342Y61964D01*
X62730Y62373D01*
X62008Y62516D01*
D02*
G37*
G36*
X67717Y88304D02*
X66995Y88160D01*
X66383Y87751D01*
X65974Y87139D01*
X65830Y86417D01*
X65974Y85695D01*
X66340Y85147D01*
Y70079D01*
X66445Y69552D01*
X66743Y69105D01*
X79735Y56113D01*
X80182Y55815D01*
X80709Y55710D01*
X80709Y55710D01*
X126772D01*
X127298Y55815D01*
X127745Y56113D01*
X133934Y62302D01*
X134580Y62431D01*
X135192Y62839D01*
X135601Y63451D01*
X135745Y64173D01*
X135601Y64895D01*
X135192Y65507D01*
X134580Y65916D01*
X133858Y66059D01*
X133136Y65916D01*
X132525Y65507D01*
X132116Y64895D01*
X131987Y64249D01*
X126201Y58463D01*
X81279D01*
X78018Y61724D01*
X78264Y62185D01*
X78740Y62090D01*
X79462Y62234D01*
X80074Y62643D01*
X80359D01*
X80971Y62234D01*
X81693Y62090D01*
X82415Y62234D01*
X83027Y62643D01*
X83312D01*
X83924Y62234D01*
X84646Y62090D01*
X85368Y62234D01*
X85979Y62643D01*
X86388Y63254D01*
X86532Y63976D01*
X86388Y64698D01*
X85979Y65310D01*
X85368Y65719D01*
X84646Y65863D01*
X83924Y65719D01*
X83312Y65310D01*
X83027D01*
X82415Y65719D01*
X81693Y65863D01*
X80971Y65719D01*
X80359Y65310D01*
X80074D01*
X79462Y65719D01*
X78740Y65863D01*
X78018Y65719D01*
X77406Y65310D01*
X76998Y64698D01*
X76854Y63976D01*
X76949Y63500D01*
X76488Y63254D01*
X69093Y70649D01*
Y85147D01*
X69459Y85695D01*
X69603Y86417D01*
X69459Y87139D01*
X69050Y87751D01*
X68438Y88160D01*
X67717Y88304D01*
D02*
G37*
G36*
X47244Y31414D02*
X46522Y31270D01*
X45910Y30861D01*
X45501Y30249D01*
X45358Y29528D01*
X45501Y28806D01*
X45910Y28194D01*
X46522Y27785D01*
X47244Y27641D01*
X47966Y27785D01*
X48578Y28194D01*
X48987Y28806D01*
X49130Y29528D01*
X48987Y30249D01*
X48578Y30861D01*
X47966Y31270D01*
X47244Y31414D01*
D02*
G37*
G36*
X103535Y23241D02*
X103106Y23184D01*
X102241Y22825D01*
X101497Y22255D01*
X100927Y21511D01*
X100568Y20646D01*
X100512Y20217D01*
X103535D01*
Y23241D01*
D02*
G37*
G36*
X84441Y23241D02*
X84012Y23184D01*
X83146Y22825D01*
X82403Y22255D01*
X81832Y21511D01*
X81473Y20646D01*
X81417Y20217D01*
X84441D01*
Y23241D01*
D02*
G37*
G36*
X85441Y23241D02*
Y20217D01*
X88465D01*
X88408Y20646D01*
X88050Y21511D01*
X87479Y22255D01*
X86736Y22825D01*
X85870Y23184D01*
X85441Y23241D01*
D02*
G37*
G36*
X104535Y23241D02*
Y20217D01*
X107559D01*
X107503Y20646D01*
X107144Y21511D01*
X106574Y22255D01*
X105830Y22825D01*
X104964Y23184D01*
X104535Y23241D01*
D02*
G37*
G36*
X118898Y86729D02*
X118176Y86585D01*
X117564Y86176D01*
X117155Y85564D01*
X117011Y84842D01*
X117155Y84121D01*
X117564Y83509D01*
X118176Y83100D01*
X118898Y82956D01*
X119620Y83100D01*
X120231Y83509D01*
X120640Y84121D01*
X120784Y84842D01*
X120640Y85564D01*
X120231Y86176D01*
X119620Y86585D01*
X118898Y86729D01*
D02*
G37*
G36*
X107283Y86532D02*
X106561Y86388D01*
X105949Y85979D01*
X105541Y85367D01*
X105397Y84645D01*
X105541Y83924D01*
X105949Y83312D01*
X106561Y82903D01*
X107283Y82759D01*
X108005Y82903D01*
X108617Y83312D01*
X109026Y83924D01*
X109169Y84645D01*
X109026Y85367D01*
X108617Y85979D01*
X108005Y86388D01*
X107283Y86532D01*
D02*
G37*
G36*
X15622Y86488D02*
X13978D01*
X14050Y86130D01*
X14536Y85402D01*
X15264Y84916D01*
X15622Y84845D01*
Y86488D01*
D02*
G37*
G36*
X131142Y93671D02*
X129937Y93513D01*
X128814Y93048D01*
X127850Y92308D01*
X127110Y91343D01*
X126645Y90221D01*
X126486Y89016D01*
X126645Y87811D01*
X127110Y86688D01*
X127850Y85724D01*
X128814Y84984D01*
X129937Y84519D01*
X131142Y84360D01*
X132347Y84519D01*
X133469Y84984D01*
X134434Y85724D01*
X135174Y86688D01*
X135639Y87811D01*
X135797Y89016D01*
X135639Y90221D01*
X135174Y91343D01*
X134434Y92308D01*
X133469Y93048D01*
X132347Y93513D01*
X131142Y93671D01*
D02*
G37*
G36*
X8268Y82989D02*
X7546Y82845D01*
X6934Y82436D01*
X6525Y81824D01*
X6381Y81102D01*
X6525Y80380D01*
X6934Y79769D01*
X7546Y79360D01*
X8268Y79216D01*
X8990Y79360D01*
X9601Y79769D01*
X10010Y80380D01*
X10154Y81102D01*
X10010Y81824D01*
X9601Y82436D01*
X8990Y82845D01*
X8268Y82989D01*
D02*
G37*
G36*
X32480Y74721D02*
X31758Y74577D01*
X31146Y74168D01*
X30738Y73557D01*
X30594Y72835D01*
X30738Y72113D01*
X31146Y71501D01*
X31511Y71258D01*
X31405Y70727D01*
X30971Y70640D01*
X30359Y70231D01*
X29950Y69620D01*
X29807Y68898D01*
X29950Y68176D01*
X30359Y67564D01*
X30971Y67155D01*
X31693Y67011D01*
X32415Y67155D01*
X33027Y67564D01*
X33436Y68176D01*
X33579Y68898D01*
X33436Y69620D01*
X33027Y70231D01*
X32662Y70475D01*
X32768Y71006D01*
X33202Y71092D01*
X33814Y71501D01*
X34223Y72113D01*
X34367Y72835D01*
X34223Y73557D01*
X33814Y74168D01*
X33202Y74577D01*
X32480Y74721D01*
D02*
G37*
G36*
X62008D02*
X61286Y74577D01*
X60674Y74168D01*
X60265Y73557D01*
X60122Y72835D01*
X60265Y72113D01*
X60674Y71501D01*
X60988Y71291D01*
Y69320D01*
X53507Y61839D01*
X53130Y62169D01*
X53244Y62318D01*
X53710Y63441D01*
X53868Y64646D01*
X53710Y65851D01*
X53244Y66974D01*
X52505Y67938D01*
X51540Y68678D01*
X50418Y69143D01*
X50044Y69192D01*
X50044Y69696D01*
X50522Y69759D01*
X51742Y70264D01*
X52790Y71068D01*
X53594Y72116D01*
X54099Y73336D01*
X54206Y74146D01*
X49213D01*
X44219D01*
X44326Y73336D01*
X44831Y72116D01*
X45635Y71068D01*
X46683Y70264D01*
X47903Y69759D01*
X48381Y69696D01*
X48381Y69192D01*
X48008Y69143D01*
X46885Y68678D01*
X45921Y67938D01*
X45181Y66974D01*
X44716Y65851D01*
X44557Y64646D01*
X44716Y63441D01*
X45181Y62318D01*
X45295Y62169D01*
X44918Y61839D01*
X42358Y64399D01*
Y70307D01*
X42672Y70517D01*
X43081Y71129D01*
X43225Y71850D01*
X43081Y72572D01*
X42672Y73184D01*
X42060Y73593D01*
X41339Y73737D01*
X40617Y73593D01*
X40005Y73184D01*
X39596Y72572D01*
X39452Y71850D01*
X39596Y71129D01*
X40005Y70517D01*
X40319Y70307D01*
Y63976D01*
X40397Y63586D01*
X40618Y63255D01*
X45539Y58334D01*
X45870Y58113D01*
X46260Y58035D01*
X52165D01*
X52556Y58113D01*
X52886Y58334D01*
X62729Y68177D01*
X62950Y68507D01*
X63028Y68898D01*
Y71291D01*
X63342Y71501D01*
X63750Y72113D01*
X63894Y72835D01*
X63750Y73557D01*
X63342Y74168D01*
X62730Y74577D01*
X62008Y74721D01*
D02*
G37*
G36*
X49213Y92437D02*
X48491Y92294D01*
X47879Y91885D01*
X47470Y91273D01*
X47326Y90551D01*
X47470Y89829D01*
X47663Y89541D01*
X47484Y88926D01*
X46885Y88678D01*
X45921Y87938D01*
X45181Y86974D01*
X44716Y85851D01*
X44557Y84646D01*
X44716Y83441D01*
X45181Y82318D01*
X45295Y82170D01*
X40916Y77791D01*
X24182D01*
X23972Y78105D01*
X23360Y78514D01*
X22638Y78658D01*
X21916Y78514D01*
X21304Y78105D01*
X20940Y77561D01*
X20669Y77524D01*
X20399Y77561D01*
X20035Y78105D01*
X19423Y78514D01*
X18701Y78658D01*
X17979Y78514D01*
X17367Y78105D01*
X16958Y77494D01*
X16815Y76772D01*
X16958Y76050D01*
X17367Y75438D01*
X17979Y75029D01*
X18701Y74885D01*
X19423Y75029D01*
X20035Y75438D01*
X20399Y75983D01*
X20669Y76019D01*
X20940Y75983D01*
X21304Y75438D01*
X21916Y75029D01*
X22638Y74885D01*
X23360Y75029D01*
X23972Y75438D01*
X24182Y75752D01*
X41339D01*
X41729Y75830D01*
X42059Y76051D01*
X46736Y80728D01*
X46885Y80614D01*
X48008Y80149D01*
X48381Y80100D01*
X48381Y79595D01*
X47903Y79532D01*
X46683Y79027D01*
X45635Y78223D01*
X44831Y77175D01*
X44326Y75955D01*
X44219Y75146D01*
X49213D01*
X54206D01*
X54099Y75955D01*
X53594Y77175D01*
X52790Y78223D01*
X51742Y79027D01*
X50522Y79532D01*
X50044Y79595D01*
X50044Y80100D01*
X50418Y80149D01*
X51540Y80614D01*
X52505Y81354D01*
X53244Y82318D01*
X53710Y83441D01*
X53868Y84646D01*
X53710Y85851D01*
X53244Y86974D01*
X52505Y87938D01*
X51540Y88678D01*
X50941Y88926D01*
X50762Y89541D01*
X50955Y89829D01*
X51099Y90551D01*
X50955Y91273D01*
X50546Y91885D01*
X49934Y92294D01*
X49213Y92437D01*
D02*
G37*
G36*
X84646Y72752D02*
X83924Y72609D01*
X83312Y72200D01*
X83027D01*
X82415Y72609D01*
X81693Y72752D01*
X80971Y72609D01*
X80359Y72200D01*
X80074D01*
X79462Y72609D01*
X78740Y72752D01*
X78018Y72609D01*
X77406Y72200D01*
X76998Y71588D01*
X76854Y70866D01*
X76998Y70144D01*
X77406Y69532D01*
X78018Y69124D01*
X78740Y68980D01*
X79462Y69124D01*
X80074Y69532D01*
X80359D01*
X80971Y69124D01*
X81693Y68980D01*
X82415Y69124D01*
X83027Y69532D01*
X83312D01*
X83924Y69124D01*
X84646Y68980D01*
X85368Y69124D01*
X85979Y69532D01*
X86388Y70144D01*
X86532Y70866D01*
X86388Y71588D01*
X85979Y72200D01*
X85368Y72609D01*
X84646Y72752D01*
D02*
G37*
G36*
X88465Y19217D02*
X85441D01*
Y16193D01*
X85870Y16249D01*
X86736Y16608D01*
X87479Y17178D01*
X88050Y17922D01*
X88408Y18787D01*
X88465Y19217D01*
D02*
G37*
G36*
X42807Y11311D02*
X36417D01*
X36502Y10457D01*
X36896Y9156D01*
X37538Y7956D01*
X38401Y6904D01*
X39452Y6041D01*
X40652Y5400D01*
X41953Y5005D01*
X42807Y4921D01*
Y11311D01*
D02*
G37*
G36*
X108161Y8705D02*
X105072D01*
Y7433D01*
X105194Y6504D01*
X105553Y5638D01*
X106123Y4895D01*
X106867Y4324D01*
X107732Y3966D01*
X108161Y3909D01*
Y8705D01*
D02*
G37*
G36*
X62992Y18348D02*
X61717Y18222D01*
X60491Y17850D01*
X59360Y17246D01*
X58370Y16433D01*
X57557Y15443D01*
X56953Y14313D01*
X56581Y13086D01*
X56455Y11811D01*
X56581Y10536D01*
X56953Y9309D01*
X57557Y8179D01*
X58370Y7189D01*
X59360Y6376D01*
X60491Y5772D01*
X61717Y5400D01*
X62992Y5274D01*
X64267Y5400D01*
X65494Y5772D01*
X66624Y6376D01*
X67615Y7189D01*
X68427Y8179D01*
X69032Y9309D01*
X69403Y10536D01*
X69529Y11811D01*
X69403Y13086D01*
X69032Y14313D01*
X68427Y15443D01*
X67615Y16433D01*
X66624Y17246D01*
X65494Y17850D01*
X64267Y18222D01*
X62992Y18348D01*
D02*
G37*
G36*
X50197Y11311D02*
X43807D01*
Y4921D01*
X44661Y5005D01*
X45963Y5400D01*
X47162Y6041D01*
X48214Y6904D01*
X49077Y7956D01*
X49718Y9156D01*
X50113Y10457D01*
X50197Y11311D01*
D02*
G37*
G36*
X83905Y8705D02*
X80815D01*
Y3909D01*
X81244Y3966D01*
X82110Y4324D01*
X82853Y4895D01*
X83424Y5638D01*
X83782Y6504D01*
X83905Y7433D01*
Y8705D01*
D02*
G37*
G36*
X125984Y28395D02*
X124006Y28239D01*
X122076Y27776D01*
X120243Y27016D01*
X118551Y25980D01*
X117042Y24691D01*
X115753Y23182D01*
X114716Y21490D01*
X113956Y19656D01*
X113493Y17726D01*
X113337Y15748D01*
X113493Y13770D01*
X113956Y11840D01*
X114716Y10007D01*
X115753Y8314D01*
X117042Y6805D01*
X118551Y5517D01*
X120243Y4480D01*
X122076Y3720D01*
X124006Y3257D01*
X125984Y3101D01*
X127963Y3257D01*
X129892Y3720D01*
X131726Y4480D01*
X133418Y5517D01*
X134927Y6805D01*
X136216Y8314D01*
X137253Y10007D01*
X138012Y11840D01*
X138475Y13770D01*
X138631Y15748D01*
X138475Y17726D01*
X138012Y19656D01*
X137253Y21490D01*
X136216Y23182D01*
X134927Y24691D01*
X133418Y25980D01*
X131726Y27016D01*
X129892Y27776D01*
X127963Y28239D01*
X125984Y28395D01*
D02*
G37*
G36*
X15748D02*
X13770Y28239D01*
X11840Y27776D01*
X10007Y27016D01*
X8314Y25980D01*
X6805Y24691D01*
X5517Y23182D01*
X4480Y21490D01*
X3720Y19656D01*
X3257Y17726D01*
X3101Y15748D01*
X3257Y13770D01*
X3720Y11840D01*
X4480Y10007D01*
X5517Y8314D01*
X6805Y6805D01*
X8314Y5517D01*
X10007Y4480D01*
X11840Y3720D01*
X13770Y3257D01*
X15748Y3101D01*
X17726Y3257D01*
X19656Y3720D01*
X21490Y4480D01*
X23182Y5517D01*
X24691Y6805D01*
X25980Y8314D01*
X27016Y10007D01*
X27776Y11840D01*
X28239Y13770D01*
X28395Y15748D01*
X28239Y17726D01*
X27776Y19656D01*
X27016Y21490D01*
X25980Y23182D01*
X24691Y24691D01*
X23182Y25980D01*
X21490Y27016D01*
X19656Y27776D01*
X17726Y28239D01*
X15748Y28395D01*
D02*
G37*
G36*
X79815Y8705D02*
X76725D01*
Y7433D01*
X76847Y6504D01*
X77206Y5638D01*
X77777Y4895D01*
X78520Y4324D01*
X79386Y3966D01*
X79815Y3909D01*
Y8705D01*
D02*
G37*
G36*
X112251Y8705D02*
X109161D01*
Y3909D01*
X109590Y3966D01*
X110456Y4324D01*
X111200Y4895D01*
X111770Y5638D01*
X112129Y6504D01*
X112251Y7433D01*
Y8705D01*
D02*
G37*
G36*
X84441Y19217D02*
X81417D01*
X81473Y18787D01*
X81832Y17922D01*
X82403Y17178D01*
X83146Y16608D01*
X84012Y16249D01*
X84441Y16193D01*
Y19217D01*
D02*
G37*
G36*
X43807Y18701D02*
Y12311D01*
X50197D01*
X50113Y13165D01*
X49718Y14466D01*
X49077Y15666D01*
X48214Y16718D01*
X47162Y17581D01*
X45963Y18222D01*
X44661Y18617D01*
X43807Y18701D01*
D02*
G37*
G36*
X103535Y19217D02*
X100512D01*
X100568Y18787D01*
X100927Y17922D01*
X101497Y17178D01*
X102241Y16608D01*
X103106Y16249D01*
X103535Y16193D01*
Y19217D01*
D02*
G37*
G36*
X107559D02*
X104535D01*
Y16193D01*
X104964Y16249D01*
X105830Y16608D01*
X106574Y17178D01*
X107144Y17922D01*
X107503Y18787D01*
X107559Y19217D01*
D02*
G37*
G36*
X42807Y18701D02*
X41953Y18617D01*
X40652Y18222D01*
X39452Y17581D01*
X38401Y16718D01*
X37538Y15666D01*
X36896Y14466D01*
X36502Y13165D01*
X36417Y12311D01*
X42807D01*
Y18701D01*
D02*
G37*
G36*
X80815Y14500D02*
Y9705D01*
X83905D01*
Y10976D01*
X83782Y11906D01*
X83424Y12771D01*
X82853Y13515D01*
X82110Y14085D01*
X81244Y14444D01*
X80815Y14500D01*
D02*
G37*
G36*
X79815Y14500D02*
X79386Y14444D01*
X78520Y14085D01*
X77777Y13515D01*
X77206Y12771D01*
X76847Y11906D01*
X76725Y10976D01*
Y9705D01*
X79815D01*
Y14500D01*
D02*
G37*
G36*
X109161D02*
Y9705D01*
X112251D01*
Y10976D01*
X112129Y11906D01*
X111770Y12771D01*
X111200Y13515D01*
X110456Y14085D01*
X109590Y14444D01*
X109161Y14500D01*
D02*
G37*
G36*
X108161Y14500D02*
X107732Y14444D01*
X106867Y14085D01*
X106123Y13515D01*
X105553Y12771D01*
X105194Y11906D01*
X105072Y10976D01*
Y9705D01*
X108161D01*
Y14500D01*
D02*
G37*
G36*
X18266Y86488D02*
X16622D01*
Y84845D01*
X16981Y84916D01*
X17708Y85402D01*
X18194Y86130D01*
X18266Y86488D01*
D02*
G37*
G36*
X30622Y101488D02*
X28978D01*
X29050Y101130D01*
X29536Y100402D01*
X30264Y99916D01*
X30622Y99845D01*
Y101488D01*
D02*
G37*
G36*
X25766D02*
X24122D01*
Y99845D01*
X24480Y99916D01*
X25208Y100402D01*
X25694Y101130D01*
X25766Y101488D01*
D02*
G37*
G36*
X45276Y101296D02*
X44554Y101152D01*
X43942Y100743D01*
X43578Y100198D01*
X43307Y100162D01*
X43036Y100198D01*
X42672Y100743D01*
X42060Y101152D01*
X41339Y101295D01*
X40617Y101152D01*
X40005Y100743D01*
X39596Y100131D01*
X39452Y99409D01*
X39596Y98687D01*
X40005Y98075D01*
X40369Y97832D01*
X40367Y97783D01*
X40218Y97331D01*
X39632Y97215D01*
X39020Y96806D01*
X38612Y96194D01*
X38468Y95472D01*
X38612Y94750D01*
X39020Y94138D01*
X39632Y93730D01*
X40354Y93586D01*
X41076Y93730D01*
X41688Y94138D01*
X42097Y94750D01*
X42241Y95472D01*
X42097Y96194D01*
X41688Y96806D01*
X41324Y97049D01*
X41326Y97099D01*
X41475Y97550D01*
X42060Y97667D01*
X42672Y98075D01*
X43036Y98620D01*
X43307Y98657D01*
X43578Y98621D01*
X43942Y98076D01*
X44554Y97667D01*
X45276Y97523D01*
X45872Y97642D01*
X46146Y97525D01*
X46367Y97313D01*
X46486Y96719D01*
X46894Y96107D01*
X47506Y95698D01*
X48228Y95555D01*
X48825Y95673D01*
X49098Y95556D01*
X49320Y95344D01*
X49438Y94750D01*
X49847Y94138D01*
X50459Y93730D01*
X51053Y93612D01*
X51265Y93390D01*
X51382Y93116D01*
X51263Y92520D01*
X51407Y91798D01*
X51816Y91186D01*
X52428Y90777D01*
X53150Y90633D01*
X53871Y90777D01*
X54483Y91186D01*
X54892Y91798D01*
X55036Y92520D01*
X54892Y93242D01*
X54483Y93853D01*
X53871Y94262D01*
X53278Y94380D01*
X53066Y94602D01*
X52949Y94876D01*
X53067Y95472D01*
X52924Y96194D01*
X52515Y96806D01*
X51903Y97215D01*
X51181Y97359D01*
X50584Y97240D01*
X50311Y97357D01*
X50089Y97569D01*
X49971Y98163D01*
X49562Y98774D01*
X48950Y99183D01*
X48228Y99327D01*
X47632Y99208D01*
X47358Y99326D01*
X47136Y99537D01*
X47018Y100131D01*
X46609Y100743D01*
X45997Y101152D01*
X45276Y101296D01*
D02*
G37*
G36*
X33266Y101488D02*
X31622D01*
Y99845D01*
X31980Y99916D01*
X32708Y100402D01*
X33194Y101130D01*
X33266Y101488D01*
D02*
G37*
G36*
X114173Y103264D02*
X113451Y103121D01*
X112839Y102712D01*
X112431Y102100D01*
X112287Y101378D01*
X112431Y100656D01*
X112839Y100044D01*
X113451Y99635D01*
X114173Y99492D01*
X114895Y99635D01*
X115507Y100044D01*
X115916Y100656D01*
X116060Y101378D01*
X115916Y102100D01*
X115507Y102712D01*
X114895Y103121D01*
X114173Y103264D01*
D02*
G37*
G36*
X31622Y96632D02*
Y94988D01*
X33266D01*
X33194Y95347D01*
X32708Y96074D01*
X31980Y96561D01*
X31622Y96632D01*
D02*
G37*
G36*
X30622D02*
X30264Y96561D01*
X29536Y96074D01*
X29050Y95347D01*
X28978Y94988D01*
X30622D01*
Y96632D01*
D02*
G37*
G36*
X86614Y102280D02*
X85892Y102136D01*
X85280Y101727D01*
X84872Y101116D01*
X84728Y100394D01*
X84872Y99672D01*
X85280Y99060D01*
X85892Y98651D01*
X86614Y98507D01*
X87336Y98651D01*
X87948Y99060D01*
X88357Y99672D01*
X88500Y100394D01*
X88357Y101116D01*
X87948Y101727D01*
X87336Y102136D01*
X86614Y102280D01*
D02*
G37*
G36*
X106118Y99509D02*
X105396Y99365D01*
X104784Y98956D01*
X104375Y98344D01*
X104232Y97622D01*
X104375Y96900D01*
X104784Y96289D01*
X105396Y95880D01*
X106118Y95736D01*
X106840Y95880D01*
X107452Y96289D01*
X107861Y96900D01*
X108004Y97622D01*
X107861Y98344D01*
X107452Y98956D01*
X106840Y99365D01*
X106118Y99509D01*
D02*
G37*
G36*
X52559Y143619D02*
X51837Y143475D01*
X51225Y143066D01*
X50816Y142454D01*
X50673Y141732D01*
X50816Y141010D01*
X51225Y140399D01*
X51837Y139990D01*
X52559Y139846D01*
X53281Y139990D01*
X53893Y140399D01*
X54302Y141010D01*
X54445Y141732D01*
X54302Y142454D01*
X53893Y143066D01*
X53281Y143475D01*
X52559Y143619D01*
D02*
G37*
G36*
X44363Y153358D02*
X39370D01*
X34377D01*
X34483Y152549D01*
X34989Y151329D01*
X35793Y150281D01*
X36841Y149477D01*
X38061Y148972D01*
X38539Y148909D01*
X38539Y148404D01*
X38165Y148355D01*
X37042Y147890D01*
X36078Y147150D01*
X35338Y146186D01*
X34873Y145063D01*
X34714Y143858D01*
X34873Y142653D01*
X35338Y141531D01*
X36078Y140566D01*
X37042Y139826D01*
X38165Y139361D01*
X39370Y139203D01*
X40575Y139361D01*
X41698Y139826D01*
X42662Y140566D01*
X43402Y141531D01*
X43867Y142653D01*
X44026Y143858D01*
X43867Y145063D01*
X43402Y146186D01*
X42662Y147150D01*
X41698Y147890D01*
X40575Y148355D01*
X40202Y148404D01*
X40202Y148909D01*
X40679Y148972D01*
X41900Y149477D01*
X42947Y150281D01*
X43751Y151329D01*
X44257Y152549D01*
X44363Y153358D01*
D02*
G37*
G36*
X39870Y158851D02*
Y154358D01*
X44363D01*
X44257Y155168D01*
X43751Y156388D01*
X42947Y157436D01*
X41900Y158239D01*
X40679Y158745D01*
X39870Y158851D01*
D02*
G37*
G36*
X38870Y158852D02*
X38061Y158745D01*
X36841Y158239D01*
X35793Y157436D01*
X34989Y156388D01*
X34483Y155168D01*
X34377Y154358D01*
X38870D01*
Y158852D01*
D02*
G37*
G36*
X15748Y162253D02*
X13770Y162098D01*
X11840Y161634D01*
X10007Y160875D01*
X8314Y159838D01*
X6805Y158549D01*
X5517Y157040D01*
X4480Y155348D01*
X3720Y153514D01*
X3257Y151585D01*
X3101Y149606D01*
X3257Y147628D01*
X3720Y145698D01*
X4480Y143865D01*
X5517Y142173D01*
X6805Y140664D01*
X8314Y139375D01*
X10007Y138338D01*
X11840Y137578D01*
X13770Y137115D01*
X15748Y136959D01*
X17726Y137115D01*
X19656Y137578D01*
X21490Y138338D01*
X23182Y139375D01*
X24691Y140664D01*
X25980Y142173D01*
X27016Y143865D01*
X27776Y145698D01*
X28239Y147628D01*
X28395Y149606D01*
X28239Y151585D01*
X27776Y153514D01*
X27016Y155348D01*
X25980Y157040D01*
X24691Y158549D01*
X23182Y159838D01*
X21490Y160875D01*
X19656Y161634D01*
X17726Y162098D01*
X15748Y162253D01*
D02*
G37*
G36*
X30622Y104132D02*
X30264Y104060D01*
X29536Y103574D01*
X29050Y102847D01*
X28978Y102488D01*
X30622D01*
Y104132D01*
D02*
G37*
G36*
X15622D02*
X15264Y104060D01*
X14536Y103574D01*
X14050Y102847D01*
X13978Y102488D01*
X15622D01*
Y104132D01*
D02*
G37*
G36*
X39370Y138514D02*
X38165Y138355D01*
X37042Y137890D01*
X36078Y137150D01*
X35338Y136186D01*
X34873Y135063D01*
X34714Y133858D01*
X34873Y132653D01*
X35338Y131530D01*
X36078Y130566D01*
X37042Y129826D01*
X38165Y129361D01*
X39370Y129203D01*
X40575Y129361D01*
X41698Y129826D01*
X42662Y130566D01*
X43402Y131530D01*
X43867Y132653D01*
X44026Y133858D01*
X43867Y135063D01*
X43402Y136186D01*
X42662Y137150D01*
X41698Y137890D01*
X40575Y138355D01*
X39370Y138514D01*
D02*
G37*
G36*
X31622Y104132D02*
Y102488D01*
X33266D01*
X33194Y102847D01*
X32708Y103574D01*
X31980Y104060D01*
X31622Y104132D01*
D02*
G37*
G36*
X24122Y96632D02*
Y94988D01*
X25766D01*
X25694Y95347D01*
X25208Y96074D01*
X24480Y96561D01*
X24122Y96632D01*
D02*
G37*
G36*
X23122Y89132D02*
X22764Y89061D01*
X22036Y88574D01*
X21550Y87847D01*
X21478Y87488D01*
X23122D01*
Y89132D01*
D02*
G37*
G36*
X16622D02*
Y87488D01*
X18266D01*
X18194Y87847D01*
X17708Y88574D01*
X16981Y89061D01*
X16622Y89132D01*
D02*
G37*
G36*
X30622D02*
X30264Y89061D01*
X29536Y88574D01*
X29050Y87847D01*
X28978Y87488D01*
X30622D01*
Y89132D01*
D02*
G37*
G36*
X24122D02*
Y87488D01*
X25766D01*
X25694Y87847D01*
X25208Y88574D01*
X24480Y89061D01*
X24122Y89132D01*
D02*
G37*
G36*
X15622D02*
X15264Y89061D01*
X14536Y88574D01*
X14050Y87847D01*
X13978Y87488D01*
X15622D01*
Y89132D01*
D02*
G37*
G36*
X25766Y86488D02*
X24122D01*
Y84845D01*
X24480Y84916D01*
X25208Y85402D01*
X25694Y86130D01*
X25766Y86488D01*
D02*
G37*
G36*
X23122D02*
X21478D01*
X21550Y86130D01*
X22036Y85402D01*
X22764Y84916D01*
X23122Y84845D01*
Y86488D01*
D02*
G37*
G36*
X33266D02*
X31622D01*
Y84845D01*
X31980Y84916D01*
X32708Y85402D01*
X33194Y86130D01*
X33266Y86488D01*
D02*
G37*
G36*
X30622D02*
X28978D01*
X29050Y86130D01*
X29536Y85402D01*
X30264Y84916D01*
X30622Y84845D01*
Y86488D01*
D02*
G37*
G36*
X33266Y93988D02*
X31622D01*
Y92345D01*
X31980Y92416D01*
X32708Y92902D01*
X33194Y93630D01*
X33266Y93988D01*
D02*
G37*
G36*
X30622D02*
X28978D01*
X29050Y93630D01*
X29536Y92902D01*
X30264Y92416D01*
X30622Y92345D01*
Y93988D01*
D02*
G37*
G36*
X23122Y96632D02*
X22764Y96561D01*
X22036Y96074D01*
X21550Y95347D01*
X21478Y94988D01*
X23122D01*
Y96632D01*
D02*
G37*
G36*
X131142Y103671D02*
X129937Y103513D01*
X128814Y103048D01*
X127850Y102308D01*
X127110Y101344D01*
X126645Y100221D01*
X126486Y99016D01*
X126645Y97811D01*
X127110Y96688D01*
X127850Y95724D01*
X128814Y94984D01*
X129937Y94519D01*
X131142Y94360D01*
X132347Y94519D01*
X133469Y94984D01*
X134434Y95724D01*
X135174Y96688D01*
X135639Y97811D01*
X135797Y99016D01*
X135639Y100221D01*
X135174Y101344D01*
X134434Y102308D01*
X133469Y103048D01*
X132347Y103513D01*
X131142Y103671D01*
D02*
G37*
G36*
X25766Y93988D02*
X24122D01*
Y92345D01*
X24480Y92416D01*
X25208Y92902D01*
X25694Y93630D01*
X25766Y93988D01*
D02*
G37*
G36*
X99410Y94406D02*
X98688Y94262D01*
X98076Y93853D01*
X97667Y93242D01*
X97523Y92520D01*
X97667Y91798D01*
X98076Y91186D01*
X98688Y90777D01*
X99410Y90633D01*
X100131Y90777D01*
X100743Y91186D01*
X101152Y91798D01*
X101296Y92520D01*
X101152Y93242D01*
X100743Y93853D01*
X100131Y94262D01*
X99410Y94406D01*
D02*
G37*
G36*
X31622Y89132D02*
Y87488D01*
X33266D01*
X33194Y87847D01*
X32708Y88574D01*
X31980Y89061D01*
X31622Y89132D01*
D02*
G37*
G36*
X23122Y93988D02*
X21478D01*
X21550Y93630D01*
X22036Y92902D01*
X22764Y92416D01*
X23122Y92345D01*
Y93988D01*
D02*
G37*
G36*
X18266D02*
X16622D01*
Y92345D01*
X16981Y92416D01*
X17708Y92902D01*
X18194Y93630D01*
X18266Y93988D01*
D02*
G37*
%LPD*%
D39*
X86614Y77756D02*
X102362D01*
X57889Y106481D02*
X86614Y77756D01*
X23804Y106481D02*
X57889D01*
X6890Y112205D02*
X14764D01*
X10827Y121063D02*
X37402D01*
X3937Y114173D02*
X10827Y121063D01*
X3937Y106234D02*
Y114173D01*
Y106234D02*
X6098Y104072D01*
X89567Y82677D02*
Y87598D01*
X67913Y109252D02*
X89567Y87598D01*
X17612Y109252D02*
X67913D01*
X10282Y101922D02*
X17612Y109252D01*
X12795Y95472D02*
X23804Y106481D01*
X3497Y101922D02*
X10282D01*
X5906Y95472D02*
X12795D01*
X2953Y101378D02*
X3497Y101922D01*
X37402Y121063D02*
X59055Y142717D01*
Y146260D01*
X16732Y118110D02*
X39567D01*
X14764Y116142D02*
X16732Y118110D01*
X14764Y112205D02*
X17717Y115157D01*
X45276D01*
X39567Y118110D02*
X59055Y137598D01*
X45276Y115157D02*
X59055Y128937D01*
X46654Y112205D02*
X59055Y124606D01*
X18701Y112205D02*
X46654D01*
D41*
X55118Y44291D02*
X60039D01*
X35433Y63976D02*
X55118Y44291D01*
X41339Y76772D02*
X49213Y84646D01*
X22638Y76772D02*
X41339D01*
Y63976D02*
Y71850D01*
X46260Y59055D02*
X52165D01*
X41339Y63976D02*
X46260Y59055D01*
X52165D02*
X62008Y68898D01*
Y72835D01*
D43*
X67717Y70079D02*
Y86417D01*
Y70079D02*
X80709Y57087D01*
X126772D01*
X133858Y64173D01*
D49*
X131142Y99016D02*
D03*
Y89016D02*
D03*
X49213Y84646D02*
D03*
Y74646D02*
D03*
Y64646D02*
D03*
X39370Y133858D02*
D03*
Y143858D02*
D03*
Y153858D02*
D03*
D50*
X62992Y11811D02*
D03*
X43307D02*
D03*
D51*
X16122Y86988D02*
D03*
Y101988D02*
D03*
X31122D02*
D03*
Y86988D02*
D03*
Y94488D02*
D03*
X23622Y101988D02*
D03*
X16122Y94488D02*
D03*
X23622Y86988D02*
D03*
Y94488D02*
D03*
D52*
X80315Y9205D02*
D03*
X108661D02*
D03*
D53*
X84941Y19716D02*
D03*
X104035D02*
D03*
D54*
X15748Y15748D02*
D03*
X125984D02*
D03*
X15748Y149606D02*
D03*
D55*
X109252Y102362D02*
D03*
X123031Y96457D02*
D03*
X103347Y91535D02*
D03*
X99410Y92520D02*
D03*
X106118Y97622D02*
D03*
X114173Y101378D02*
D03*
X107283Y84645D02*
D03*
X99410Y80709D02*
D03*
X118898Y84842D02*
D03*
X102362Y77756D02*
D03*
X99410Y11811D02*
D03*
X51181Y21654D02*
D03*
X4921Y89567D02*
D03*
Y128937D02*
D03*
X80709Y150591D02*
D03*
X64961Y141732D02*
D03*
X22638Y127953D02*
D03*
X73819Y112205D02*
D03*
X101378Y105315D02*
D03*
X123031Y108268D02*
D03*
X111221Y74803D02*
D03*
X127953Y75787D02*
D03*
X125984Y60039D02*
D03*
X101378Y52165D02*
D03*
X95472Y74803D02*
D03*
X101378Y70866D02*
D03*
X74803Y53150D02*
D03*
X6890Y75787D02*
D03*
X3937Y72835D02*
D03*
Y68898D02*
D03*
Y57087D02*
D03*
Y61024D02*
D03*
Y64961D02*
D03*
X15748Y72835D02*
D03*
Y68898D02*
D03*
X11811Y66929D02*
D03*
X15748Y61024D02*
D03*
X11811Y62992D02*
D03*
X16732Y57087D02*
D03*
X20669D02*
D03*
X24606D02*
D03*
X27559Y53150D02*
D03*
Y49213D02*
D03*
Y45276D02*
D03*
Y41339D02*
D03*
X4921Y37402D02*
D03*
X8858D02*
D03*
X12795D02*
D03*
X16732D02*
D03*
X20669D02*
D03*
X24606D02*
D03*
X60039Y39370D02*
D03*
X72835Y27559D02*
D03*
X35433Y63976D02*
D03*
X81693Y70866D02*
D03*
X133858Y64173D02*
D03*
X67717Y86417D02*
D03*
X16732Y124016D02*
D03*
X6890Y112205D02*
D03*
X47244Y29528D02*
D03*
X68898Y57087D02*
D03*
X86614Y100394D02*
D03*
X49213Y90551D02*
D03*
X40354Y95472D02*
D03*
X42323Y104331D02*
D03*
X45276Y99410D02*
D03*
X48228Y97441D02*
D03*
X41339Y99409D02*
D03*
X53150Y92520D02*
D03*
X51181Y95472D02*
D03*
X41339Y71850D02*
D03*
X89567Y82677D02*
D03*
X7283Y108268D02*
D03*
X14764Y116142D02*
D03*
X59055Y146260D02*
D03*
Y137598D02*
D03*
Y128937D02*
D03*
Y124606D02*
D03*
X18701Y112205D02*
D03*
X6098Y104072D02*
D03*
X5906Y99772D02*
D03*
Y95472D02*
D03*
X2953Y92520D02*
D03*
Y101378D02*
D03*
Y97441D02*
D03*
X32480Y72835D02*
D03*
X62008D02*
D03*
X31693Y68898D02*
D03*
X60039Y44291D02*
D03*
X62008Y60630D02*
D03*
X8268Y81102D02*
D03*
X52559Y141732D02*
D03*
X84646Y70866D02*
D03*
X78740D02*
D03*
Y63976D02*
D03*
X81693D02*
D03*
X84646D02*
D03*
X83661Y84646D02*
D03*
X18701Y76772D02*
D03*
X22638D02*
D03*
M02*
