G04*
G04 #@! TF.GenerationSoftware,Altium Limited,CircuitStudio,1.5.2 (30)*
G04*
G04 Layer_Physical_Order=1*
G04 Layer_Color=6120410*
%FSLAX25Y25*%
%MOIN*%
G70*
G01*
G75*
%ADD10R,0.03543X0.06299*%
%ADD11R,0.01969X0.00984*%
%ADD12R,0.03150X0.01181*%
%ADD13R,0.01181X0.03150*%
%ADD14R,0.04843X0.04843*%
%ADD15R,0.02165X0.01772*%
%ADD16R,0.01378X0.03347*%
%ADD17R,0.05906X0.05906*%
%ADD18R,0.02756X0.03543*%
%ADD19R,0.01772X0.02165*%
%ADD20R,0.04724X0.02559*%
%ADD21R,0.03543X0.02756*%
%ADD22R,0.02362X0.03937*%
%ADD23R,0.21260X0.21260*%
%ADD24O,0.03543X0.00984*%
%ADD25O,0.00984X0.03543*%
%ADD26R,0.02362X0.03740*%
%ADD27R,0.06614X0.05984*%
%ADD28R,0.03937X0.02165*%
%ADD29R,0.04921X0.11811*%
%ADD30R,0.01575X0.07874*%
%ADD31R,0.02362X0.03937*%
%ADD32R,0.10630X0.03150*%
%ADD33R,0.01969X0.01181*%
%ADD34R,0.04724X0.04724*%
%ADD35R,0.05512X0.10630*%
%ADD36R,0.07874X0.02756*%
%ADD37R,0.10236X0.06693*%
%ADD38R,0.10236X0.03937*%
%ADD39C,0.00600*%
%ADD40C,0.01000*%
%ADD41C,0.00800*%
%ADD42C,0.02000*%
%ADD43C,0.01500*%
%ADD44C,0.01300*%
%ADD45C,0.02500*%
%ADD46C,0.03500*%
%ADD47C,0.04000*%
%ADD48C,0.02300*%
%ADD49C,0.08032*%
%ADD50C,0.11811*%
%ADD51C,0.02400*%
%ADD52O,0.05118X0.08661*%
%ADD53C,0.05118*%
%ADD54C,0.03937*%
%ADD55C,0.02500*%
G36*
X128323Y164369D02*
X130603Y163822D01*
X132770Y162924D01*
X134770Y161699D01*
X136554Y160176D01*
X138077Y158392D01*
X139302Y156392D01*
X140200Y154225D01*
X140747Y151945D01*
X140928Y149648D01*
X140920Y149606D01*
Y15748D01*
X140928Y15706D01*
X140747Y13410D01*
X140200Y11129D01*
X139302Y8962D01*
X138077Y6962D01*
X136554Y5179D01*
X134770Y3655D01*
X132770Y2430D01*
X130603Y1532D01*
X128323Y985D01*
X126026Y804D01*
X125984Y812D01*
X15748D01*
X15706Y804D01*
X13410Y985D01*
X11129Y1532D01*
X8962Y2430D01*
X6962Y3655D01*
X5179Y5179D01*
X3655Y6962D01*
X2430Y8962D01*
X1532Y11129D01*
X985Y13410D01*
X804Y15706D01*
X812Y15748D01*
Y38016D01*
X1165Y38370D01*
X5528D01*
Y39370D01*
X6283D01*
Y38370D01*
X10646D01*
Y39370D01*
X25591D01*
Y55118D01*
X10246D01*
Y55718D01*
X9345D01*
Y56690D01*
X9728Y56972D01*
X9845Y56972D01*
X11114D01*
Y59055D01*
Y61138D01*
X9845D01*
X9728Y61138D01*
X9610Y61225D01*
X9557Y61703D01*
X9557Y61703D01*
X9557Y61703D01*
Y64675D01*
X6191D01*
Y61703D01*
X6796D01*
Y60738D01*
X6585D01*
Y57372D01*
X6796D01*
Y55718D01*
X6684D01*
Y55118D01*
X5528D01*
Y56118D01*
X1165D01*
X812Y56472D01*
Y82701D01*
X1165Y83055D01*
X1312Y83055D01*
X3437D01*
Y85433D01*
X4437D01*
Y83055D01*
X5173D01*
X5364Y82593D01*
X4670Y81899D01*
X1565D01*
Y77943D01*
X6309D01*
Y79804D01*
X6809Y79956D01*
X6934Y79769D01*
X7546Y79360D01*
X8268Y79216D01*
X8990Y79360D01*
X9601Y79769D01*
X9811Y80083D01*
X11682D01*
Y79823D01*
X11767Y79397D01*
X12008Y79036D01*
X12333Y78819D01*
X12376Y78763D01*
X12483Y78262D01*
X7170Y72948D01*
X6903Y72549D01*
X6585D01*
Y69183D01*
X6796D01*
Y68218D01*
X6191D01*
Y65246D01*
X9557D01*
Y68218D01*
X9557Y68218D01*
X9557D01*
X9610Y68696D01*
X9728Y68783D01*
X9728Y68783D01*
X11114D01*
Y70866D01*
X11614D01*
Y71366D01*
X13500D01*
Y72949D01*
X11428D01*
X11237Y73411D01*
X15584Y77758D01*
X15710Y77835D01*
X16236Y77794D01*
X16888Y77142D01*
X16815Y76772D01*
X16958Y76050D01*
X17367Y75438D01*
X17979Y75029D01*
X18701Y74885D01*
X19423Y75029D01*
X20035Y75438D01*
X20399Y75983D01*
X20669Y76019D01*
X20940Y75983D01*
X21304Y75438D01*
X21916Y75029D01*
X22638Y74885D01*
X23360Y75029D01*
X23972Y75438D01*
X24381Y76050D01*
X24524Y76772D01*
X24381Y77494D01*
X23972Y78105D01*
X23760Y78247D01*
X23739Y78862D01*
X23822Y78939D01*
X23881Y78954D01*
X23963Y78940D01*
X24180Y78794D01*
X24606Y78709D01*
X25032Y78794D01*
X25055Y78809D01*
X25555Y78542D01*
Y68898D01*
X25633Y68507D01*
X25854Y68177D01*
X45342Y48689D01*
X45673Y48467D01*
X46063Y48390D01*
X55404D01*
Y47924D01*
X55965D01*
Y46565D01*
X55404D01*
Y43593D01*
X55004Y43421D01*
X55004D01*
Y41527D01*
X54542Y41335D01*
X52765Y43112D01*
Y46269D01*
X49203D01*
Y41329D01*
X51376D01*
X55404Y37301D01*
Y35719D01*
X56600D01*
X56648Y35647D01*
X56381Y35147D01*
X55404D01*
Y34783D01*
X50956D01*
X49027Y36712D01*
Y39377D01*
X48368D01*
Y40057D01*
X48282Y40486D01*
X48039Y40850D01*
X48039Y40850D01*
X45285Y43604D01*
Y46269D01*
X41723D01*
Y41329D01*
X44388D01*
X45840Y39877D01*
X45633Y39377D01*
X45465D01*
Y34437D01*
X48130D01*
X49698Y32868D01*
X49698Y32868D01*
X50062Y32625D01*
X50491Y32540D01*
X50491Y32540D01*
X55404D01*
Y32176D01*
X58769D01*
Y33283D01*
X59231Y33474D01*
X59837Y32868D01*
X59837Y32868D01*
X60201Y32625D01*
X60630Y32540D01*
X61309D01*
Y32176D01*
X61616D01*
Y18192D01*
X60491Y17850D01*
X59360Y17246D01*
X58370Y16433D01*
X57557Y15443D01*
X56953Y14313D01*
X56581Y13086D01*
X56455Y11811D01*
X56581Y10536D01*
X56953Y9309D01*
X57557Y8179D01*
X58370Y7189D01*
X59360Y6376D01*
X60491Y5772D01*
X61717Y5400D01*
X62992Y5274D01*
X64267Y5400D01*
X65494Y5772D01*
X66624Y6376D01*
X67615Y7189D01*
X68427Y8179D01*
X69032Y9309D01*
X69403Y10536D01*
X69529Y11811D01*
X69403Y13086D01*
X69032Y14313D01*
X68980Y14410D01*
X75796Y21226D01*
X80512D01*
X80512Y21226D01*
X81232Y21369D01*
X81609Y20974D01*
X81609Y20973D01*
X81473Y20646D01*
X81417Y20217D01*
X84441D01*
Y23241D01*
X84193Y23208D01*
X83960Y23681D01*
X88379Y28101D01*
X92490D01*
Y35285D01*
X84676D01*
Y31174D01*
X79519Y26018D01*
X78206D01*
Y29420D01*
X78356D01*
Y34557D01*
X75016D01*
Y34957D01*
X73335D01*
Y31988D01*
Y29020D01*
X74944D01*
Y26480D01*
X74803Y26018D01*
X73886Y25836D01*
X73109Y25316D01*
X65591Y17798D01*
X65494Y17850D01*
X64369Y18192D01*
Y32176D01*
X64675D01*
Y35078D01*
X65075Y35319D01*
X65075Y35319D01*
X65075D01*
X65075Y35319D01*
Y37213D01*
X65537Y37405D01*
X67885Y35057D01*
X67760Y34557D01*
X67313D01*
Y29420D01*
X70654D01*
Y29020D01*
X72335D01*
Y31988D01*
Y34957D01*
X70654D01*
X70654Y34957D01*
Y34957D01*
X70653Y34957D01*
X70216Y35108D01*
Y35433D01*
X70131Y35862D01*
X69888Y36226D01*
X69888Y36226D01*
X64675Y41439D01*
Y43021D01*
X63334D01*
X63286Y43093D01*
X63554Y43593D01*
X64675D01*
Y46565D01*
X63092D01*
X61161Y48496D01*
Y58268D01*
X61127Y58438D01*
X61537Y58837D01*
X62008Y58744D01*
X62581Y58858D01*
X63081Y58566D01*
Y58357D01*
X65240D01*
Y57957D01*
X66698D01*
X67085Y57457D01*
X67011Y57087D01*
X67155Y56365D01*
X67564Y55753D01*
X68176Y55344D01*
X68898Y55200D01*
X69620Y55344D01*
X70231Y55753D01*
X70640Y56365D01*
X70784Y57087D01*
X70640Y57808D01*
X70608Y57857D01*
X70777Y58357D01*
X70777D01*
Y62903D01*
X68618D01*
Y63303D01*
X67429D01*
Y60630D01*
X66429D01*
Y63303D01*
X65240D01*
Y62903D01*
X63081D01*
Y62693D01*
X62581Y62402D01*
X62008Y62516D01*
X61638Y62442D01*
X61138Y62829D01*
Y64681D01*
X59555D01*
Y62795D01*
X59055D01*
Y62295D01*
X56972D01*
Y60909D01*
X56972D01*
X57372Y60738D01*
Y57766D01*
X58918D01*
Y54877D01*
X58769Y54439D01*
X58418Y54439D01*
X57187D01*
X56206Y55419D01*
X55843Y55662D01*
X55413Y55747D01*
X55413Y55747D01*
X49025D01*
Y57096D01*
X45463D01*
Y52158D01*
X45108Y51807D01*
X35309Y61605D01*
X35372Y61852D01*
X35515Y62106D01*
X36155Y62234D01*
X36767Y62643D01*
X37176Y63254D01*
X37319Y63976D01*
X37176Y64698D01*
X36767Y65310D01*
X36453Y65520D01*
Y73819D01*
X36375Y74209D01*
X36154Y74540D01*
X32517Y78177D01*
X32671Y78647D01*
X33028Y78739D01*
X33485Y78460D01*
X33507Y78350D01*
X33728Y78019D01*
X39526Y72221D01*
X39452Y71850D01*
X39596Y71129D01*
X40005Y70517D01*
X40617Y70108D01*
X41339Y69964D01*
X42060Y70108D01*
X42672Y70517D01*
X43081Y71129D01*
X43225Y71850D01*
X43081Y72572D01*
X42672Y73184D01*
X42060Y73593D01*
X41339Y73737D01*
X40968Y73663D01*
X35468Y79163D01*
Y79383D01*
X35478Y79397D01*
X35562Y79823D01*
Y82071D01*
X35686Y82425D01*
X36039Y82548D01*
X38287D01*
X38713Y82633D01*
X39075Y82874D01*
X39316Y83235D01*
X39331Y83309D01*
X45656Y89634D01*
X47169D01*
X47354Y89388D01*
X47192Y88805D01*
X46885Y88678D01*
X45921Y87938D01*
X45181Y86974D01*
X44716Y85851D01*
X44557Y84646D01*
X44716Y83441D01*
X45181Y82318D01*
X45921Y81354D01*
X46885Y80614D01*
X48008Y80149D01*
X48381Y80100D01*
X48381Y79595D01*
X47903Y79532D01*
X46683Y79027D01*
X45635Y78223D01*
X44831Y77175D01*
X44326Y75955D01*
X44219Y75146D01*
X49213D01*
Y74146D01*
X44219D01*
X44326Y73336D01*
X44831Y72116D01*
X45635Y71068D01*
X46683Y70264D01*
X47903Y69759D01*
X48381Y69696D01*
X48381Y69192D01*
X48008Y69143D01*
X46885Y68678D01*
X45921Y67938D01*
X45181Y66974D01*
X44716Y65851D01*
X44557Y64646D01*
X44716Y63441D01*
X45181Y62318D01*
X45921Y61354D01*
X46885Y60614D01*
X48008Y60149D01*
X49213Y59990D01*
X50418Y60149D01*
X51540Y60614D01*
X52505Y61354D01*
X53244Y62318D01*
X53710Y63441D01*
X53868Y64646D01*
X53710Y65851D01*
X53244Y66974D01*
X52505Y67938D01*
X51540Y68678D01*
X50418Y69143D01*
X50044Y69192D01*
X50044Y69696D01*
X50522Y69759D01*
X51742Y70264D01*
X52790Y71068D01*
X53594Y72116D01*
X53992Y73078D01*
X54559Y73216D01*
X54563Y73215D01*
X57372Y70405D01*
Y69253D01*
X56972Y69012D01*
X56972Y69012D01*
X56972D01*
X56972Y69012D01*
Y67626D01*
X59055D01*
X61138D01*
Y68170D01*
X63081D01*
Y67018D01*
X70777D01*
Y70175D01*
X74018Y73416D01*
X81112D01*
Y80521D01*
X74006D01*
Y76577D01*
X72525Y75095D01*
X72063Y75287D01*
Y76468D01*
X68110D01*
X64157D01*
Y73956D01*
X63483D01*
X63342Y74168D01*
X62730Y74577D01*
X62008Y74721D01*
X61286Y74577D01*
X61153Y74488D01*
X60738Y74903D01*
Y76157D01*
X60738Y76416D01*
X60765Y76433D01*
X60775Y76439D01*
X61138Y76657D01*
Y76657D01*
X61138Y76694D01*
X61138Y76698D01*
X61138Y76702D01*
Y76702D01*
Y76707D01*
X61138Y76709D01*
X61138Y76718D01*
Y76719D01*
Y76725D01*
Y76726D01*
Y76727D01*
Y76727D01*
D01*
X61138Y77198D01*
Y78043D01*
X59055D01*
Y78543D01*
X58555D01*
Y80429D01*
X56995D01*
X56972Y80429D01*
X56722Y80457D01*
X56722Y80561D01*
X56756Y80620D01*
X57210Y80988D01*
X58555D01*
Y82874D01*
X59055D01*
Y83374D01*
X61138D01*
Y84760D01*
X61521Y85041D01*
X66447D01*
X66995Y84675D01*
X67717Y84531D01*
X68438Y84675D01*
X69050Y85084D01*
X69459Y85695D01*
X69588Y86342D01*
X75953Y92707D01*
X81112D01*
Y99813D01*
X74006D01*
Y94654D01*
X72163Y92810D01*
X71737Y92987D01*
X71663Y93018D01*
X71663Y93033D01*
X71663Y93050D01*
X71663Y93050D01*
X71663Y93079D01*
Y99813D01*
X64557D01*
Y92707D01*
X71292Y92707D01*
X71320D01*
D01*
X71337D01*
X71353Y92707D01*
X71383Y92633D01*
X71560Y92207D01*
X67641Y88289D01*
X66995Y88160D01*
X66447Y87794D01*
X60738D01*
Y87903D01*
X57372D01*
Y87016D01*
X54277Y83920D01*
X53803Y84154D01*
X53868Y84646D01*
X53710Y85851D01*
X53244Y86974D01*
X53131Y87122D01*
X55737Y89728D01*
X57372D01*
Y89262D01*
X60738D01*
Y91905D01*
X60738Y92164D01*
X60765Y92181D01*
X60775Y92187D01*
X61138Y92405D01*
Y92405D01*
X61138Y92442D01*
X61138Y92446D01*
X61138Y92450D01*
Y92450D01*
Y92455D01*
X61138Y92457D01*
X61138Y92466D01*
Y92468D01*
Y92473D01*
Y92474D01*
Y92475D01*
Y92475D01*
D01*
X61138Y92946D01*
Y93791D01*
X56972D01*
Y92475D01*
X56972Y92475D01*
X56972D01*
Y92405D01*
X57012Y92382D01*
X57000Y91831D01*
X56930Y91768D01*
X55396D01*
X55205Y91910D01*
X54974Y92210D01*
X55036Y92520D01*
X54892Y93242D01*
X54483Y93853D01*
X53871Y94262D01*
X53278Y94380D01*
X53066Y94602D01*
X52949Y94876D01*
X53067Y95472D01*
X52924Y96194D01*
X52515Y96806D01*
X51903Y97215D01*
X51181Y97359D01*
X50584Y97240D01*
X50311Y97357D01*
X50089Y97569D01*
X49971Y98163D01*
X49562Y98774D01*
X48950Y99183D01*
X48228Y99327D01*
X47632Y99208D01*
X47358Y99326D01*
X47136Y99537D01*
X47018Y100131D01*
X46609Y100743D01*
X45997Y101152D01*
X45358Y101279D01*
X45215Y101534D01*
X45152Y101781D01*
X46587Y103216D01*
X46808Y103547D01*
X46886Y103937D01*
Y113967D01*
X48828D01*
Y117726D01*
X46886D01*
Y119488D01*
X46808Y119878D01*
X46587Y120209D01*
X45265Y121531D01*
X45366Y121776D01*
Y123811D01*
X42504D01*
Y122083D01*
X32299D01*
Y123811D01*
X29437D01*
Y121777D01*
X29538Y121531D01*
X28216Y120209D01*
X27995Y119878D01*
X27917Y119488D01*
Y117726D01*
X25975D01*
Y113967D01*
X31899D01*
Y117726D01*
X29957D01*
Y119066D01*
X30934Y120043D01*
X43869D01*
X44847Y119066D01*
Y117726D01*
X42904D01*
Y113967D01*
X44847D01*
Y104670D01*
X44682Y104506D01*
X44370Y104556D01*
X44129Y104733D01*
X44065Y105052D01*
X43657Y105665D01*
X43045Y106073D01*
X42323Y106217D01*
X41911Y106135D01*
X41729Y106257D01*
X41339Y106335D01*
X38727D01*
X38713Y106344D01*
X38287Y106429D01*
X36039D01*
X35686Y106552D01*
X35562Y106905D01*
Y109153D01*
X35478Y109580D01*
X35236Y109941D01*
X34875Y110182D01*
X34449Y110267D01*
X34023Y110182D01*
X33661Y109941D01*
X33268D01*
X32906Y110182D01*
X32480Y110267D01*
X32054Y110182D01*
X31837Y110037D01*
X31496Y109976D01*
X31156Y110037D01*
X30938Y110182D01*
X30512Y110267D01*
X30086Y110182D01*
X29868Y110037D01*
X29528Y109976D01*
X29187Y110037D01*
X28969Y110182D01*
X28543Y110267D01*
X28117Y110182D01*
X27900Y110037D01*
X27559Y109976D01*
X27219Y110037D01*
X27001Y110182D01*
X26575Y110267D01*
X26149Y110182D01*
X25931Y110037D01*
X25591Y109976D01*
X25250Y110037D01*
X25032Y110182D01*
X24606Y110267D01*
X24180Y110182D01*
X23819Y109941D01*
X23425D01*
X23064Y110182D01*
X22638Y110267D01*
X22212Y110182D01*
X21994Y110037D01*
X21654Y109976D01*
X21313Y110037D01*
X21095Y110182D01*
X20669Y110267D01*
X20243Y110182D01*
X20026Y110037D01*
X19944Y110022D01*
X19885Y110038D01*
X19802Y110114D01*
X19823Y110730D01*
X20035Y110871D01*
X20444Y111483D01*
X20587Y112205D01*
X20444Y112926D01*
X20082Y113467D01*
X20164Y113752D01*
X20293Y113967D01*
X25206D01*
Y117726D01*
X23264D01*
Y119488D01*
X23186Y119878D01*
X22965Y120209D01*
X21643Y121531D01*
X21744Y121776D01*
Y124311D01*
Y126591D01*
X18882D01*
Y125029D01*
X18382Y124877D01*
X18066Y125349D01*
X17454Y125758D01*
X16732Y125902D01*
X16011Y125758D01*
X15398Y125349D01*
X14990Y124738D01*
X14846Y124016D01*
X14990Y123294D01*
X15398Y122682D01*
X15547Y122583D01*
X15396Y122083D01*
X8677D01*
Y123811D01*
X5815D01*
Y121775D01*
X5916Y121531D01*
X4594Y120209D01*
X4373Y119878D01*
X4295Y119488D01*
Y117726D01*
X2353D01*
Y113967D01*
X5297D01*
X5427Y113752D01*
X5508Y113467D01*
X5147Y112926D01*
X5003Y112205D01*
X4774Y111925D01*
X4437D01*
Y110039D01*
X3937D01*
Y109539D01*
X1854D01*
Y108154D01*
X1854D01*
X2254Y107982D01*
Y105010D01*
X3944D01*
X4299Y104510D01*
X4212Y104072D01*
X4355Y103351D01*
X3928Y103132D01*
X3730Y103084D01*
X3675Y103121D01*
X2953Y103264D01*
X2231Y103121D01*
X1619Y102712D01*
X1312Y102253D01*
X812Y102405D01*
Y149606D01*
X804Y149648D01*
X985Y151945D01*
X1532Y154225D01*
X2430Y156392D01*
X3655Y158392D01*
X5179Y160176D01*
X6962Y161699D01*
X8962Y162924D01*
X11129Y163822D01*
X13410Y164369D01*
X15706Y164550D01*
X15748Y164542D01*
X125984D01*
X126026Y164550D01*
X128323Y164369D01*
D02*
G37*
%LPC*%
G36*
X103831Y60720D02*
X102248D01*
Y59335D01*
X103831D01*
Y60720D01*
D02*
G37*
G36*
X107490Y73238D02*
X103534D01*
Y68494D01*
X105937D01*
X106104Y68327D01*
Y66712D01*
X106013Y66250D01*
X102648D01*
Y63606D01*
X102648Y63348D01*
X102621Y63331D01*
X102611Y63325D01*
X102248Y63106D01*
Y63106D01*
X102248Y63069D01*
X102248Y63066D01*
X102248Y63062D01*
Y63062D01*
Y63056D01*
X102248Y63055D01*
X102248Y63045D01*
Y63044D01*
Y63039D01*
Y63038D01*
Y63037D01*
Y63037D01*
D01*
X102248Y62566D01*
Y61720D01*
X104331D01*
X106413D01*
Y62887D01*
X106413Y63106D01*
X106797Y63387D01*
X107688D01*
X108061Y63081D01*
Y62706D01*
D01*
X108061D01*
X108061Y62706D01*
Y59466D01*
X108061Y59341D01*
Y59153D01*
Y58966D01*
X108061Y58841D01*
Y58364D01*
X107838Y58320D01*
X107475Y58077D01*
X107475Y58077D01*
X106875Y57477D01*
X106413Y57669D01*
Y58776D01*
X104831D01*
Y56890D01*
X104331D01*
Y56390D01*
X102248D01*
Y55004D01*
X102248D01*
X102648Y54832D01*
Y51861D01*
X106013D01*
Y53443D01*
X108171Y55601D01*
X112626D01*
X112833Y55101D01*
X112035Y54303D01*
X111682Y53774D01*
X111677Y53750D01*
X108652D01*
Y49670D01*
X104301D01*
Y50639D01*
X96487D01*
X96120Y50960D01*
Y52346D01*
X97925D01*
Y55118D01*
X98425D01*
Y55618D01*
X100803D01*
Y57890D01*
X99499D01*
X99308Y58352D01*
X99904Y58947D01*
X100797D01*
Y60516D01*
X101197D01*
Y61508D01*
X99213D01*
Y62508D01*
X101197D01*
Y63477D01*
X99213D01*
Y64477D01*
X101197D01*
Y65469D01*
X100797D01*
Y67037D01*
X98244D01*
Y67142D01*
X95972D01*
Y62992D01*
X94972D01*
Y67142D01*
X94035D01*
Y68494D01*
X94891D01*
Y73238D01*
X90935D01*
Y68494D01*
X91792D01*
Y67394D01*
X91435Y67037D01*
X90762D01*
X90720Y67098D01*
X89146Y68673D01*
X88616Y69027D01*
X87992Y69151D01*
X87805D01*
Y69695D01*
X86618D01*
X86425Y70056D01*
X86398Y70195D01*
X86532Y70866D01*
X86388Y71588D01*
X85979Y72200D01*
X85368Y72609D01*
X84646Y72752D01*
X83924Y72609D01*
X83530Y72346D01*
X83169Y72241D01*
X82808Y72346D01*
X82415Y72609D01*
X81693Y72752D01*
X80971Y72609D01*
X80578Y72346D01*
X80216Y72241D01*
X79855Y72346D01*
X79462Y72609D01*
X78740Y72752D01*
X78018Y72609D01*
X77406Y72200D01*
X76998Y71588D01*
X76854Y70866D01*
X76987Y70195D01*
X76961Y70056D01*
X76768Y69695D01*
X75975D01*
Y65345D01*
X76828D01*
X77096Y64845D01*
X76998Y64698D01*
X76854Y63976D01*
X76998Y63254D01*
X77406Y62643D01*
X78018Y62234D01*
X78740Y62090D01*
X79462Y62234D01*
X79855Y62497D01*
X80216Y62601D01*
X80578Y62497D01*
X80971Y62234D01*
X81693Y62090D01*
X82415Y62234D01*
X82808Y62497D01*
X83169Y62601D01*
X83530Y62497D01*
X83924Y62234D01*
X84646Y62090D01*
X85368Y62234D01*
X85979Y62643D01*
X86388Y63254D01*
X86532Y63976D01*
X86388Y64698D01*
X86290Y64845D01*
X86558Y65345D01*
X87805D01*
X87805Y65345D01*
Y65345D01*
X88162Y65043D01*
X88413Y64791D01*
X88943Y64438D01*
X89567Y64314D01*
X89757Y63976D01*
X89567Y63639D01*
X88943Y63515D01*
X88413Y63161D01*
X85891Y60639D01*
X75975D01*
Y56290D01*
X87805D01*
Y57939D01*
X89686Y59820D01*
X90148Y59629D01*
Y58947D01*
X90148D01*
X90346Y58706D01*
X90298Y58465D01*
X90422Y57840D01*
X90776Y57311D01*
X90935Y57151D01*
Y52746D01*
X92857D01*
Y50960D01*
X92490Y50639D01*
X84676D01*
Y43455D01*
X92490D01*
Y44425D01*
X96487D01*
Y43455D01*
X104301D01*
Y44425D01*
X108652D01*
Y40739D01*
X114773D01*
Y48484D01*
X114820Y48720D01*
Y52474D01*
X116311Y53965D01*
X116665Y54494D01*
X116789Y55118D01*
Y62992D01*
X116665Y63616D01*
X116311Y64146D01*
X114539Y65917D01*
X114010Y66271D01*
X113386Y66395D01*
X113198D01*
Y66446D01*
X108857D01*
Y68094D01*
X110524D01*
Y70366D01*
X108598D01*
X108146Y70179D01*
X107490Y70835D01*
Y73238D01*
D02*
G37*
G36*
X103831Y58776D02*
X102248D01*
Y57390D01*
X103831D01*
Y58776D01*
D02*
G37*
G36*
X58555Y64681D02*
X56972D01*
Y63295D01*
X58555D01*
Y64681D01*
D02*
G37*
G36*
X12114Y61138D02*
Y59555D01*
X13500D01*
Y61138D01*
X12114D01*
D02*
G37*
G36*
X106413Y60720D02*
X104831D01*
Y59335D01*
X106413D01*
Y60720D01*
D02*
G37*
G36*
X71169Y51295D02*
Y49713D01*
X72555D01*
Y51295D01*
X71169D01*
D02*
G37*
G36*
X72555Y48713D02*
X71169D01*
Y47130D01*
X72555D01*
Y48713D01*
D02*
G37*
G36*
X68783Y51295D02*
X68559Y50923D01*
X68559Y50923D01*
X68550Y50909D01*
X68542Y50895D01*
X68283Y50895D01*
X65640D01*
Y47530D01*
X66004D01*
Y46063D01*
X66004Y46063D01*
X66090Y45634D01*
X66333Y45270D01*
X67313Y44289D01*
Y40246D01*
X70876D01*
Y45384D01*
X69392D01*
X68248Y46528D01*
Y47045D01*
X68252Y47051D01*
X68748Y47189D01*
X68771Y47151D01*
X68783Y47130D01*
X68783D01*
X68820Y47130D01*
X68824Y47130D01*
X68828Y47130D01*
X68828D01*
X68833D01*
X68835Y47130D01*
X68844Y47130D01*
X68846D01*
X68852D01*
X68853D01*
X68853D01*
X69324Y47130D01*
X70169D01*
Y49213D01*
Y51295D01*
X68853D01*
X68853Y51295D01*
D01*
X68783D01*
D02*
G37*
G36*
X13500Y58555D02*
X12114D01*
Y56972D01*
X13500D01*
Y58555D01*
D02*
G37*
G36*
X100803Y54618D02*
X98925D01*
Y52346D01*
X100803D01*
Y54618D01*
D02*
G37*
G36*
X74500Y51295D02*
X73114D01*
Y49713D01*
X74500D01*
Y51295D01*
D02*
G37*
G36*
X135941Y72555D02*
X134358D01*
Y71169D01*
X135941D01*
Y72555D01*
D02*
G37*
G36*
X133358D02*
X131776D01*
Y71169D01*
X133358D01*
Y72555D01*
D02*
G37*
G36*
X13500Y70366D02*
X12114D01*
Y68783D01*
X13500D01*
Y70366D01*
D02*
G37*
G36*
X97925Y73638D02*
X96047D01*
Y71366D01*
X97925D01*
Y73638D01*
D02*
G37*
G36*
X113402D02*
X111524D01*
Y71366D01*
X113402D01*
Y73638D01*
D02*
G37*
G36*
X110524D02*
X108646D01*
Y71366D01*
X110524D01*
Y73638D01*
D02*
G37*
G36*
X97925Y70366D02*
X96047D01*
Y68094D01*
X97925D01*
Y70366D01*
D02*
G37*
G36*
X61138Y66626D02*
X59555D01*
Y65240D01*
X61138D01*
Y66626D01*
D02*
G37*
G36*
X58555D02*
X56972D01*
Y65240D01*
X58555D01*
Y66626D01*
D02*
G37*
G36*
X115838Y70366D02*
X114453D01*
Y68783D01*
X115838D01*
Y70366D01*
D02*
G37*
G36*
X113402Y70366D02*
X111524D01*
Y68094D01*
X113402D01*
Y70366D01*
D02*
G37*
G36*
X100803Y70366D02*
X98925D01*
Y68094D01*
X100803D01*
Y70366D01*
D02*
G37*
G36*
X124622Y60524D02*
X121654D01*
X118685D01*
Y58941D01*
X119085D01*
Y55601D01*
X120022D01*
Y53750D01*
X117510D01*
Y40739D01*
X123632D01*
Y44848D01*
X127157D01*
X127983Y44023D01*
Y39912D01*
X135797D01*
Y47096D01*
X131686D01*
X129844Y48938D01*
X129067Y49458D01*
X128150Y49640D01*
X128150Y49640D01*
X123632D01*
Y53750D01*
X123285D01*
Y55601D01*
X124222D01*
Y58941D01*
X124622D01*
Y60524D01*
D02*
G37*
G36*
X79815Y14500D02*
X79386Y14444D01*
X78520Y14085D01*
X77777Y13515D01*
X77206Y12771D01*
X76847Y11906D01*
X76725Y10976D01*
Y9705D01*
X79815D01*
Y14500D01*
D02*
G37*
G36*
X50197Y11311D02*
X43807D01*
Y4921D01*
X44661Y5005D01*
X45963Y5400D01*
X47162Y6041D01*
X48214Y6904D01*
X49077Y7956D01*
X49718Y9156D01*
X50113Y10457D01*
X50197Y11311D01*
D02*
G37*
G36*
X42807D02*
X36417D01*
X36502Y10457D01*
X36896Y9156D01*
X37538Y7956D01*
X38401Y6904D01*
X39452Y6041D01*
X40652Y5400D01*
X41953Y5005D01*
X42807Y4921D01*
Y11311D01*
D02*
G37*
G36*
X109161Y14500D02*
Y9705D01*
X112251D01*
Y10976D01*
X112129Y11906D01*
X111770Y12771D01*
X111200Y13515D01*
X110456Y14085D01*
X109590Y14444D01*
X109161Y14500D01*
D02*
G37*
G36*
X108161Y14500D02*
X107732Y14444D01*
X106867Y14085D01*
X106123Y13515D01*
X105553Y12771D01*
X105194Y11906D01*
X105072Y10976D01*
Y9705D01*
X108161D01*
Y14500D01*
D02*
G37*
G36*
X80815D02*
Y9705D01*
X83905D01*
Y10976D01*
X83782Y11906D01*
X83424Y12771D01*
X82853Y13515D01*
X82110Y14085D01*
X81244Y14444D01*
X80815Y14500D01*
D02*
G37*
G36*
X112251Y8705D02*
X109161D01*
Y3909D01*
X109590Y3966D01*
X110456Y4324D01*
X111200Y4895D01*
X111770Y5638D01*
X112129Y6504D01*
X112251Y7433D01*
Y8705D01*
D02*
G37*
G36*
X125984Y28395D02*
X124006Y28239D01*
X122076Y27776D01*
X120243Y27016D01*
X118551Y25980D01*
X117042Y24691D01*
X115753Y23182D01*
X114716Y21490D01*
X113956Y19656D01*
X113493Y17726D01*
X113337Y15748D01*
X113493Y13770D01*
X113956Y11840D01*
X114716Y10007D01*
X115753Y8314D01*
X117042Y6805D01*
X118551Y5517D01*
X120243Y4480D01*
X122076Y3720D01*
X124006Y3257D01*
X125984Y3101D01*
X127963Y3257D01*
X129892Y3720D01*
X131726Y4480D01*
X133418Y5517D01*
X134927Y6805D01*
X136216Y8314D01*
X137253Y10007D01*
X138012Y11840D01*
X138475Y13770D01*
X138631Y15748D01*
X138475Y17726D01*
X138012Y19656D01*
X137253Y21490D01*
X136216Y23182D01*
X134927Y24691D01*
X133418Y25980D01*
X131726Y27016D01*
X129892Y27776D01*
X127963Y28239D01*
X125984Y28395D01*
D02*
G37*
G36*
X15748D02*
X13770Y28239D01*
X11840Y27776D01*
X10007Y27016D01*
X8314Y25980D01*
X6805Y24691D01*
X5517Y23182D01*
X4480Y21490D01*
X3720Y19656D01*
X3257Y17726D01*
X3101Y15748D01*
X3257Y13770D01*
X3720Y11840D01*
X4480Y10007D01*
X5517Y8314D01*
X6805Y6805D01*
X8314Y5517D01*
X10007Y4480D01*
X11840Y3720D01*
X13770Y3257D01*
X15748Y3101D01*
X17726Y3257D01*
X19656Y3720D01*
X21490Y4480D01*
X23182Y5517D01*
X24691Y6805D01*
X25980Y8314D01*
X27016Y10007D01*
X27776Y11840D01*
X28239Y13770D01*
X28395Y15748D01*
X28239Y17726D01*
X27776Y19656D01*
X27016Y21490D01*
X25980Y23182D01*
X24691Y24691D01*
X23182Y25980D01*
X21490Y27016D01*
X19656Y27776D01*
X17726Y28239D01*
X15748Y28395D01*
D02*
G37*
G36*
X108161Y8705D02*
X105072D01*
Y7433D01*
X105194Y6504D01*
X105553Y5638D01*
X106123Y4895D01*
X106867Y4324D01*
X107732Y3966D01*
X108161Y3909D01*
Y8705D01*
D02*
G37*
G36*
X83905Y8705D02*
X80815D01*
Y3909D01*
X81244Y3966D01*
X82110Y4324D01*
X82853Y4895D01*
X83424Y5638D01*
X83782Y6504D01*
X83905Y7433D01*
Y8705D01*
D02*
G37*
G36*
X79815D02*
X76725D01*
Y7433D01*
X76847Y6504D01*
X77206Y5638D01*
X77777Y4895D01*
X78520Y4324D01*
X79386Y3966D01*
X79815Y3909D01*
Y8705D01*
D02*
G37*
G36*
X53167Y25580D02*
X51486D01*
Y23210D01*
X53167D01*
Y25580D01*
D02*
G37*
G36*
X50486D02*
X48805D01*
Y23210D01*
X50486D01*
Y25580D01*
D02*
G37*
G36*
X76886Y51295D02*
Y51295D01*
X75500D01*
Y49213D01*
X75000D01*
Y48713D01*
X73114D01*
Y47130D01*
X75453D01*
Y45384D01*
X74794D01*
Y43343D01*
X74689Y42815D01*
X74794Y42286D01*
Y40246D01*
X78356D01*
Y40317D01*
X78856Y40524D01*
X82328Y37052D01*
X82940Y36643D01*
X83661Y36500D01*
X92919D01*
X96487Y32932D01*
Y30453D01*
X93510Y27477D01*
X90494D01*
X89772Y27333D01*
X89160Y26924D01*
X88751Y26312D01*
X88608Y25594D01*
X88397Y25383D01*
X88098Y24936D01*
X87994Y24409D01*
Y24222D01*
X87983D01*
Y22377D01*
X87509Y22216D01*
X87479Y22255D01*
X86736Y22825D01*
X85870Y23184D01*
X85441Y23241D01*
Y19717D01*
Y16193D01*
X85870Y16249D01*
X86736Y16608D01*
X87479Y17178D01*
X87509Y17217D01*
X87983Y17056D01*
Y15148D01*
X97819D01*
Y14748D01*
X99106D01*
Y19685D01*
Y24622D01*
X97819D01*
Y24222D01*
X96298D01*
X96090Y24722D01*
X99469Y28101D01*
X104301D01*
Y35285D01*
X99469D01*
X95035Y39720D01*
X94423Y40128D01*
X93701Y40272D01*
X84443D01*
X80566Y44149D01*
X79954Y44558D01*
X79232Y44701D01*
X78356D01*
Y45384D01*
X77696D01*
Y46780D01*
X78447Y47530D01*
X80029D01*
Y50895D01*
X77057D01*
X76886Y51295D01*
D02*
G37*
G36*
X47244Y31414D02*
X46522Y31270D01*
X45910Y30861D01*
X45501Y30249D01*
X45358Y29528D01*
X45359Y29520D01*
X44390Y28550D01*
X41725D01*
Y23610D01*
X45287D01*
Y26275D01*
X46751Y27739D01*
X47244Y27641D01*
X47966Y27785D01*
X48305Y28012D01*
X48805Y27744D01*
Y26580D01*
X50986D01*
X53167D01*
Y28406D01*
X55000D01*
X55083Y28305D01*
X55004Y27673D01*
X55004Y27673D01*
Y27673D01*
X55004Y27636D01*
X55004Y27632D01*
X55004Y27629D01*
Y27629D01*
Y27623D01*
X55004Y27622D01*
X55004Y27612D01*
Y27611D01*
Y27606D01*
Y27605D01*
Y27603D01*
Y27603D01*
D01*
X55004Y27133D01*
Y26287D01*
X59169D01*
Y27603D01*
X59169Y27603D01*
X59169D01*
Y27603D01*
Y27673D01*
X58797Y27898D01*
X58797Y27898D01*
X58791Y27902D01*
X58769Y27915D01*
X58769Y28173D01*
Y30817D01*
X55404D01*
Y30649D01*
X48720D01*
X48578Y30861D01*
X47966Y31270D01*
X47244Y31414D01*
D02*
G37*
G36*
X59169Y25287D02*
X57587D01*
Y23902D01*
X59169D01*
Y25287D01*
D02*
G37*
G36*
X56587D02*
X55004D01*
Y23902D01*
X56587D01*
Y25287D01*
D02*
G37*
G36*
X84441Y19217D02*
X81417D01*
X81473Y18787D01*
X81832Y17922D01*
X82403Y17178D01*
X83146Y16608D01*
X84012Y16249D01*
X84441Y16193D01*
Y19217D01*
D02*
G37*
G36*
X43807Y18701D02*
Y12311D01*
X50197D01*
X50113Y13165D01*
X49718Y14466D01*
X49077Y15666D01*
X48214Y16718D01*
X47162Y17581D01*
X45963Y18222D01*
X44661Y18617D01*
X43807Y18701D01*
D02*
G37*
G36*
X42807Y18701D02*
X41953Y18617D01*
X40652Y18222D01*
X39452Y17581D01*
X38401Y16718D01*
X37538Y15666D01*
X36896Y14466D01*
X36502Y13165D01*
X36417Y12311D01*
X42807D01*
Y18701D01*
D02*
G37*
G36*
X104535Y23241D02*
Y20217D01*
X107559D01*
X107503Y20646D01*
X107144Y21511D01*
X106574Y22255D01*
X105830Y22825D01*
X104964Y23184D01*
X104535Y23241D01*
D02*
G37*
G36*
X101394Y24622D02*
X100106D01*
Y19685D01*
Y14748D01*
X101394D01*
Y16627D01*
X101894Y16874D01*
X102241Y16608D01*
X103106Y16249D01*
X103535Y16193D01*
Y19717D01*
Y23241D01*
X103106Y23184D01*
X102241Y22825D01*
X101894Y22559D01*
X101394Y22806D01*
Y24622D01*
D02*
G37*
G36*
X107559Y19217D02*
X104535D01*
Y16193D01*
X104964Y16249D01*
X105830Y16608D01*
X106574Y17178D01*
X107144Y17922D01*
X107503Y18787D01*
X107559Y19217D01*
D02*
G37*
G36*
X8677Y126591D02*
X5815D01*
Y124811D01*
X8677D01*
Y126591D01*
D02*
G37*
G36*
X49228D02*
X46366D01*
Y124811D01*
X49228D01*
Y126591D01*
D02*
G37*
G36*
X32299D02*
X29437D01*
Y124811D01*
X32299D01*
Y126591D01*
D02*
G37*
G36*
X15748Y162253D02*
X13770Y162098D01*
X11840Y161634D01*
X10007Y160875D01*
X8314Y159838D01*
X6805Y158549D01*
X5517Y157040D01*
X4480Y155348D01*
X3720Y153514D01*
X3257Y151585D01*
X3101Y149606D01*
X3257Y147628D01*
X3720Y145698D01*
X4480Y143865D01*
X5517Y142173D01*
X6805Y140664D01*
X8314Y139375D01*
X10007Y138338D01*
X11840Y137578D01*
X13770Y137115D01*
X15748Y136959D01*
X17726Y137115D01*
X19656Y137578D01*
X21490Y138338D01*
X23182Y139375D01*
X24691Y140664D01*
X25980Y142173D01*
X27016Y143865D01*
X27776Y145698D01*
X28239Y147628D01*
X28395Y149606D01*
X28239Y151585D01*
X27776Y153514D01*
X27016Y155348D01*
X25980Y157040D01*
X24691Y158549D01*
X23182Y159838D01*
X21490Y160875D01*
X19656Y161634D01*
X17726Y162098D01*
X15748Y162253D01*
D02*
G37*
G36*
X39370Y138514D02*
X38165Y138355D01*
X37042Y137890D01*
X36078Y137150D01*
X35338Y136186D01*
X34873Y135063D01*
X34714Y133858D01*
X34873Y132653D01*
X35338Y131530D01*
X36078Y130566D01*
X37042Y129826D01*
X38165Y129361D01*
X39370Y129203D01*
X40575Y129361D01*
X41698Y129826D01*
X42662Y130566D01*
X43402Y131530D01*
X43867Y132653D01*
X44026Y133858D01*
X43867Y135063D01*
X43402Y136186D01*
X42662Y137150D01*
X41698Y137890D01*
X40575Y138355D01*
X39370Y138514D01*
D02*
G37*
G36*
X54045Y152273D02*
X51073D01*
Y148908D01*
X51539D01*
Y147942D01*
X51073D01*
Y144577D01*
X51539D01*
Y143276D01*
X51225Y143066D01*
X50816Y142454D01*
X50673Y141732D01*
X50816Y141010D01*
X51225Y140399D01*
X51539Y140189D01*
Y139281D01*
X51073D01*
Y135916D01*
X51617D01*
X51661Y135850D01*
X51394Y135350D01*
X50673D01*
Y133768D01*
X52559D01*
Y132768D01*
X50673D01*
Y131185D01*
X51394D01*
X51661Y130685D01*
X51617Y130620D01*
X51073D01*
Y127254D01*
X51539D01*
Y126289D01*
X51073D01*
Y122924D01*
X51539D01*
Y121958D01*
X51073D01*
Y118593D01*
X51539D01*
Y117628D01*
X51073D01*
Y114262D01*
X54045D01*
Y117628D01*
X53579D01*
Y118593D01*
X54045D01*
Y121958D01*
X53579D01*
Y122924D01*
X54045D01*
Y126289D01*
X53579D01*
Y127254D01*
X54045D01*
Y129382D01*
X54117Y129430D01*
X54617Y129163D01*
Y127254D01*
X57588D01*
X57588Y127254D01*
Y127254D01*
X58088Y127358D01*
X58333Y127194D01*
X59055Y127051D01*
X59777Y127194D01*
X60389Y127603D01*
X60599Y127917D01*
X67944D01*
X68298Y127564D01*
Y126887D01*
X68298Y126762D01*
Y126575D01*
Y126387D01*
X68298Y126262D01*
Y125626D01*
X60599D01*
X60389Y125940D01*
X59777Y126349D01*
X59055Y126493D01*
X58333Y126349D01*
X58088Y126185D01*
X57588Y126289D01*
Y126289D01*
X57588Y126289D01*
X54617D01*
Y122924D01*
X57588D01*
X57588Y122924D01*
Y122924D01*
X58088Y123027D01*
X58333Y122864D01*
X59055Y122720D01*
X59777Y122864D01*
X60389Y123273D01*
X60599Y123587D01*
X67944D01*
X68298Y123233D01*
Y122557D01*
X68298Y122432D01*
Y122244D01*
Y122057D01*
X68298Y121932D01*
Y121295D01*
X57588D01*
Y121958D01*
X54617D01*
Y118593D01*
X57588D01*
Y119256D01*
X68298D01*
Y118101D01*
X77372D01*
Y121932D01*
X77372Y122057D01*
Y122244D01*
Y122432D01*
X77372Y122557D01*
Y126262D01*
X77372Y126387D01*
Y126575D01*
Y126762D01*
X77372Y126887D01*
Y130718D01*
X77372D01*
Y131093D01*
X77372D01*
Y135049D01*
X77372D01*
Y135424D01*
X77372D01*
Y139354D01*
X77772D01*
Y141232D01*
X72835D01*
X67898D01*
Y139354D01*
X68298D01*
Y138618D01*
X60599D01*
X60389Y138932D01*
X59777Y139341D01*
X59055Y139485D01*
X58333Y139341D01*
X58088Y139177D01*
X57588Y139281D01*
Y139281D01*
X57588Y139281D01*
X54617D01*
Y137373D01*
X54117Y137105D01*
X54045Y137153D01*
Y139281D01*
X53579D01*
Y140189D01*
X53893Y140399D01*
X54302Y141010D01*
X54445Y141732D01*
X54302Y142454D01*
X53893Y143066D01*
X53579Y143276D01*
Y144577D01*
X54045D01*
Y147942D01*
X53579D01*
Y148908D01*
X54045D01*
Y152273D01*
D02*
G37*
G36*
X28437Y126591D02*
X22744D01*
Y124311D01*
Y122031D01*
X28437D01*
Y124311D01*
Y126591D01*
D02*
G37*
G36*
X4815Y123811D02*
X1953D01*
Y122031D01*
X4815D01*
Y123811D01*
D02*
G37*
G36*
X126191Y131506D02*
X119479D01*
Y123677D01*
X112767Y116964D01*
X57588D01*
Y117628D01*
X54617D01*
Y114262D01*
X57588D01*
Y114925D01*
X113189D01*
X113579Y115003D01*
X113910Y115224D01*
X119017Y120331D01*
X119479Y120139D01*
Y119676D01*
X126191D01*
Y131506D01*
D02*
G37*
G36*
X45366Y126591D02*
X42504D01*
Y124811D01*
X45366D01*
Y126591D01*
D02*
G37*
G36*
X4815D02*
X1953D01*
Y124811D01*
X4815D01*
Y126591D01*
D02*
G37*
G36*
X49228Y123811D02*
X46366D01*
Y122031D01*
X49228D01*
Y123811D01*
D02*
G37*
G36*
X74303Y158161D02*
X68685D01*
Y155693D01*
X74303D01*
Y158161D01*
D02*
G37*
G36*
X39870Y158851D02*
Y154358D01*
X44363D01*
X44257Y155168D01*
X43751Y156388D01*
X42947Y157436D01*
X41900Y158239D01*
X40679Y158745D01*
X39870Y158851D01*
D02*
G37*
G36*
X38870Y158852D02*
X38061Y158745D01*
X36841Y158239D01*
X35793Y157436D01*
X34989Y156388D01*
X34483Y155168D01*
X34377Y154358D01*
X38870D01*
Y158852D01*
D02*
G37*
G36*
X80921Y161630D02*
X75303D01*
Y159161D01*
X80921D01*
Y161630D01*
D02*
G37*
G36*
X74303D02*
X68685D01*
Y159161D01*
X74303D01*
Y161630D01*
D02*
G37*
G36*
X80921Y158161D02*
X75303D01*
Y155693D01*
X80921D01*
Y158161D01*
D02*
G37*
G36*
X44363Y153358D02*
X39370D01*
X34377D01*
X34483Y152549D01*
X34989Y151329D01*
X35793Y150281D01*
X36841Y149477D01*
X38061Y148972D01*
X38539Y148909D01*
X38539Y148404D01*
X38165Y148355D01*
X37042Y147890D01*
X36078Y147150D01*
X35338Y146186D01*
X34873Y145063D01*
X34714Y143858D01*
X34873Y142653D01*
X35338Y141531D01*
X36078Y140566D01*
X37042Y139826D01*
X38165Y139361D01*
X39370Y139203D01*
X40575Y139361D01*
X41698Y139826D01*
X42662Y140566D01*
X43402Y141531D01*
X43867Y142653D01*
X44026Y143858D01*
X43867Y145063D01*
X43402Y146186D01*
X42662Y147150D01*
X41698Y147890D01*
X40575Y148355D01*
X40202Y148404D01*
X40202Y148909D01*
X40679Y148972D01*
X41900Y149477D01*
X42947Y150281D01*
X43751Y151329D01*
X44257Y152549D01*
X44363Y153358D01*
D02*
G37*
G36*
X126591Y144382D02*
X123335D01*
Y138567D01*
X126591D01*
Y144382D01*
D02*
G37*
G36*
X122335D02*
X119079D01*
Y138567D01*
X122335D01*
Y144382D01*
D02*
G37*
G36*
X77372Y152372D02*
X68298D01*
Y151610D01*
X57588D01*
Y152273D01*
X54617D01*
Y148908D01*
X57588D01*
Y149571D01*
X67944D01*
X68298Y149217D01*
Y148541D01*
X68298Y148416D01*
Y148228D01*
Y148041D01*
X68298Y147916D01*
Y147279D01*
X60599D01*
X60389Y147594D01*
X59777Y148003D01*
X59055Y148146D01*
X58333Y148003D01*
X58088Y147839D01*
X57588Y147942D01*
Y147942D01*
X57588Y147942D01*
X54617D01*
Y144577D01*
X57588D01*
X57588Y144577D01*
Y144577D01*
X58088Y144681D01*
X58333Y144517D01*
X59055Y144374D01*
X59777Y144517D01*
X60389Y144926D01*
X60599Y145240D01*
X68298D01*
Y144110D01*
X67898D01*
Y142232D01*
X72835D01*
X77772D01*
Y144110D01*
X77725D01*
X77372Y144464D01*
Y147916D01*
X77372Y148041D01*
Y148228D01*
Y148416D01*
X77372Y148541D01*
Y152372D01*
D02*
G37*
G36*
X126591Y151197D02*
X123335D01*
Y145382D01*
X126591D01*
Y151197D01*
D02*
G37*
G36*
X122335D02*
X119079D01*
Y145382D01*
X122335D01*
Y151197D01*
D02*
G37*
G36*
X126197Y116945D02*
X123335D01*
Y114083D01*
X126197D01*
Y116945D01*
D02*
G37*
G36*
X59555Y80429D02*
Y79043D01*
X61138D01*
Y80429D01*
X59555D01*
D02*
G37*
G36*
X114855Y80209D02*
X113469D01*
Y78626D01*
X114855D01*
Y80209D01*
D02*
G37*
G36*
X132102Y80209D02*
X130224D01*
Y77937D01*
X132102D01*
Y80209D01*
D02*
G37*
G36*
Y83480D02*
X130224D01*
Y81209D01*
X132102D01*
Y83480D01*
D02*
G37*
G36*
X129224D02*
X127347D01*
Y81209D01*
X129224D01*
Y83480D01*
D02*
G37*
G36*
X61138Y82374D02*
X59555D01*
Y80988D01*
X61138D01*
Y82374D01*
D02*
G37*
G36*
X121368Y76486D02*
X118396D01*
Y75115D01*
X117896Y74848D01*
X117824Y74896D01*
Y76486D01*
X114853D01*
Y73120D01*
X114453Y72949D01*
X114453D01*
Y71366D01*
X116338D01*
Y70866D01*
X116838D01*
Y68783D01*
X118224D01*
Y68783D01*
X118396Y69183D01*
X119978D01*
X120532Y68630D01*
Y66446D01*
X119085D01*
Y63106D01*
X118685D01*
Y61524D01*
X121654D01*
X124622D01*
Y63106D01*
X124222D01*
Y66446D01*
X122775D01*
Y69094D01*
X122775Y69095D01*
X122690Y69524D01*
X122447Y69888D01*
X122447Y69888D01*
X121672Y70663D01*
X121681Y70711D01*
X122224Y70875D01*
X125581Y67518D01*
Y64164D01*
X127624D01*
X128875Y62912D01*
X128684Y62450D01*
X127983D01*
Y55266D01*
X135797D01*
Y62450D01*
X135441D01*
X135266Y62950D01*
X135601Y63451D01*
X135745Y64173D01*
X135601Y64895D01*
X135437Y65140D01*
X135541Y65640D01*
X135541D01*
Y68283D01*
X135541Y68542D01*
X135568Y68559D01*
X135578Y68565D01*
X135941Y68783D01*
Y68783D01*
X135941Y68820D01*
X135941Y68824D01*
X135941Y68828D01*
Y68828D01*
Y68833D01*
X135941Y68835D01*
X135941Y68844D01*
Y68845D01*
Y68851D01*
Y68852D01*
Y68853D01*
Y68853D01*
D01*
X135941Y69324D01*
Y70169D01*
X131776D01*
Y68853D01*
X131776Y68853D01*
X131776D01*
Y68853D01*
Y68783D01*
X132148Y68559D01*
X132148Y68559D01*
X132154Y68555D01*
X132176Y68542D01*
X132176Y68283D01*
Y65640D01*
X132176D01*
X132279Y65140D01*
X132155Y64954D01*
X131839Y64811D01*
X131648Y64753D01*
X130324Y66077D01*
Y68120D01*
X128152D01*
X127457Y68814D01*
X127649Y69276D01*
X130724D01*
Y71153D01*
X127953D01*
Y71653D01*
X127453D01*
Y74032D01*
X125181D01*
Y71743D01*
X124719Y71552D01*
X121368Y74903D01*
Y76486D01*
D02*
G37*
G36*
X130724Y74032D02*
X128453D01*
Y72154D01*
X130724D01*
Y74032D01*
D02*
G37*
G36*
X100803Y73638D02*
X98925D01*
Y71366D01*
X100803D01*
Y73638D01*
D02*
G37*
G36*
X129224Y80209D02*
X127347D01*
Y77937D01*
X129224D01*
Y80209D01*
D02*
G37*
G36*
X72063Y80921D02*
X68610D01*
Y77469D01*
X72063D01*
Y80921D01*
D02*
G37*
G36*
X67610D02*
X64157D01*
Y77469D01*
X67610D01*
Y80921D01*
D02*
G37*
G36*
X122335Y113083D02*
X119473D01*
Y110221D01*
X122335D01*
Y113083D01*
D02*
G37*
G36*
X80921Y110449D02*
X75303D01*
Y106602D01*
X80921D01*
Y110449D01*
D02*
G37*
G36*
X74303D02*
X68685D01*
Y106602D01*
X74303D01*
Y110449D01*
D02*
G37*
G36*
X122335Y116945D02*
X119473D01*
Y114083D01*
X122335D01*
Y116945D01*
D02*
G37*
G36*
X3437Y111925D02*
X1854D01*
Y110539D01*
X3437D01*
Y111925D01*
D02*
G37*
G36*
X126197Y113083D02*
X123335D01*
Y110221D01*
X126197D01*
Y113083D01*
D02*
G37*
G36*
X58555Y96177D02*
X56972D01*
Y94791D01*
X58555D01*
Y96177D01*
D02*
G37*
G36*
X131142Y103671D02*
X129937Y103513D01*
X128814Y103048D01*
X127850Y102308D01*
X127110Y101344D01*
X126645Y100221D01*
X126486Y99016D01*
X126645Y97811D01*
X126749Y97560D01*
X121836Y92647D01*
X121374Y92838D01*
Y94110D01*
X120974D01*
Y95679D01*
X117332D01*
Y99321D01*
X115218D01*
X115172Y99821D01*
X115507Y100044D01*
X115916Y100656D01*
X116060Y101378D01*
X115916Y102100D01*
X115507Y102712D01*
X114895Y103121D01*
X114173Y103264D01*
X113451Y103121D01*
X112839Y102712D01*
X112431Y102100D01*
X112287Y101378D01*
X112431Y100656D01*
X112722Y100221D01*
X112705Y100183D01*
Y97146D01*
X111705D01*
Y99721D01*
X110614D01*
Y99321D01*
X109046D01*
Y98540D01*
X107730D01*
X107452Y98956D01*
X106840Y99365D01*
X106118Y99509D01*
X105396Y99365D01*
X104784Y98956D01*
X104375Y98344D01*
X104232Y97622D01*
X104375Y96900D01*
X104784Y96289D01*
X105123Y96062D01*
X105237Y95906D01*
X105018Y95406D01*
X101378D01*
X101027Y95336D01*
X100729Y95137D01*
X99900Y94308D01*
X99410Y94406D01*
X98688Y94262D01*
X98587Y94195D01*
X98146Y94431D01*
Y94602D01*
X96760D01*
Y92519D01*
Y90437D01*
X98146D01*
Y90609D01*
X98587Y90845D01*
X98688Y90777D01*
X99410Y90633D01*
X100131Y90777D01*
X100743Y91186D01*
X101152Y91798D01*
X101296Y92520D01*
X101198Y93011D01*
X101758Y93571D01*
X105004D01*
Y93020D01*
X107579D01*
Y92020D01*
X105004D01*
Y91051D01*
X107579D01*
Y90051D01*
X105004D01*
Y88961D01*
X105404D01*
Y87493D01*
X104979Y87211D01*
X104045Y88145D01*
Y89872D01*
X100680D01*
Y89602D01*
X99025D01*
Y89773D01*
X95857D01*
Y88205D01*
X95457D01*
Y87114D01*
X97441D01*
Y86114D01*
X95457D01*
Y85024D01*
X95857D01*
Y84503D01*
X95539Y84185D01*
X95318Y83855D01*
X95240Y83465D01*
Y82834D01*
X95177Y82764D01*
X94626Y82752D01*
X94602Y82791D01*
X94602D01*
X94565Y82791D01*
X94562Y82791D01*
X94558Y82791D01*
X94558D01*
X94552D01*
X94551Y82791D01*
X94541Y82791D01*
X94540D01*
X94535D01*
X94534D01*
X94533D01*
X94533D01*
D01*
X94062Y82791D01*
X93217D01*
Y80709D01*
Y78626D01*
X94533D01*
X94533Y78626D01*
Y78626D01*
X94533D01*
X94602D01*
X94827Y78999D01*
X94827Y78999D01*
X94831Y79004D01*
X94844Y79026D01*
X95102Y79026D01*
X97746D01*
Y79037D01*
X98246Y79261D01*
X98688Y78966D01*
X99410Y78822D01*
X100131Y78966D01*
X100516Y79223D01*
X100877Y78863D01*
X100619Y78478D01*
X100476Y77756D01*
X100619Y77034D01*
X101028Y76422D01*
X101640Y76013D01*
X102362Y75870D01*
X103084Y76013D01*
X103696Y76422D01*
X104105Y77034D01*
X104248Y77756D01*
X104175Y78127D01*
X105166Y79118D01*
X105387Y79448D01*
X105464Y79839D01*
Y83138D01*
X105873Y83284D01*
X105965Y83302D01*
X106561Y82903D01*
X106563Y82903D01*
Y82391D01*
X105994D01*
Y79026D01*
X108966D01*
Y82391D01*
X108398D01*
Y83165D01*
X108617Y83312D01*
X108685Y83414D01*
X109046Y83750D01*
X111970D01*
X112162Y83289D01*
X111264Y82391D01*
X109538D01*
Y79026D01*
X112509D01*
Y80753D01*
X113007Y81250D01*
X113106Y81209D01*
X115355D01*
Y80709D01*
X115855D01*
Y78626D01*
X117240D01*
Y78626D01*
X117412Y79026D01*
X120384D01*
Y79332D01*
X122235D01*
Y78337D01*
X126190D01*
Y83080D01*
X122235D01*
Y82085D01*
X120384D01*
Y82391D01*
X120019D01*
Y83367D01*
X120231Y83509D01*
X120640Y84121D01*
X120784Y84842D01*
X120640Y85564D01*
X120231Y86176D01*
X119620Y86585D01*
X118898Y86729D01*
X118778Y86705D01*
X118566Y86892D01*
X118755Y87392D01*
X120457D01*
X120540Y86974D01*
X120894Y86445D01*
X121423Y86091D01*
X122047Y85967D01*
X127663D01*
X127850Y85724D01*
X128814Y84984D01*
X129937Y84519D01*
X131142Y84360D01*
X132347Y84519D01*
X133469Y84984D01*
X134434Y85724D01*
X135174Y86688D01*
X135639Y87811D01*
X135797Y89016D01*
X135639Y90221D01*
X135174Y91343D01*
X134434Y92308D01*
X133469Y93048D01*
X132347Y93513D01*
X131142Y93671D01*
X129937Y93513D01*
X128814Y93048D01*
X127850Y92308D01*
X127110Y91343D01*
X126645Y90221D01*
X126514Y89230D01*
X123740D01*
X123533Y89730D01*
X128799Y94996D01*
X128814Y94984D01*
X129937Y94519D01*
X131142Y94360D01*
X132347Y94519D01*
X133469Y94984D01*
X134434Y95724D01*
X135174Y96688D01*
X135639Y97811D01*
X135797Y99016D01*
X135639Y100221D01*
X135174Y101344D01*
X134434Y102308D01*
X133469Y103048D01*
X132347Y103513D01*
X131142Y103671D01*
D02*
G37*
G36*
X86614Y102280D02*
X85892Y102136D01*
X85280Y101727D01*
X84872Y101116D01*
X84728Y100394D01*
X84872Y99672D01*
X85280Y99060D01*
X85595Y98850D01*
Y93809D01*
X84931D01*
Y90837D01*
X87399D01*
X87447Y90765D01*
X87180Y90265D01*
X84931D01*
Y87294D01*
X85493D01*
Y86316D01*
X85129Y85972D01*
X84995Y85979D01*
X84383Y86388D01*
X83661Y86532D01*
X82940Y86388D01*
X82328Y85979D01*
X81919Y85368D01*
X81775Y84646D01*
X81919Y83924D01*
X82328Y83312D01*
X82940Y82903D01*
X83661Y82759D01*
X84383Y82903D01*
X84460Y82954D01*
X84931Y82963D01*
Y82963D01*
X84931Y82963D01*
X87047D01*
X87212Y82677D01*
X87047Y82391D01*
X84931D01*
Y79420D01*
X88297D01*
Y80038D01*
X88516Y80185D01*
X89196Y80865D01*
X89567Y80791D01*
X90289Y80935D01*
X90390Y81002D01*
X90831Y80766D01*
Y78626D01*
X92217D01*
Y80709D01*
Y82843D01*
X91983Y83291D01*
X92096Y83455D01*
X93120D01*
Y85836D01*
X89951D01*
Y84997D01*
X89567Y84563D01*
X88845Y84420D01*
X88738Y84348D01*
X88297Y84584D01*
Y85935D01*
X87736D01*
Y87294D01*
X88297D01*
Y89672D01*
X88797Y89879D01*
X89951Y88725D01*
Y87392D01*
X93120D01*
Y89773D01*
X92555D01*
Y90483D01*
X92909Y90837D01*
X93874D01*
X94133Y90837D01*
X94149Y90810D01*
X94155Y90800D01*
X94374Y90437D01*
X94374D01*
X94411Y90437D01*
X94415Y90437D01*
X94418Y90437D01*
X94418D01*
X94424D01*
X94425Y90437D01*
X94435Y90437D01*
X94436D01*
X94441D01*
X94443D01*
X94444D01*
X94444D01*
D01*
X94915Y90437D01*
X95760D01*
Y92519D01*
Y94602D01*
X94444D01*
X94444Y94602D01*
Y94602D01*
X94444D01*
X94374D01*
X94149Y94230D01*
X94149Y94230D01*
X94146Y94224D01*
X94133Y94202D01*
X93874Y94202D01*
X91231D01*
Y92476D01*
X90815Y92059D01*
X90593Y91729D01*
X90584Y91683D01*
X90042Y91518D01*
X88516Y93044D01*
X88297Y93190D01*
Y93809D01*
X87634D01*
Y98850D01*
X87948Y99060D01*
X88357Y99672D01*
X88500Y100394D01*
X88357Y101116D01*
X87948Y101727D01*
X87336Y102136D01*
X86614Y102280D01*
D02*
G37*
G36*
X80921Y105602D02*
X75303D01*
Y101756D01*
X80921D01*
Y105602D01*
D02*
G37*
G36*
X74303D02*
X68685D01*
Y101756D01*
X74303D01*
Y105602D01*
D02*
G37*
G36*
X61138Y96177D02*
X59555D01*
Y94791D01*
X61138D01*
Y96177D01*
D02*
G37*
%LPD*%
D10*
X95472Y62992D02*
D03*
D11*
X91732Y65945D02*
D03*
Y63976D02*
D03*
Y62008D02*
D03*
Y60039D02*
D03*
X99213Y65945D02*
D03*
Y63976D02*
D03*
Y62008D02*
D03*
Y60039D02*
D03*
D12*
X107579Y94488D02*
D03*
Y92520D02*
D03*
Y90551D02*
D03*
Y88583D02*
D03*
X118799D02*
D03*
Y90551D02*
D03*
Y92520D02*
D03*
Y94488D02*
D03*
D13*
X110236Y85925D02*
D03*
X112205D02*
D03*
X114173D02*
D03*
X116142D02*
D03*
Y97146D02*
D03*
X114173D02*
D03*
X112205D02*
D03*
X110236D02*
D03*
D14*
X113189Y91535D02*
D03*
D15*
X59055Y59252D02*
D03*
Y62795D02*
D03*
Y70669D02*
D03*
Y67126D02*
D03*
X59055Y86417D02*
D03*
Y82874D02*
D03*
X29528Y71063D02*
D03*
Y74606D02*
D03*
X3937Y106496D02*
D03*
Y110039D02*
D03*
X7874Y66732D02*
D03*
Y63189D02*
D03*
X57087Y25787D02*
D03*
Y29331D02*
D03*
Y41535D02*
D03*
Y45079D02*
D03*
Y49409D02*
D03*
Y52953D02*
D03*
Y33661D02*
D03*
Y37205D02*
D03*
X104331Y56890D02*
D03*
Y53347D02*
D03*
Y64764D02*
D03*
Y61221D02*
D03*
X133858Y67126D02*
D03*
Y70669D02*
D03*
X62992Y41535D02*
D03*
Y45079D02*
D03*
Y33661D02*
D03*
Y37205D02*
D03*
X59055Y90748D02*
D03*
Y94291D02*
D03*
X86614Y84449D02*
D03*
Y80905D02*
D03*
X102362Y84842D02*
D03*
Y88386D02*
D03*
X86614Y88779D02*
D03*
Y92323D02*
D03*
X59055Y75000D02*
D03*
Y78543D02*
D03*
D16*
X69488Y69291D02*
D03*
X66929D02*
D03*
X64370D02*
D03*
X69488Y60630D02*
D03*
X66929D02*
D03*
X64370D02*
D03*
D17*
X77559Y96260D02*
D03*
X68110D02*
D03*
Y76968D02*
D03*
X77559D02*
D03*
D18*
X124213Y80709D02*
D03*
X129724D02*
D03*
X105512Y70866D02*
D03*
X111024D02*
D03*
X92913Y55118D02*
D03*
X98425D02*
D03*
X92913Y70866D02*
D03*
X98425D02*
D03*
D19*
X118898Y80709D02*
D03*
X115354D02*
D03*
X111024D02*
D03*
X107480D02*
D03*
X56102Y115945D02*
D03*
X52559D02*
D03*
X56102Y124606D02*
D03*
X52559D02*
D03*
X56102Y120276D02*
D03*
X52559D02*
D03*
X56102Y150591D02*
D03*
X52559D02*
D03*
X56102Y146260D02*
D03*
X52559D02*
D03*
X56102Y133268D02*
D03*
X52559D02*
D03*
X56102Y128937D02*
D03*
X52559D02*
D03*
X56102Y137598D02*
D03*
X52559D02*
D03*
X8071Y59055D02*
D03*
X11614D02*
D03*
X8071Y70866D02*
D03*
X11614D02*
D03*
X116339Y70866D02*
D03*
X119882D02*
D03*
X116339Y74803D02*
D03*
X119882D02*
D03*
X78543Y49213D02*
D03*
X75000D02*
D03*
X70669D02*
D03*
X67126D02*
D03*
X92716Y92520D02*
D03*
X96260D02*
D03*
X96260Y80709D02*
D03*
X92717D02*
D03*
D20*
X45866Y124311D02*
D03*
X28937D02*
D03*
Y115847D02*
D03*
X45866D02*
D03*
X22244Y124311D02*
D03*
X5315D02*
D03*
Y115847D02*
D03*
X22244D02*
D03*
D21*
X3937Y79921D02*
D03*
Y85433D02*
D03*
X127953Y66142D02*
D03*
Y71653D02*
D03*
D22*
X3346Y53150D02*
D03*
Y41339D02*
D03*
X8465D02*
D03*
Y53150D02*
D03*
D23*
X23622Y94488D02*
D03*
D24*
X10236Y83661D02*
D03*
Y85630D02*
D03*
Y87598D02*
D03*
Y89567D02*
D03*
Y91535D02*
D03*
Y93504D02*
D03*
Y95473D02*
D03*
Y97441D02*
D03*
Y99410D02*
D03*
Y101378D02*
D03*
Y103347D02*
D03*
Y105315D02*
D03*
X37008D02*
D03*
Y103347D02*
D03*
Y101378D02*
D03*
Y99410D02*
D03*
Y97441D02*
D03*
Y95473D02*
D03*
Y93504D02*
D03*
Y91535D02*
D03*
Y89567D02*
D03*
Y87598D02*
D03*
Y85630D02*
D03*
Y83661D02*
D03*
D25*
X12795Y107874D02*
D03*
X14764D02*
D03*
X16732D02*
D03*
X18701D02*
D03*
X20669D02*
D03*
X22638D02*
D03*
X24606D02*
D03*
X26575D02*
D03*
X28543D02*
D03*
X30512D02*
D03*
X32480D02*
D03*
X34449D02*
D03*
Y81102D02*
D03*
X32480D02*
D03*
X30512D02*
D03*
X28543D02*
D03*
X26575D02*
D03*
X24606D02*
D03*
X22638D02*
D03*
X20669D02*
D03*
X18701D02*
D03*
X16732D02*
D03*
X14764D02*
D03*
X12795D02*
D03*
D26*
X47244Y54626D02*
D03*
X50984Y43799D02*
D03*
X43504D02*
D03*
X47246Y36907D02*
D03*
X50986Y26080D02*
D03*
X43506D02*
D03*
D27*
X88583Y31693D02*
D03*
Y47047D02*
D03*
X131890Y43504D02*
D03*
Y58858D02*
D03*
X100394Y31693D02*
D03*
Y47047D02*
D03*
D28*
X121654Y57284D02*
D03*
Y61024D02*
D03*
Y64764D02*
D03*
X110630Y57284D02*
D03*
Y61024D02*
D03*
Y64764D02*
D03*
D29*
X111713Y47244D02*
D03*
X120571D02*
D03*
D30*
X99606Y19685D02*
D03*
X97047D02*
D03*
X94488D02*
D03*
X91929D02*
D03*
X89370D02*
D03*
D31*
X69095Y31988D02*
D03*
X72835D02*
D03*
X76575D02*
D03*
Y42815D02*
D03*
X69095D02*
D03*
D32*
X81890Y67520D02*
D03*
Y58465D02*
D03*
D33*
X91536Y84646D02*
D03*
Y88583D02*
D03*
X97441D02*
D03*
Y86614D02*
D03*
Y84646D02*
D03*
D34*
X122835Y113583D02*
D03*
D35*
Y144882D02*
D03*
Y125591D02*
D03*
D36*
X72835Y120079D02*
D03*
Y124409D02*
D03*
Y128740D02*
D03*
Y133071D02*
D03*
Y137402D02*
D03*
Y141732D02*
D03*
Y146063D02*
D03*
Y150394D02*
D03*
D37*
X74803Y106102D02*
D03*
D38*
Y158661D02*
D03*
D39*
X101378Y94488D02*
X107579D01*
X99410Y92520D02*
X101378Y94488D01*
X114173Y97146D02*
Y101378D01*
X106118Y97622D02*
X109760D01*
X107480Y80709D02*
Y88484D01*
X107579Y88583D01*
X96653Y62008D02*
X99409D01*
X96653Y63976D02*
X99409D01*
X12795Y107874D02*
Y111221D01*
X11811Y112205D02*
X12795Y111221D01*
X6890Y112205D02*
X11811D01*
X69488Y57677D02*
Y60630D01*
X68898Y57087D02*
X69488Y57677D01*
X45276Y90551D02*
X49213D01*
X38386Y83661D02*
X45276Y90551D01*
X37008Y83661D02*
X38386D01*
X38644Y85630D02*
X45715Y92701D01*
X46607Y95291D02*
X50999D01*
X38915Y87598D02*
X46607Y95291D01*
X47060Y97441D02*
X48228D01*
X39186Y89567D02*
X47060Y97441D01*
X43307Y97441D02*
X45276Y99410D01*
X43307Y95385D02*
Y97441D01*
X39458Y91535D02*
X43307Y95385D01*
X37008Y85630D02*
X38644D01*
X45715Y92701D02*
X52968D01*
X53150Y92520D01*
X37008Y91535D02*
X39458D01*
X39551Y97622D02*
X41339Y99409D01*
X37189Y97622D02*
X39551D01*
X37008Y89567D02*
X39186D01*
X50999Y95291D02*
X51181Y95472D01*
X37008Y87598D02*
X38915D01*
X37008Y97441D02*
X37189Y97622D01*
X14764Y107874D02*
Y116142D01*
X16732Y110236D02*
X18701Y112205D01*
X16732Y107874D02*
Y110236D01*
X5906Y95472D02*
X10236D01*
X7340Y101378D02*
X10236D01*
X6796Y101922D02*
X7340Y101378D01*
X3497Y101922D02*
X6796D01*
X5906Y99772D02*
X6268Y99410D01*
X6978Y97441D02*
X10236D01*
X6796Y97622D02*
X6978Y97441D01*
X3134Y97622D02*
X6796D01*
X6268Y99410D02*
X10236D01*
X2953Y101378D02*
X3497Y101922D01*
X7253Y103347D02*
X10236D01*
D40*
X120552Y92520D02*
X121474Y93442D01*
X118799Y92520D02*
X120552D01*
X121474Y93442D02*
Y94899D01*
X96260Y80709D02*
X99410D01*
X107579Y90551D02*
X112205D01*
X107579Y92520D02*
X112205D01*
Y97146D01*
X114173Y92520D02*
X118799D01*
X121195Y88451D02*
X122047Y87598D01*
X121177Y88451D02*
X121195D01*
X121046Y88583D02*
X121177Y88451D01*
X118799Y88583D02*
X121046D01*
X118799Y90551D02*
X122047D01*
X114173Y83661D02*
Y85925D01*
Y83661D02*
X114943Y82891D01*
X118898D01*
Y80709D02*
Y84842D01*
X117815Y85925D02*
X118898Y84842D01*
X116142Y85925D02*
X117815D01*
X95472Y63189D02*
Y74803D01*
X62205Y37205D02*
X62992D01*
X60039Y39370D02*
X62205Y37205D01*
X57087Y41535D02*
X57874D01*
X60039Y39370D01*
X72835Y27559D02*
Y31988D01*
X47244Y29528D02*
X57284D01*
X46953D02*
X47244D01*
X50491Y33661D02*
X57087D01*
X61221Y72835D02*
X62008D01*
X64961D01*
X66929Y70866D01*
X59055Y75000D02*
X61221Y72835D01*
X43506Y26080D02*
X46953Y29528D01*
X47246Y36907D02*
X50491Y33661D01*
X50984Y43307D02*
Y43799D01*
X60630Y33661D02*
X62992D01*
X50984Y43307D02*
X57087Y37205D01*
X60630Y33661D01*
X43504Y43799D02*
X47246Y40057D01*
Y36907D02*
Y40057D01*
X57087Y45079D02*
Y49409D01*
X47244Y54626D02*
X55413D01*
X57087Y52953D01*
X62992Y41535D02*
X69095Y35433D01*
Y31988D02*
Y35433D01*
X67126Y46063D02*
Y49213D01*
Y46063D02*
X69095Y44094D01*
Y42815D02*
Y44094D01*
X59055Y59252D02*
X60039Y58268D01*
Y48031D02*
Y58268D01*
Y48031D02*
X62992Y45079D01*
X76575Y42815D02*
Y47244D01*
X78543Y49213D01*
X91929Y58465D02*
Y60039D01*
X99409Y60039D02*
Y60039D01*
X97835Y58465D02*
X99409Y60039D01*
X91929Y58465D02*
X97835D01*
X104331Y53347D02*
X108268Y57284D01*
X110630D01*
X116339Y74409D02*
Y74803D01*
X121654Y64764D02*
Y69095D01*
X116339Y74409D02*
X119882Y70866D01*
X121654Y69095D01*
X119882Y74803D02*
X127953Y66732D01*
Y66142D02*
Y66732D01*
X91929Y65945D02*
X92913Y66929D01*
Y70866D01*
X59055Y70669D02*
X60433Y69291D01*
X64370D01*
X59055Y59252D02*
X60433Y60630D01*
X64370D01*
X66929Y69291D02*
Y70866D01*
X69488Y69291D02*
Y70473D01*
X75984Y76968D01*
X77559D01*
X59055Y78543D02*
Y82874D01*
Y78543D02*
X66536D01*
X83661Y84646D02*
X86417D01*
X86614Y84449D02*
Y88779D01*
D41*
X104445Y79839D02*
Y86303D01*
X102362Y88386D02*
X104445Y86303D01*
X113976Y83661D02*
X114173D01*
X111024Y80709D02*
X113976Y83661D01*
X111024Y80709D02*
X111221D01*
X102362Y77756D02*
X104445Y79839D01*
X35433Y63976D02*
Y73819D01*
X30512Y78740D02*
X35433Y73819D01*
X26575Y68898D02*
X46063Y49409D01*
X26575Y68898D02*
Y81102D01*
X46063Y49409D02*
X57087D01*
X30512Y78740D02*
Y81102D01*
X16732Y121063D02*
X20669D01*
X6890D02*
X16732D01*
Y124016D01*
X55315Y90748D02*
X59055D01*
X49213Y84646D02*
X55315Y90748D01*
X97441Y88583D02*
X102165D01*
X86614Y92323D02*
Y100394D01*
X40354Y95472D02*
Y95472D01*
X45866Y103937D02*
Y115847D01*
X44010Y102081D02*
X45866Y103937D01*
X41391Y102081D02*
X44010D01*
X41339Y105315D02*
X42323Y104331D01*
X40125Y103347D02*
X41391Y102081D01*
X40354Y95472D02*
X40354Y95473D01*
X37008Y103347D02*
X40125D01*
X34449Y78740D02*
X41339Y71850D01*
X34449Y78740D02*
Y81102D01*
X37008Y105315D02*
X41339D01*
X37008Y95473D02*
X40354D01*
X87795Y80905D02*
X91536Y84646D01*
X59055Y146260D02*
X72638D01*
X56102D02*
X59055D01*
X56102Y128937D02*
X72638D01*
X59055Y137598D02*
X72638D01*
X56102D02*
X59055D01*
Y124606D02*
X72638D01*
X56102D02*
X59055D01*
X7874Y93504D02*
X10236D01*
X6890Y92520D02*
X7874Y93504D01*
X2953Y92520D02*
X6890D01*
X10236Y105315D02*
Y106890D01*
X8858Y108268D02*
X10236Y106890D01*
X5709Y108268D02*
X8858D01*
X3937Y106496D02*
X5709Y108268D01*
X30709Y74606D02*
X32480Y72835D01*
X29528Y74606D02*
X30709D01*
X29528Y71063D02*
X31693Y68898D01*
X60039Y44291D02*
X60236D01*
X62992Y41535D01*
X89567Y65945D02*
X91929D01*
X89567Y62008D02*
X91929D01*
X97441Y84646D02*
X102165D01*
X102362Y84842D01*
X86614Y80905D02*
X87795D01*
X86614Y92323D02*
X87795D01*
X91536Y88583D01*
Y91339D02*
X92716Y92520D01*
X91536Y88583D02*
Y91339D01*
X96260Y80709D02*
Y83465D01*
X97441Y84646D01*
X28543Y75591D02*
Y81102D01*
Y75591D02*
X29528Y74606D01*
X7874Y87598D02*
X10236D01*
X6890Y86614D02*
X7874Y87598D01*
X8268Y81102D02*
X12795D01*
X3937Y79921D02*
X4134D01*
X6890Y82480D02*
X8268Y81102D01*
X6890Y82677D02*
Y86614D01*
X4134Y79921D02*
X6890Y82677D01*
Y82480D02*
Y82677D01*
X5315Y115847D02*
Y119488D01*
X6890Y121063D01*
X20669D02*
X22244Y119488D01*
Y115847D02*
Y119488D01*
X28937Y115847D02*
Y119488D01*
X30512Y121063D01*
X44291D01*
X45866Y119488D01*
Y115847D02*
Y119488D01*
X52559Y115945D02*
Y120276D01*
Y124606D01*
Y128937D01*
Y129724D02*
X56102Y133268D01*
X52559Y128937D02*
Y129724D01*
Y136811D02*
Y137598D01*
Y136811D02*
X56102Y133268D01*
X52559Y137598D02*
Y146260D01*
Y150591D01*
X56102Y133268D02*
X72638D01*
X56102Y120276D02*
X72638D01*
X56102Y115945D02*
X113189D01*
X122835Y125591D01*
X56102Y150591D02*
X72638D01*
X14764Y78740D02*
Y81102D01*
X18701Y77756D02*
Y81102D01*
X16732Y78740D02*
Y81102D01*
X20669Y81102D02*
X20669Y81102D01*
X20669Y78969D02*
Y81102D01*
Y78969D02*
X22638Y77001D01*
Y76772D02*
Y77001D01*
X16732Y78740D02*
X18701Y76772D01*
D42*
X122047Y87598D02*
X129724D01*
X131142Y89016D01*
X122047Y90551D02*
X130512Y99016D01*
X76575Y23819D02*
Y31988D01*
X91929Y58465D02*
X92913Y57480D01*
Y55118D02*
Y57480D01*
Y55118D02*
X94488Y53543D01*
Y47047D02*
Y53543D01*
X110630Y64764D02*
X113386D01*
X115157Y62992D01*
X111713Y47244D02*
X113189Y48720D01*
Y53150D01*
X115157Y55118D01*
X110630Y61024D02*
X115157D01*
X115157Y55118D02*
Y62992D01*
X121654Y48327D02*
Y57284D01*
X120571Y47244D02*
X121654Y48327D01*
X127953Y66142D02*
X131890Y62205D01*
X87992Y67520D02*
X89567Y65945D01*
X86024Y58465D02*
X89567Y62008D01*
X81890Y58465D02*
X86024D01*
X81890Y67520D02*
X84646D01*
X87992D01*
D43*
X124213Y80709D02*
X124213Y80709D01*
X118898Y80709D02*
X124213D01*
X81693Y63976D02*
Y70866D01*
X55118Y74606D02*
X59055Y70669D01*
X55118Y74606D02*
Y82815D01*
X62992Y11811D02*
Y33661D01*
X89370Y19685D02*
Y24409D01*
X90551Y25591D01*
X105512Y70866D02*
X107480Y68898D01*
Y64764D02*
Y68898D01*
X104331Y64764D02*
X107480D01*
X110630D01*
X131890Y58858D02*
Y62205D01*
X133858Y64173D02*
Y67126D01*
X131890Y62205D02*
X133858Y64173D01*
X59055Y86417D02*
X67717D01*
X77559Y96260D01*
X58721Y86417D02*
X59055D01*
X55118Y82815D02*
X58721Y86417D01*
X84646Y63976D02*
Y67520D01*
Y70866D01*
X78740Y63976D02*
Y70866D01*
D44*
X8071Y53543D02*
Y59055D01*
Y70866D02*
Y72047D01*
X14764Y78740D01*
X8071Y66929D02*
Y70866D01*
X7874Y63189D02*
X8071Y62992D01*
Y59055D02*
Y62992D01*
D45*
X90494Y25591D02*
X90551D01*
X94291D01*
X100394Y31693D01*
X76575Y42815D02*
X79232D01*
X83661Y38386D01*
X93701D01*
X100394Y31693D01*
D46*
X62992Y11811D02*
X74803Y23622D01*
X80512D02*
X88583Y31693D01*
X74803Y23622D02*
X80512D01*
X120571Y47244D02*
X128150D01*
X131890Y43504D01*
D47*
X100394Y47047D02*
X111516D01*
X88583D02*
X94488D01*
X100394D01*
D48*
X3346Y36024D02*
Y41339D01*
X8465Y36024D02*
Y41339D01*
X3346Y53150D02*
Y59646D01*
D49*
X131142Y99016D02*
D03*
Y89016D02*
D03*
X49213Y84646D02*
D03*
Y74646D02*
D03*
Y64646D02*
D03*
X39370Y133858D02*
D03*
Y143858D02*
D03*
Y153858D02*
D03*
D50*
X62992Y11811D02*
D03*
X43307D02*
D03*
D51*
X16122Y86988D02*
D03*
Y101988D02*
D03*
X31122D02*
D03*
Y86988D02*
D03*
Y94488D02*
D03*
X23622Y101988D02*
D03*
X16122Y94488D02*
D03*
X23622Y86988D02*
D03*
Y94488D02*
D03*
D52*
X80315Y9205D02*
D03*
X108661D02*
D03*
D53*
X84941Y19716D02*
D03*
X104035D02*
D03*
D54*
X15748Y15748D02*
D03*
X125984D02*
D03*
X15748Y149606D02*
D03*
D55*
X109252Y102362D02*
D03*
X123031Y96457D02*
D03*
X103347Y91535D02*
D03*
X99410Y92520D02*
D03*
X106118Y97622D02*
D03*
X114173Y101378D02*
D03*
X107283Y84645D02*
D03*
X99410Y80709D02*
D03*
X118898Y84842D02*
D03*
X102362Y77756D02*
D03*
X99410Y11811D02*
D03*
X51181Y21654D02*
D03*
X4921Y89567D02*
D03*
Y128937D02*
D03*
X80709Y150591D02*
D03*
X64961Y141732D02*
D03*
X22638Y127953D02*
D03*
X73819Y112205D02*
D03*
X101378Y105315D02*
D03*
X123031Y108268D02*
D03*
X111221Y74803D02*
D03*
X127953Y75787D02*
D03*
X125984Y60039D02*
D03*
X101378Y52165D02*
D03*
X95472Y74803D02*
D03*
X101378Y70866D02*
D03*
X74803Y53150D02*
D03*
X6890Y75787D02*
D03*
X3937Y72835D02*
D03*
Y68898D02*
D03*
Y57087D02*
D03*
Y61024D02*
D03*
Y64961D02*
D03*
X15748Y72835D02*
D03*
Y68898D02*
D03*
X11811Y66929D02*
D03*
X15748Y61024D02*
D03*
X11811Y62992D02*
D03*
X16732Y57087D02*
D03*
X20669D02*
D03*
X24606D02*
D03*
X27559Y53150D02*
D03*
Y49213D02*
D03*
Y45276D02*
D03*
Y41339D02*
D03*
X4921Y37402D02*
D03*
X8858D02*
D03*
X12795D02*
D03*
X16732D02*
D03*
X20669D02*
D03*
X24606D02*
D03*
X60039Y39370D02*
D03*
X72835Y27559D02*
D03*
X35433Y63976D02*
D03*
X81693Y70866D02*
D03*
X133858Y64173D02*
D03*
X67717Y86417D02*
D03*
X16732Y124016D02*
D03*
X6890Y112205D02*
D03*
X47244Y29528D02*
D03*
X68898Y57087D02*
D03*
X86614Y100394D02*
D03*
X49213Y90551D02*
D03*
X40354Y95472D02*
D03*
X42323Y104331D02*
D03*
X45276Y99410D02*
D03*
X48228Y97441D02*
D03*
X41339Y99409D02*
D03*
X53150Y92520D02*
D03*
X51181Y95472D02*
D03*
X41339Y71850D02*
D03*
X89567Y82677D02*
D03*
X7283Y108268D02*
D03*
X14764Y116142D02*
D03*
X59055Y146260D02*
D03*
Y137598D02*
D03*
Y128937D02*
D03*
Y124606D02*
D03*
X18701Y112205D02*
D03*
X6098Y104072D02*
D03*
X5906Y99772D02*
D03*
Y95472D02*
D03*
X2953Y92520D02*
D03*
Y101378D02*
D03*
Y97441D02*
D03*
X32480Y72835D02*
D03*
X62008D02*
D03*
X31693Y68898D02*
D03*
X60039Y44291D02*
D03*
X62008Y60630D02*
D03*
X8268Y81102D02*
D03*
X52559Y141732D02*
D03*
X84646Y70866D02*
D03*
X78740D02*
D03*
Y63976D02*
D03*
X81693D02*
D03*
X84646D02*
D03*
X83661Y84646D02*
D03*
X18701Y76772D02*
D03*
X22638D02*
D03*
M02*
