G04*
G04 #@! TF.GenerationSoftware,Altium Limited,CircuitStudio,1.5.2 (30)*
G04*
G04 Layer_Color=2238352*
%FSLAX25Y25*%
%MOIN*%
G70*
G01*
G75*
%ADD51C,0.02400*%
%ADD61R,0.04343X0.07099*%
%ADD62R,0.02769X0.01784*%
%ADD63R,0.03950X0.01981*%
%ADD64R,0.01981X0.03950*%
%ADD65R,0.05643X0.05643*%
%ADD66R,0.02965X0.02572*%
%ADD67R,0.02178X0.04147*%
%ADD68R,0.06706X0.06706*%
%ADD69R,0.03556X0.04343*%
%ADD70R,0.02572X0.02965*%
%ADD71R,0.05524X0.03359*%
%ADD72R,0.04343X0.03556*%
%ADD73R,0.03162X0.04737*%
%ADD74R,0.22060X0.22060*%
%ADD75O,0.04343X0.01784*%
%ADD76O,0.01784X0.04343*%
%ADD77R,0.03162X0.04540*%
%ADD78R,0.07414X0.06784*%
%ADD79R,0.04737X0.02965*%
%ADD80R,0.05721X0.12611*%
%ADD81R,0.02375X0.08674*%
%ADD82R,0.03162X0.04737*%
%ADD83R,0.11430X0.03950*%
%ADD84R,0.02769X0.01981*%
%ADD85R,0.05524X0.05524*%
%ADD86R,0.06312X0.11430*%
%ADD87R,0.08674X0.03556*%
%ADD88R,0.11036X0.07493*%
%ADD89R,0.11036X0.04737*%
%ADD90C,0.08832*%
%ADD91C,0.12611*%
%ADD92C,0.03200*%
%ADD93O,0.05918X0.09461*%
%ADD94C,0.05918*%
%ADD95C,0.04737*%
D51*
X16122Y101988D02*
D03*
D61*
X95472Y62992D02*
D03*
D62*
X91732Y65945D02*
D03*
Y63976D02*
D03*
Y62008D02*
D03*
Y60039D02*
D03*
X99213Y65945D02*
D03*
Y63976D02*
D03*
Y62008D02*
D03*
Y60039D02*
D03*
D63*
X107579Y94488D02*
D03*
Y92520D02*
D03*
Y90551D02*
D03*
Y88583D02*
D03*
X118799D02*
D03*
Y90551D02*
D03*
Y92520D02*
D03*
Y94488D02*
D03*
D64*
X110236Y85925D02*
D03*
X112205D02*
D03*
X114173D02*
D03*
X116142D02*
D03*
Y97146D02*
D03*
X114173D02*
D03*
X112205D02*
D03*
X110236D02*
D03*
D65*
X113189Y91535D02*
D03*
D66*
X59055Y59252D02*
D03*
Y62795D02*
D03*
Y70669D02*
D03*
Y67126D02*
D03*
X59055Y86417D02*
D03*
Y82874D02*
D03*
X29528Y71063D02*
D03*
Y74606D02*
D03*
X3937Y106496D02*
D03*
Y110039D02*
D03*
X7874Y66732D02*
D03*
Y63189D02*
D03*
X57087Y25787D02*
D03*
Y29331D02*
D03*
Y41535D02*
D03*
Y45079D02*
D03*
Y49409D02*
D03*
Y52953D02*
D03*
Y33661D02*
D03*
Y37205D02*
D03*
X104331Y56890D02*
D03*
Y53347D02*
D03*
Y64764D02*
D03*
Y61221D02*
D03*
X133858Y67126D02*
D03*
Y70669D02*
D03*
X62992Y41535D02*
D03*
Y45079D02*
D03*
Y33661D02*
D03*
Y37205D02*
D03*
X59055Y90748D02*
D03*
Y94291D02*
D03*
X86614Y84449D02*
D03*
Y80905D02*
D03*
X102362Y84842D02*
D03*
Y88386D02*
D03*
X86614Y88779D02*
D03*
Y92323D02*
D03*
X59055Y75000D02*
D03*
Y78543D02*
D03*
D67*
X69488Y69291D02*
D03*
X66929D02*
D03*
X64370D02*
D03*
X69488Y60630D02*
D03*
X66929D02*
D03*
X64370D02*
D03*
D68*
X77559Y96260D02*
D03*
X68110D02*
D03*
Y76968D02*
D03*
X77559D02*
D03*
D69*
X124213Y80709D02*
D03*
X129724D02*
D03*
X105512Y70866D02*
D03*
X111024D02*
D03*
X92913Y55118D02*
D03*
X98425D02*
D03*
X92913Y70866D02*
D03*
X98425D02*
D03*
D70*
X118898Y80709D02*
D03*
X115354D02*
D03*
X111024D02*
D03*
X107480D02*
D03*
X56102Y115945D02*
D03*
X52559D02*
D03*
X56102Y124606D02*
D03*
X52559D02*
D03*
X56102Y120276D02*
D03*
X52559D02*
D03*
X56102Y150591D02*
D03*
X52559D02*
D03*
X56102Y146260D02*
D03*
X52559D02*
D03*
X56102Y133268D02*
D03*
X52559D02*
D03*
X56102Y128937D02*
D03*
X52559D02*
D03*
X56102Y137598D02*
D03*
X52559D02*
D03*
X8071Y59055D02*
D03*
X11614D02*
D03*
X8071Y70866D02*
D03*
X11614D02*
D03*
X116339Y70866D02*
D03*
X119882D02*
D03*
X116339Y74803D02*
D03*
X119882D02*
D03*
X78543Y49213D02*
D03*
X75000D02*
D03*
X70669D02*
D03*
X67126D02*
D03*
X92716Y92520D02*
D03*
X96260D02*
D03*
X96260Y80709D02*
D03*
X92717D02*
D03*
D71*
X45866Y124311D02*
D03*
X28937D02*
D03*
Y115847D02*
D03*
X45866D02*
D03*
X22244Y124311D02*
D03*
X5315D02*
D03*
Y115847D02*
D03*
X22244D02*
D03*
D72*
X3937Y79921D02*
D03*
Y85433D02*
D03*
X127953Y66142D02*
D03*
Y71653D02*
D03*
D73*
X3346Y53150D02*
D03*
Y41339D02*
D03*
X8465D02*
D03*
Y53150D02*
D03*
D74*
X23622Y94488D02*
D03*
D75*
X10236Y83661D02*
D03*
Y85630D02*
D03*
Y87598D02*
D03*
Y89567D02*
D03*
Y91535D02*
D03*
Y93504D02*
D03*
Y95473D02*
D03*
Y97441D02*
D03*
Y99410D02*
D03*
Y101378D02*
D03*
Y103347D02*
D03*
Y105315D02*
D03*
X37008D02*
D03*
Y103347D02*
D03*
Y101378D02*
D03*
Y99410D02*
D03*
Y97441D02*
D03*
Y95473D02*
D03*
Y93504D02*
D03*
Y91535D02*
D03*
Y89567D02*
D03*
Y87598D02*
D03*
Y85630D02*
D03*
Y83661D02*
D03*
D76*
X12795Y107874D02*
D03*
X14764D02*
D03*
X16732D02*
D03*
X18701D02*
D03*
X20669D02*
D03*
X22638D02*
D03*
X24606D02*
D03*
X26575D02*
D03*
X28543D02*
D03*
X30512D02*
D03*
X32480D02*
D03*
X34449D02*
D03*
Y81102D02*
D03*
X32480D02*
D03*
X30512D02*
D03*
X28543D02*
D03*
X26575D02*
D03*
X24606D02*
D03*
X22638D02*
D03*
X20669D02*
D03*
X18701D02*
D03*
X16732D02*
D03*
X14764D02*
D03*
X12795D02*
D03*
D77*
X47244Y54626D02*
D03*
X50984Y43799D02*
D03*
X43504D02*
D03*
X47246Y36907D02*
D03*
X50986Y26080D02*
D03*
X43506D02*
D03*
D78*
X88583Y31693D02*
D03*
Y47047D02*
D03*
X131890Y43504D02*
D03*
Y58858D02*
D03*
X100394Y31693D02*
D03*
Y47047D02*
D03*
D79*
X121654Y57284D02*
D03*
Y61024D02*
D03*
Y64764D02*
D03*
X110630Y57284D02*
D03*
Y61024D02*
D03*
Y64764D02*
D03*
D80*
X111713Y47244D02*
D03*
X120571D02*
D03*
D81*
X99606Y19685D02*
D03*
X97047D02*
D03*
X94488D02*
D03*
X91929D02*
D03*
X89370D02*
D03*
D82*
X69095Y31988D02*
D03*
X72835D02*
D03*
X76575D02*
D03*
Y42815D02*
D03*
X69095D02*
D03*
D83*
X81890Y67520D02*
D03*
Y58465D02*
D03*
D84*
X91536Y84646D02*
D03*
Y88583D02*
D03*
X97441D02*
D03*
Y86614D02*
D03*
Y84646D02*
D03*
D85*
X122835Y113583D02*
D03*
D86*
Y144882D02*
D03*
Y125591D02*
D03*
D87*
X72835Y120079D02*
D03*
Y124409D02*
D03*
Y128740D02*
D03*
Y133071D02*
D03*
Y137402D02*
D03*
Y141732D02*
D03*
Y146063D02*
D03*
Y150394D02*
D03*
D88*
X74803Y106102D02*
D03*
D89*
Y158661D02*
D03*
D90*
X131142Y99016D02*
D03*
Y89016D02*
D03*
X49213Y84646D02*
D03*
Y74646D02*
D03*
Y64646D02*
D03*
X39370Y133858D02*
D03*
Y143858D02*
D03*
Y153858D02*
D03*
D91*
X62992Y11811D02*
D03*
X43307D02*
D03*
D92*
X16122Y86988D02*
D03*
X31122Y101988D02*
D03*
Y86988D02*
D03*
Y94488D02*
D03*
X23622Y101988D02*
D03*
X16122Y94488D02*
D03*
X23622Y86988D02*
D03*
Y94488D02*
D03*
D93*
X80315Y9205D02*
D03*
X108661D02*
D03*
D94*
X84941Y19716D02*
D03*
X104035D02*
D03*
D95*
X15748Y15748D02*
D03*
X125984D02*
D03*
X15748Y149606D02*
D03*
M02*
