G04*
G04 #@! TF.GenerationSoftware,Altium Limited,CircuitStudio,1.5.2 (30)*
G04*
G04 Layer_Color=16720538*
%FSLAX25Y25*%
%MOIN*%
G70*
G01*
G75*
%ADD96C,0.00394*%
D96*
X0Y15748D02*
X31Y14759D01*
X124Y13774D01*
X279Y12797D01*
X495Y11832D01*
X771Y10882D01*
X1106Y9951D01*
X1499Y9043D01*
X1948Y8161D01*
X2451Y7310D01*
X3008Y6492D01*
X3614Y5710D01*
X4268Y4968D01*
X4968Y4268D01*
X5710Y3614D01*
X6492Y3008D01*
X7310Y2451D01*
X8161Y1948D01*
X9043Y1499D01*
X9951Y1106D01*
X10882Y771D01*
X11832Y495D01*
X12797Y279D01*
X13774Y124D01*
X14759Y31D01*
X15748Y0D01*
X125984D02*
X126973Y31D01*
X127958Y124D01*
X128935Y279D01*
X129901Y495D01*
X130851Y771D01*
X131781Y1106D01*
X132689Y1499D01*
X133571Y1948D01*
X134423Y2451D01*
X135241Y3008D01*
X136022Y3614D01*
X136765Y4268D01*
X137464Y4968D01*
X138118Y5710D01*
X138725Y6492D01*
X139281Y7310D01*
X139784Y8161D01*
X140234Y9043D01*
X140626Y9951D01*
X140962Y10882D01*
X141237Y11832D01*
X141453Y12797D01*
X141608Y13774D01*
X141701Y14759D01*
X141732Y15748D01*
Y149606D02*
X141701Y150595D01*
X141608Y151580D01*
X141453Y152557D01*
X141237Y153523D01*
X140962Y154473D01*
X140626Y155403D01*
X140234Y156312D01*
X139784Y157193D01*
X139281Y158045D01*
X138725Y158863D01*
X138118Y159644D01*
X137464Y160387D01*
X136765Y161086D01*
X136022Y161740D01*
X135241Y162347D01*
X134423Y162903D01*
X133571Y163406D01*
X132689Y163856D01*
X131781Y164249D01*
X130851Y164584D01*
X129901Y164860D01*
X128935Y165075D01*
X127958Y165230D01*
X126973Y165323D01*
X125984Y165354D01*
X15748D02*
X14759Y165323D01*
X13774Y165230D01*
X12797Y165075D01*
X11832Y164860D01*
X10882Y164584D01*
X9951Y164249D01*
X9043Y163856D01*
X8161Y163406D01*
X7310Y162903D01*
X6492Y162347D01*
X5710Y161740D01*
X4968Y161086D01*
X4268Y160387D01*
X3614Y159644D01*
X3008Y158863D01*
X2451Y158045D01*
X1948Y157193D01*
X1499Y156312D01*
X1106Y155403D01*
X771Y154473D01*
X495Y153523D01*
X279Y152557D01*
X124Y151580D01*
X31Y150595D01*
X0Y149606D01*
X15748Y0D02*
X125984D01*
X141732Y15748D02*
Y149606D01*
X15748Y165354D02*
X125984D01*
X0Y15748D02*
Y149606D01*
M02*
