G04*
G04 #@! TF.GenerationSoftware,Altium Limited,CircuitStudio,1.5.2 (30)*
G04*
G04 Layer_Color=13684944*
%FSLAX25Y25*%
%MOIN*%
G70*
G01*
G75*
%ADD96C,0.00394*%
%ADD97C,0.01969*%
G36*
X51945Y149606D02*
X50890D01*
Y151810D01*
X50232Y149606D01*
X49126D01*
Y154460D01*
X50180D01*
Y152271D01*
X50890Y154460D01*
X51945D01*
Y149606D01*
D02*
G37*
G36*
X42323Y61024D02*
X41217D01*
Y64223D01*
X40749Y61024D01*
X39973D01*
X39541Y64296D01*
X39534Y61024D01*
X38429D01*
Y65877D01*
X40076D01*
X40368Y63608D01*
X40544Y64845D01*
X40573Y65057D01*
X40603Y65255D01*
X40625Y65430D01*
X40654Y65584D01*
X40661Y65650D01*
X40668Y65708D01*
X40676Y65760D01*
X40683Y65796D01*
X40690Y65833D01*
X40698Y65855D01*
Y65869D01*
Y65877D01*
X42323D01*
Y61024D01*
D02*
G37*
G36*
X69685Y19901D02*
X66223D01*
Y20208D01*
X69685D01*
Y19901D01*
D02*
G37*
G36*
X30838Y61024D02*
X28927D01*
X28276Y65877D01*
X29608D01*
X29696Y64969D01*
X29718Y64764D01*
X29740Y64552D01*
X29776Y64120D01*
X29791Y63908D01*
X29813Y63703D01*
X29828Y63505D01*
X29842Y63315D01*
X29857Y63139D01*
X29871Y62978D01*
X29879Y62832D01*
X29893Y62714D01*
X29901Y62612D01*
Y62539D01*
X29908Y62510D01*
Y62488D01*
Y62480D01*
Y62473D01*
X29930Y62744D01*
X29952Y63022D01*
X30003Y63593D01*
X30033Y63886D01*
X30062Y64164D01*
X30091Y64435D01*
X30113Y64698D01*
X30142Y64947D01*
X30164Y65167D01*
X30186Y65372D01*
X30194Y65460D01*
X30201Y65540D01*
X30208Y65613D01*
X30216Y65679D01*
X30223Y65738D01*
X30230Y65789D01*
Y65825D01*
X30237Y65855D01*
Y65869D01*
Y65877D01*
X31570D01*
X30838Y61024D01*
D02*
G37*
G36*
X60919Y154547D02*
X61102Y154518D01*
X61263Y154481D01*
X61395Y154430D01*
X61497Y154379D01*
X61541Y154357D01*
X61578Y154342D01*
X61607Y154320D01*
X61629Y154313D01*
X61636Y154298D01*
X61643D01*
X61761Y154196D01*
X61856Y154101D01*
X61929Y153998D01*
X61988Y153911D01*
X62024Y153837D01*
X62053Y153771D01*
X62061Y153735D01*
X62068Y153727D01*
Y153720D01*
X62083Y153654D01*
X62090Y153588D01*
X62112Y153427D01*
X62127Y153259D01*
X62134Y153098D01*
Y152944D01*
X62141Y152878D01*
Y152827D01*
Y152776D01*
Y152739D01*
Y152717D01*
Y152710D01*
Y151268D01*
Y151092D01*
X62134Y150938D01*
Y150807D01*
X62127Y150704D01*
X62119Y150617D01*
Y150558D01*
X62112Y150529D01*
Y150514D01*
X62090Y150419D01*
X62068Y150338D01*
X62039Y150258D01*
X62010Y150185D01*
X61980Y150126D01*
X61951Y150075D01*
X61936Y150046D01*
X61929Y150038D01*
X61870Y149958D01*
X61797Y149884D01*
X61731Y149819D01*
X61658Y149760D01*
X61600Y149716D01*
X61548Y149687D01*
X61519Y149665D01*
X61504Y149657D01*
X61402Y149606D01*
X61292Y149570D01*
X61197Y149540D01*
X61102Y149526D01*
X61029Y149511D01*
X60963Y149504D01*
X60912D01*
X60816Y149511D01*
X60729Y149519D01*
X60648Y149540D01*
X60582Y149562D01*
X60524Y149577D01*
X60487Y149599D01*
X60458Y149606D01*
X60450Y149614D01*
X60377Y149657D01*
X60319Y149716D01*
X60260Y149767D01*
X60209Y149826D01*
X60172Y149870D01*
X60143Y149914D01*
X60128Y149943D01*
X60121Y149950D01*
X60004Y149606D01*
X59206D01*
Y152212D01*
X60685D01*
Y151473D01*
X60428D01*
Y150895D01*
Y150777D01*
X60436Y150675D01*
X60443Y150594D01*
X60450Y150536D01*
X60465Y150492D01*
X60472Y150455D01*
X60480Y150441D01*
Y150434D01*
X60502Y150397D01*
X60531Y150368D01*
X60560Y150353D01*
X60597Y150338D01*
X60626Y150331D01*
X60648Y150324D01*
X60670D01*
X60714Y150331D01*
X60751Y150338D01*
X60809Y150375D01*
X60838Y150411D01*
X60846Y150419D01*
Y150426D01*
X60860Y150477D01*
X60868Y150536D01*
X60875Y150609D01*
Y150675D01*
X60882Y150741D01*
Y150800D01*
Y150836D01*
Y150851D01*
Y153186D01*
Y153310D01*
X60875Y153413D01*
X60868Y153493D01*
X60860Y153559D01*
Y153603D01*
X60853Y153625D01*
X60846Y153640D01*
Y153647D01*
X60824Y153676D01*
X60802Y153706D01*
X60743Y153727D01*
X60699Y153742D01*
X60677D01*
X60633Y153735D01*
X60597Y153727D01*
X60567Y153706D01*
X60545Y153691D01*
X60516Y153647D01*
X60509Y153640D01*
Y153632D01*
X60502Y153610D01*
X60494Y153581D01*
X60480Y153508D01*
X60472Y153420D01*
Y153332D01*
X60465Y153252D01*
Y153179D01*
Y153149D01*
Y153135D01*
Y153120D01*
Y153113D01*
Y152673D01*
X59206D01*
Y152878D01*
X59213Y153091D01*
X59221Y153274D01*
X59243Y153427D01*
X59264Y153559D01*
X59286Y153654D01*
X59301Y153727D01*
X59316Y153771D01*
X59323Y153786D01*
X59374Y153903D01*
X59440Y154006D01*
X59521Y154094D01*
X59601Y154174D01*
X59674Y154240D01*
X59740Y154291D01*
X59784Y154320D01*
X59792Y154328D01*
X59799D01*
X59945Y154408D01*
X60099Y154467D01*
X60253Y154503D01*
X60399Y154533D01*
X60524Y154547D01*
X60582Y154555D01*
X60626Y154562D01*
X60721D01*
X60919Y154547D01*
D02*
G37*
G36*
X54141D02*
X54324Y154518D01*
X54485Y154481D01*
X54616Y154430D01*
X54719Y154379D01*
X54763Y154357D01*
X54799Y154342D01*
X54829Y154320D01*
X54851Y154313D01*
X54858Y154298D01*
X54865D01*
X54982Y154196D01*
X55077Y154101D01*
X55151Y153998D01*
X55209Y153911D01*
X55246Y153837D01*
X55275Y153771D01*
X55282Y153735D01*
X55290Y153727D01*
Y153720D01*
X55304Y153654D01*
X55312Y153588D01*
X55334Y153427D01*
X55348Y153259D01*
X55356Y153098D01*
Y152944D01*
X55363Y152878D01*
Y152827D01*
Y152776D01*
Y152739D01*
Y152717D01*
Y152710D01*
Y151268D01*
Y151092D01*
X55356Y150938D01*
Y150807D01*
X55348Y150704D01*
X55341Y150617D01*
Y150558D01*
X55334Y150529D01*
Y150514D01*
X55312Y150419D01*
X55290Y150338D01*
X55260Y150258D01*
X55231Y150185D01*
X55202Y150126D01*
X55173Y150075D01*
X55158Y150046D01*
X55151Y150038D01*
X55092Y149958D01*
X55019Y149884D01*
X54953Y149819D01*
X54880Y149760D01*
X54821Y149716D01*
X54770Y149687D01*
X54741Y149665D01*
X54726Y149657D01*
X54624Y149606D01*
X54514Y149570D01*
X54419Y149540D01*
X54324Y149526D01*
X54250Y149511D01*
X54184Y149504D01*
X54133D01*
X54038Y149511D01*
X53950Y149519D01*
X53870Y149540D01*
X53804Y149562D01*
X53745Y149577D01*
X53709Y149599D01*
X53679Y149606D01*
X53672Y149614D01*
X53599Y149657D01*
X53540Y149716D01*
X53482Y149767D01*
X53430Y149826D01*
X53394Y149870D01*
X53365Y149914D01*
X53350Y149943D01*
X53343Y149950D01*
X53225Y149606D01*
X52428D01*
Y152212D01*
X53906D01*
Y151473D01*
X53650D01*
Y150895D01*
Y150777D01*
X53657Y150675D01*
X53665Y150594D01*
X53672Y150536D01*
X53687Y150492D01*
X53694Y150455D01*
X53701Y150441D01*
Y150434D01*
X53723Y150397D01*
X53753Y150368D01*
X53782Y150353D01*
X53818Y150338D01*
X53848Y150331D01*
X53870Y150324D01*
X53892D01*
X53936Y150331D01*
X53972Y150338D01*
X54031Y150375D01*
X54060Y150411D01*
X54067Y150419D01*
Y150426D01*
X54082Y150477D01*
X54089Y150536D01*
X54097Y150609D01*
Y150675D01*
X54104Y150741D01*
Y150800D01*
Y150836D01*
Y150851D01*
Y153186D01*
Y153310D01*
X54097Y153413D01*
X54089Y153493D01*
X54082Y153559D01*
Y153603D01*
X54075Y153625D01*
X54067Y153640D01*
Y153647D01*
X54045Y153676D01*
X54023Y153706D01*
X53965Y153727D01*
X53921Y153742D01*
X53899D01*
X53855Y153735D01*
X53818Y153727D01*
X53789Y153706D01*
X53767Y153691D01*
X53738Y153647D01*
X53731Y153640D01*
Y153632D01*
X53723Y153610D01*
X53716Y153581D01*
X53701Y153508D01*
X53694Y153420D01*
Y153332D01*
X53687Y153252D01*
Y153179D01*
Y153149D01*
Y153135D01*
Y153120D01*
Y153113D01*
Y152673D01*
X52428D01*
Y152878D01*
X52435Y153091D01*
X52442Y153274D01*
X52464Y153427D01*
X52486Y153559D01*
X52508Y153654D01*
X52523Y153727D01*
X52537Y153771D01*
X52545Y153786D01*
X52596Y153903D01*
X52662Y154006D01*
X52742Y154094D01*
X52823Y154174D01*
X52896Y154240D01*
X52962Y154291D01*
X53006Y154320D01*
X53013Y154328D01*
X53021D01*
X53167Y154408D01*
X53321Y154467D01*
X53474Y154503D01*
X53621Y154533D01*
X53745Y154547D01*
X53804Y154555D01*
X53848Y154562D01*
X53943D01*
X54141Y154547D01*
D02*
G37*
G36*
X27046Y65965D02*
X27156Y65950D01*
X27258Y65935D01*
X27346Y65913D01*
X27427Y65891D01*
X27507Y65869D01*
X27573Y65847D01*
X27632Y65825D01*
X27676Y65804D01*
X27719Y65782D01*
X27756Y65760D01*
X27778Y65745D01*
X27800Y65730D01*
X27807Y65723D01*
X27815D01*
X27873Y65672D01*
X27917Y65613D01*
X27998Y65474D01*
X28049Y65320D01*
X28093Y65167D01*
X28115Y65020D01*
X28122Y64955D01*
Y64896D01*
X28129Y64852D01*
Y64815D01*
Y64793D01*
Y64786D01*
Y64376D01*
X26914D01*
Y64771D01*
Y64867D01*
X26907Y64947D01*
X26900Y65013D01*
X26892Y65057D01*
X26885Y65093D01*
X26878Y65123D01*
X26870Y65130D01*
Y65137D01*
X26848Y65167D01*
X26826Y65189D01*
X26768Y65218D01*
X26724Y65225D01*
X26665D01*
X26629Y65211D01*
X26577Y65181D01*
X26548Y65152D01*
X26541Y65145D01*
Y65137D01*
X26519Y65101D01*
X26504Y65050D01*
X26490Y64940D01*
X26482Y64889D01*
Y64845D01*
Y64815D01*
Y64801D01*
Y64530D01*
Y64449D01*
X26490Y64376D01*
X26497Y64318D01*
X26504Y64274D01*
X26519Y64230D01*
X26526Y64208D01*
X26534Y64193D01*
Y64186D01*
X26577Y64120D01*
X26621Y64069D01*
X26665Y64047D01*
X26673Y64039D01*
X26680D01*
X26702Y64032D01*
X26731D01*
X26804Y64025D01*
X26892Y64017D01*
X26980D01*
X27068Y64010D01*
X27207D01*
Y63307D01*
X27090Y63300D01*
X26987D01*
X26907Y63285D01*
X26848Y63278D01*
X26804Y63271D01*
X26768Y63263D01*
X26753Y63256D01*
X26746D01*
X26702Y63242D01*
X26665Y63212D01*
X26607Y63161D01*
X26570Y63110D01*
X26555Y63095D01*
Y63088D01*
X26534Y63029D01*
X26519Y62971D01*
X26497Y62832D01*
X26490Y62773D01*
Y62722D01*
Y62693D01*
Y62678D01*
Y62341D01*
Y62261D01*
Y62187D01*
X26497Y62122D01*
Y62063D01*
X26504Y61961D01*
X26512Y61887D01*
X26519Y61836D01*
X26526Y61800D01*
X26534Y61785D01*
Y61778D01*
X26555Y61741D01*
X26577Y61719D01*
X26643Y61690D01*
X26673Y61682D01*
X26695Y61675D01*
X26717D01*
X26761Y61682D01*
X26797Y61690D01*
X26841Y61719D01*
X26870Y61741D01*
X26878Y61756D01*
X26892Y61800D01*
X26900Y61858D01*
X26907Y61924D01*
Y61990D01*
X26914Y62056D01*
Y62107D01*
Y62144D01*
Y62158D01*
Y62949D01*
X28129D01*
Y62561D01*
Y62436D01*
X28122Y62319D01*
Y62217D01*
X28115Y62122D01*
X28107Y62034D01*
X28100Y61953D01*
X28085Y61880D01*
X28078Y61814D01*
X28071Y61763D01*
X28056Y61712D01*
X28049Y61675D01*
X28041Y61646D01*
X28034Y61616D01*
Y61602D01*
X28027Y61587D01*
X27976Y61485D01*
X27917Y61397D01*
X27844Y61316D01*
X27778Y61251D01*
X27712Y61192D01*
X27654Y61155D01*
X27617Y61126D01*
X27602Y61119D01*
X27470Y61053D01*
X27324Y61009D01*
X27170Y60972D01*
X27024Y60950D01*
X26892Y60936D01*
X26841D01*
X26790Y60928D01*
X26695D01*
X26512Y60936D01*
X26351Y60950D01*
X26212Y60980D01*
X26094Y61009D01*
X25999Y61038D01*
X25926Y61067D01*
X25882Y61082D01*
X25868Y61089D01*
X25758Y61155D01*
X25662Y61236D01*
X25582Y61316D01*
X25516Y61397D01*
X25472Y61463D01*
X25436Y61521D01*
X25421Y61558D01*
X25414Y61573D01*
X25370Y61704D01*
X25333Y61851D01*
X25311Y61997D01*
X25289Y62144D01*
X25282Y62275D01*
Y62327D01*
X25275Y62378D01*
Y62414D01*
Y62451D01*
Y62466D01*
Y62473D01*
Y62612D01*
X25282Y62744D01*
X25289Y62854D01*
X25297Y62956D01*
X25304Y63051D01*
X25319Y63132D01*
X25333Y63198D01*
X25340Y63263D01*
X25355Y63315D01*
X25370Y63359D01*
X25384Y63388D01*
X25392Y63417D01*
X25406Y63454D01*
X25414Y63461D01*
X25472Y63534D01*
X25531Y63600D01*
X25604Y63652D01*
X25670Y63695D01*
X25728Y63725D01*
X25780Y63754D01*
X25809Y63761D01*
X25824Y63769D01*
X25728Y63827D01*
X25648Y63886D01*
X25575Y63937D01*
X25523Y63988D01*
X25487Y64032D01*
X25458Y64069D01*
X25443Y64091D01*
X25436Y64098D01*
X25399Y64179D01*
X25370Y64266D01*
X25348Y64369D01*
X25333Y64464D01*
X25326Y64552D01*
X25319Y64625D01*
Y64654D01*
Y64676D01*
Y64684D01*
Y64691D01*
Y64801D01*
X25333Y64903D01*
X25370Y65093D01*
X25421Y65255D01*
X25472Y65386D01*
X25531Y65489D01*
X25560Y65533D01*
X25582Y65569D01*
X25604Y65591D01*
X25619Y65613D01*
X25626Y65621D01*
X25633Y65628D01*
X25699Y65687D01*
X25772Y65745D01*
X25853Y65789D01*
X25948Y65825D01*
X26138Y65891D01*
X26336Y65928D01*
X26424Y65943D01*
X26512Y65957D01*
X26592Y65965D01*
X26665D01*
X26724Y65972D01*
X26929D01*
X27046Y65965D01*
D02*
G37*
G36*
X33517D02*
X33627Y65950D01*
X33729Y65935D01*
X33817Y65913D01*
X33898Y65891D01*
X33978Y65869D01*
X34044Y65847D01*
X34102Y65825D01*
X34146Y65804D01*
X34190Y65782D01*
X34227Y65760D01*
X34249Y65745D01*
X34271Y65730D01*
X34278Y65723D01*
X34286D01*
X34344Y65672D01*
X34388Y65613D01*
X34468Y65474D01*
X34520Y65320D01*
X34564Y65167D01*
X34586Y65020D01*
X34593Y64955D01*
Y64896D01*
X34600Y64852D01*
Y64815D01*
Y64793D01*
Y64786D01*
Y64376D01*
X33385D01*
Y64771D01*
Y64867D01*
X33378Y64947D01*
X33371Y65013D01*
X33363Y65057D01*
X33356Y65093D01*
X33349Y65123D01*
X33341Y65130D01*
Y65137D01*
X33319Y65167D01*
X33297Y65189D01*
X33239Y65218D01*
X33195Y65225D01*
X33136D01*
X33100Y65211D01*
X33048Y65181D01*
X33019Y65152D01*
X33012Y65145D01*
Y65137D01*
X32990Y65101D01*
X32975Y65050D01*
X32961Y64940D01*
X32953Y64889D01*
Y64845D01*
Y64815D01*
Y64801D01*
Y64530D01*
Y64449D01*
X32961Y64376D01*
X32968Y64318D01*
X32975Y64274D01*
X32990Y64230D01*
X32997Y64208D01*
X33005Y64193D01*
Y64186D01*
X33048Y64120D01*
X33092Y64069D01*
X33136Y64047D01*
X33143Y64039D01*
X33151D01*
X33173Y64032D01*
X33202D01*
X33275Y64025D01*
X33363Y64017D01*
X33451D01*
X33539Y64010D01*
X33678D01*
Y63307D01*
X33561Y63300D01*
X33458D01*
X33378Y63285D01*
X33319Y63278D01*
X33275Y63271D01*
X33239Y63263D01*
X33224Y63256D01*
X33217D01*
X33173Y63242D01*
X33136Y63212D01*
X33078Y63161D01*
X33041Y63110D01*
X33026Y63095D01*
Y63088D01*
X33005Y63029D01*
X32990Y62971D01*
X32968Y62832D01*
X32961Y62773D01*
Y62722D01*
Y62693D01*
Y62678D01*
Y62341D01*
Y62261D01*
Y62187D01*
X32968Y62122D01*
Y62063D01*
X32975Y61961D01*
X32983Y61887D01*
X32990Y61836D01*
X32997Y61800D01*
X33005Y61785D01*
Y61778D01*
X33026Y61741D01*
X33048Y61719D01*
X33114Y61690D01*
X33143Y61682D01*
X33165Y61675D01*
X33187D01*
X33231Y61682D01*
X33268Y61690D01*
X33312Y61719D01*
X33341Y61741D01*
X33349Y61756D01*
X33363Y61800D01*
X33371Y61858D01*
X33378Y61924D01*
Y61990D01*
X33385Y62056D01*
Y62107D01*
Y62144D01*
Y62158D01*
Y62949D01*
X34600D01*
Y62561D01*
Y62436D01*
X34593Y62319D01*
Y62217D01*
X34586Y62122D01*
X34578Y62034D01*
X34571Y61953D01*
X34556Y61880D01*
X34549Y61814D01*
X34542Y61763D01*
X34527Y61712D01*
X34520Y61675D01*
X34512Y61646D01*
X34505Y61616D01*
Y61602D01*
X34498Y61587D01*
X34446Y61485D01*
X34388Y61397D01*
X34315Y61316D01*
X34249Y61251D01*
X34183Y61192D01*
X34124Y61155D01*
X34088Y61126D01*
X34073Y61119D01*
X33941Y61053D01*
X33795Y61009D01*
X33641Y60972D01*
X33495Y60950D01*
X33363Y60936D01*
X33312D01*
X33261Y60928D01*
X33165D01*
X32983Y60936D01*
X32822Y60950D01*
X32682Y60980D01*
X32565Y61009D01*
X32470Y61038D01*
X32397Y61067D01*
X32353Y61082D01*
X32338Y61089D01*
X32229Y61155D01*
X32133Y61236D01*
X32053Y61316D01*
X31987Y61397D01*
X31943Y61463D01*
X31907Y61521D01*
X31892Y61558D01*
X31885Y61573D01*
X31841Y61704D01*
X31804Y61851D01*
X31782Y61997D01*
X31760Y62144D01*
X31753Y62275D01*
Y62327D01*
X31745Y62378D01*
Y62414D01*
Y62451D01*
Y62466D01*
Y62473D01*
Y62612D01*
X31753Y62744D01*
X31760Y62854D01*
X31767Y62956D01*
X31775Y63051D01*
X31789Y63132D01*
X31804Y63198D01*
X31811Y63263D01*
X31826Y63315D01*
X31841Y63359D01*
X31855Y63388D01*
X31863Y63417D01*
X31877Y63454D01*
X31885Y63461D01*
X31943Y63534D01*
X32002Y63600D01*
X32075Y63652D01*
X32141Y63695D01*
X32199Y63725D01*
X32250Y63754D01*
X32280Y63761D01*
X32294Y63769D01*
X32199Y63827D01*
X32119Y63886D01*
X32046Y63937D01*
X31994Y63988D01*
X31958Y64032D01*
X31928Y64069D01*
X31914Y64091D01*
X31907Y64098D01*
X31870Y64179D01*
X31841Y64266D01*
X31819Y64369D01*
X31804Y64464D01*
X31797Y64552D01*
X31789Y64625D01*
Y64654D01*
Y64676D01*
Y64684D01*
Y64691D01*
Y64801D01*
X31804Y64903D01*
X31841Y65093D01*
X31892Y65255D01*
X31943Y65386D01*
X32002Y65489D01*
X32031Y65533D01*
X32053Y65569D01*
X32075Y65591D01*
X32089Y65613D01*
X32097Y65621D01*
X32104Y65628D01*
X32170Y65687D01*
X32243Y65745D01*
X32324Y65789D01*
X32419Y65825D01*
X32609Y65891D01*
X32807Y65928D01*
X32895Y65943D01*
X32983Y65957D01*
X33063Y65965D01*
X33136D01*
X33195Y65972D01*
X33400D01*
X33517Y65965D01*
D02*
G37*
G36*
X78740Y20669D02*
X77144D01*
X77020Y20677D01*
X76910D01*
X76808Y20684D01*
X76713Y20691D01*
X76632Y20699D01*
X76559Y20706D01*
X76493Y20713D01*
X76442Y20720D01*
X76390Y20728D01*
X76354D01*
X76325Y20735D01*
X76303Y20742D01*
X76288Y20750D01*
X76273D01*
X76186Y20786D01*
X76112Y20838D01*
X76054Y20889D01*
X76003Y20947D01*
X75966Y20991D01*
X75937Y21035D01*
X75922Y21065D01*
X75915Y21072D01*
X75878Y21174D01*
X75849Y21292D01*
X75827Y21409D01*
X75812Y21526D01*
X75805Y21635D01*
X75797Y21723D01*
Y21760D01*
Y21782D01*
Y21797D01*
Y21804D01*
Y22250D01*
X75805Y22419D01*
X75819Y22558D01*
X75849Y22682D01*
X75878Y22777D01*
X75907Y22858D01*
X75937Y22909D01*
X75951Y22946D01*
X75959Y22953D01*
X76024Y23034D01*
X76112Y23107D01*
X76215Y23158D01*
X76310Y23209D01*
X76405Y23239D01*
X76478Y23268D01*
X76508Y23275D01*
X76530D01*
X76544Y23282D01*
X76552D01*
X76412Y23319D01*
X76303Y23363D01*
X76207Y23400D01*
X76142Y23444D01*
X76090Y23480D01*
X76054Y23509D01*
X76032Y23531D01*
X76024Y23539D01*
X75981Y23612D01*
X75944Y23700D01*
X75922Y23802D01*
X75900Y23897D01*
X75893Y23985D01*
X75885Y24066D01*
Y24095D01*
Y24110D01*
Y24124D01*
Y24132D01*
Y24249D01*
X75893Y24351D01*
X75900Y24454D01*
X75915Y24542D01*
X75929Y24629D01*
X75944Y24703D01*
X75966Y24769D01*
X75981Y24827D01*
X75995Y24878D01*
X76017Y24922D01*
X76046Y24995D01*
X76068Y25032D01*
X76076Y25047D01*
X76149Y25142D01*
X76237Y25230D01*
X76317Y25295D01*
X76398Y25347D01*
X76464Y25383D01*
X76522Y25405D01*
X76559Y25420D01*
X76573Y25427D01*
X76698Y25457D01*
X76844Y25486D01*
X76998Y25501D01*
X77144Y25508D01*
X77276Y25515D01*
X77335Y25523D01*
X78740D01*
Y20669D01*
D02*
G37*
G36*
X75637D02*
X74334D01*
X74260Y21540D01*
X73807D01*
X73733Y20669D01*
X72445D01*
X73177Y25523D01*
X74992D01*
X75637Y20669D01*
D02*
G37*
G36*
X31145Y70866D02*
X30091D01*
Y73070D01*
X29432Y70866D01*
X28327D01*
Y75719D01*
X29381D01*
Y73531D01*
X30091Y75719D01*
X31145D01*
Y70866D01*
D02*
G37*
G36*
X38209Y60255D02*
X34747D01*
Y60562D01*
X38209D01*
Y60255D01*
D02*
G37*
G36*
X61648Y25618D02*
X61787Y25603D01*
X61911Y25581D01*
X62014Y25559D01*
X62102Y25530D01*
X62168Y25508D01*
X62212Y25493D01*
X62219Y25486D01*
X62226D01*
X62336Y25435D01*
X62431Y25369D01*
X62519Y25303D01*
X62585Y25244D01*
X62643Y25186D01*
X62680Y25142D01*
X62709Y25113D01*
X62717Y25098D01*
X62775Y25003D01*
X62827Y24908D01*
X62863Y24812D01*
X62885Y24725D01*
X62907Y24651D01*
X62922Y24593D01*
X62929Y24556D01*
Y24542D01*
X62936Y24483D01*
Y24410D01*
X62944Y24256D01*
X62951Y24080D01*
Y23912D01*
X62958Y23758D01*
Y23685D01*
Y23627D01*
Y23583D01*
Y23539D01*
Y23517D01*
Y23509D01*
Y22675D01*
Y22543D01*
Y22419D01*
Y22302D01*
X62951Y22199D01*
Y22104D01*
Y22016D01*
X62944Y21943D01*
Y21870D01*
Y21811D01*
X62936Y21760D01*
Y21723D01*
Y21687D01*
X62929Y21657D01*
Y21643D01*
Y21635D01*
Y21628D01*
X62907Y21518D01*
X62878Y21416D01*
X62841Y21321D01*
X62805Y21240D01*
X62761Y21167D01*
X62731Y21116D01*
X62709Y21087D01*
X62702Y21072D01*
X62629Y20984D01*
X62541Y20903D01*
X62461Y20838D01*
X62380Y20786D01*
X62314Y20742D01*
X62256Y20713D01*
X62219Y20699D01*
X62204Y20691D01*
X62087Y20647D01*
X61963Y20618D01*
X61846Y20596D01*
X61736Y20582D01*
X61641Y20574D01*
X61567Y20567D01*
X61502D01*
X61355Y20574D01*
X61223Y20589D01*
X61099Y20611D01*
X60997Y20633D01*
X60909Y20655D01*
X60843Y20677D01*
X60806Y20691D01*
X60791Y20699D01*
X60682Y20750D01*
X60579Y20816D01*
X60499Y20874D01*
X60426Y20940D01*
X60374Y20991D01*
X60330Y21035D01*
X60308Y21072D01*
X60301Y21079D01*
X60242Y21174D01*
X60191Y21277D01*
X60147Y21365D01*
X60125Y21452D01*
X60103Y21526D01*
X60089Y21584D01*
X60081Y21621D01*
Y21635D01*
X60074Y21701D01*
X60067Y21767D01*
X60059Y21928D01*
X60052Y22097D01*
Y22272D01*
X60045Y22426D01*
Y22499D01*
Y22558D01*
Y22609D01*
Y22646D01*
Y22668D01*
Y22675D01*
Y23509D01*
Y23641D01*
Y23766D01*
Y23883D01*
X60052Y23985D01*
Y24080D01*
X60059Y24168D01*
Y24249D01*
Y24315D01*
X60067Y24373D01*
Y24424D01*
X60074Y24461D01*
Y24498D01*
X60081Y24527D01*
Y24542D01*
Y24556D01*
X60103Y24666D01*
X60133Y24769D01*
X60169Y24864D01*
X60206Y24944D01*
X60242Y25017D01*
X60279Y25069D01*
X60301Y25098D01*
X60308Y25113D01*
X60382Y25200D01*
X60469Y25281D01*
X60550Y25347D01*
X60631Y25398D01*
X60696Y25442D01*
X60755Y25471D01*
X60791Y25486D01*
X60806Y25493D01*
X60923Y25537D01*
X61048Y25566D01*
X61158Y25596D01*
X61267Y25610D01*
X61362Y25618D01*
X61436Y25625D01*
X61502D01*
X61648Y25618D01*
D02*
G37*
G36*
X58471D02*
X58625Y25603D01*
X58757Y25581D01*
X58866Y25552D01*
X58961Y25523D01*
X59027Y25501D01*
X59071Y25486D01*
X59079Y25479D01*
X59086D01*
X59196Y25420D01*
X59291Y25354D01*
X59364Y25288D01*
X59430Y25222D01*
X59481Y25157D01*
X59510Y25113D01*
X59532Y25083D01*
X59540Y25069D01*
X59584Y24959D01*
X59620Y24834D01*
X59642Y24703D01*
X59664Y24564D01*
X59672Y24446D01*
Y24395D01*
X59679Y24344D01*
Y24307D01*
Y24278D01*
Y24263D01*
Y24256D01*
X59672Y24117D01*
X59664Y23993D01*
X59650Y23883D01*
X59628Y23795D01*
X59613Y23722D01*
X59598Y23663D01*
X59591Y23634D01*
X59584Y23619D01*
X59540Y23531D01*
X59503Y23451D01*
X59459Y23385D01*
X59415Y23334D01*
X59379Y23290D01*
X59350Y23261D01*
X59335Y23239D01*
X59328Y23231D01*
X59298Y23202D01*
X59254Y23173D01*
X59167Y23099D01*
X59064Y23026D01*
X58961Y22953D01*
X58859Y22887D01*
X58779Y22829D01*
X58749Y22807D01*
X58727Y22792D01*
X58713Y22785D01*
X58705Y22777D01*
X58625Y22719D01*
X58544Y22668D01*
X58478Y22624D01*
X58412Y22580D01*
X58310Y22507D01*
X58230Y22441D01*
X58178Y22397D01*
X58142Y22367D01*
X58120Y22346D01*
X58112Y22338D01*
X58076Y22280D01*
X58047Y22192D01*
X58025Y22104D01*
X58010Y22009D01*
X58003Y21921D01*
X57995Y21848D01*
Y21818D01*
Y21797D01*
Y21782D01*
Y21775D01*
Y21709D01*
X58003Y21650D01*
X58017Y21599D01*
X58025Y21555D01*
X58039Y21526D01*
X58054Y21504D01*
X58061Y21489D01*
Y21482D01*
X58083Y21452D01*
X58112Y21431D01*
X58178Y21401D01*
X58208Y21394D01*
X58230Y21387D01*
X58252D01*
X58332Y21401D01*
X58383Y21423D01*
X58420Y21445D01*
X58427Y21460D01*
X58442Y21496D01*
X58449Y21548D01*
X58464Y21665D01*
X58471Y21723D01*
Y21767D01*
Y21797D01*
Y21811D01*
Y22411D01*
X59642D01*
Y22089D01*
X59635Y21899D01*
X59628Y21723D01*
X59606Y21577D01*
X59584Y21460D01*
X59569Y21365D01*
X59547Y21299D01*
X59540Y21255D01*
X59532Y21240D01*
X59481Y21138D01*
X59415Y21043D01*
X59335Y20962D01*
X59254Y20889D01*
X59181Y20830D01*
X59123Y20794D01*
X59079Y20764D01*
X59071Y20757D01*
X59064D01*
X58925Y20691D01*
X58779Y20647D01*
X58632Y20611D01*
X58500Y20589D01*
X58376Y20574D01*
X58325D01*
X58288Y20567D01*
X58200D01*
X58032Y20574D01*
X57878Y20589D01*
X57739Y20618D01*
X57622Y20647D01*
X57527Y20677D01*
X57454Y20706D01*
X57432Y20713D01*
X57410Y20720D01*
X57402Y20728D01*
X57395D01*
X57271Y20794D01*
X57175Y20860D01*
X57088Y20933D01*
X57022Y20999D01*
X56978Y21050D01*
X56941Y21101D01*
X56927Y21130D01*
X56919Y21138D01*
X56875Y21240D01*
X56846Y21365D01*
X56824Y21489D01*
X56809Y21614D01*
X56802Y21731D01*
X56795Y21782D01*
Y21818D01*
Y21855D01*
Y21884D01*
Y21899D01*
Y21906D01*
Y22038D01*
X56802Y22155D01*
X56817Y22265D01*
X56831Y22367D01*
X56846Y22463D01*
X56861Y22550D01*
X56883Y22624D01*
X56905Y22690D01*
X56927Y22748D01*
X56941Y22799D01*
X56963Y22843D01*
X56978Y22880D01*
X56992Y22902D01*
X57007Y22924D01*
X57014Y22939D01*
X57066Y23004D01*
X57124Y23070D01*
X57190Y23136D01*
X57271Y23202D01*
X57446Y23341D01*
X57629Y23473D01*
X57798Y23590D01*
X57871Y23641D01*
X57944Y23685D01*
X57995Y23714D01*
X58039Y23744D01*
X58069Y23758D01*
X58076Y23766D01*
X58178Y23832D01*
X58259Y23890D01*
X58317Y23941D01*
X58369Y23985D01*
X58398Y24014D01*
X58420Y24044D01*
X58434Y24058D01*
Y24066D01*
X58456Y24117D01*
X58471Y24168D01*
X58493Y24293D01*
Y24344D01*
X58500Y24388D01*
Y24417D01*
Y24424D01*
Y24490D01*
X58493Y24549D01*
X58478Y24600D01*
X58471Y24637D01*
X58456Y24673D01*
X58449Y24695D01*
X58442Y24703D01*
Y24710D01*
X58420Y24739D01*
X58391Y24769D01*
X58332Y24791D01*
X58288Y24805D01*
X58266D01*
X58200Y24791D01*
X58156Y24769D01*
X58127Y24746D01*
X58120Y24732D01*
X58105Y24703D01*
X58090Y24651D01*
X58083Y24600D01*
X58076Y24549D01*
X58069Y24498D01*
Y24454D01*
Y24424D01*
Y24410D01*
Y24051D01*
X56897D01*
Y24241D01*
Y24344D01*
X56905Y24446D01*
Y24534D01*
X56912Y24615D01*
X56927Y24688D01*
X56934Y24754D01*
X56956Y24871D01*
X56978Y24951D01*
X56992Y25017D01*
X57007Y25047D01*
X57014Y25061D01*
X57066Y25149D01*
X57131Y25230D01*
X57205Y25295D01*
X57285Y25354D01*
X57358Y25398D01*
X57417Y25435D01*
X57461Y25457D01*
X57468Y25464D01*
X57476D01*
X57607Y25515D01*
X57754Y25559D01*
X57893Y25588D01*
X58025Y25603D01*
X58134Y25618D01*
X58186D01*
X58230Y25625D01*
X58310D01*
X58471Y25618D01*
D02*
G37*
G36*
X72445Y24549D02*
X71698D01*
Y20669D01*
X70439D01*
Y24549D01*
X69685D01*
Y25523D01*
X72445D01*
Y24549D01*
D02*
G37*
G36*
X66011Y20669D02*
X64752D01*
Y22624D01*
X64415D01*
X64268Y22631D01*
X64137Y22638D01*
X64020Y22660D01*
X63924Y22682D01*
X63844Y22697D01*
X63785Y22719D01*
X63756Y22726D01*
X63741Y22734D01*
X63654Y22785D01*
X63580Y22836D01*
X63515Y22887D01*
X63471Y22946D01*
X63434Y22990D01*
X63412Y23026D01*
X63397Y23056D01*
X63390Y23063D01*
X63354Y23151D01*
X63332Y23261D01*
X63310Y23370D01*
X63302Y23480D01*
X63295Y23583D01*
X63288Y23663D01*
Y23692D01*
Y23714D01*
Y23729D01*
Y23736D01*
Y24161D01*
Y24322D01*
X63295Y24461D01*
X63302Y24571D01*
X63310Y24666D01*
X63324Y24739D01*
X63332Y24791D01*
X63339Y24827D01*
Y24834D01*
X63361Y24915D01*
X63390Y24988D01*
X63419Y25047D01*
X63456Y25098D01*
X63485Y25142D01*
X63507Y25171D01*
X63522Y25193D01*
X63529Y25200D01*
X63588Y25252D01*
X63654Y25303D01*
X63793Y25376D01*
X63851Y25398D01*
X63902Y25420D01*
X63932Y25435D01*
X63946D01*
X64064Y25464D01*
X64188Y25486D01*
X64320Y25501D01*
X64451Y25515D01*
X64561D01*
X64613Y25523D01*
X66011D01*
Y20669D01*
D02*
G37*
G36*
X68898Y139764D02*
X67148D01*
X67009Y139771D01*
X66892Y139778D01*
X66797Y139786D01*
X66724Y139793D01*
X66672Y139800D01*
X66636Y139808D01*
X66628D01*
X66548Y139830D01*
X66475Y139859D01*
X66409Y139888D01*
X66350Y139918D01*
X66306Y139939D01*
X66277Y139961D01*
X66255Y139976D01*
X66248Y139983D01*
X66197Y140035D01*
X66153Y140093D01*
X66116Y140144D01*
X66087Y140203D01*
X66065Y140254D01*
X66050Y140291D01*
X66035Y140320D01*
Y140327D01*
X66021Y140371D01*
X66014Y140430D01*
X65999Y140554D01*
X65984Y140701D01*
X65977Y140847D01*
X65970Y140979D01*
Y141037D01*
Y141096D01*
Y141140D01*
Y141169D01*
Y141191D01*
Y141199D01*
Y142904D01*
Y143028D01*
Y143138D01*
X65977Y143248D01*
Y143336D01*
Y143424D01*
X65984Y143497D01*
Y143563D01*
X65992Y143621D01*
X65999Y143673D01*
Y143717D01*
X66006Y143753D01*
Y143782D01*
X66014Y143812D01*
Y143826D01*
X66035Y143914D01*
X66065Y143995D01*
X66101Y144061D01*
X66138Y144126D01*
X66167Y144178D01*
X66197Y144214D01*
X66219Y144244D01*
X66226Y144251D01*
X66292Y144317D01*
X66372Y144375D01*
X66453Y144427D01*
X66533Y144463D01*
X66606Y144492D01*
X66665Y144515D01*
X66702Y144529D01*
X66716D01*
X66782Y144544D01*
X66863Y144558D01*
X66951Y144573D01*
X67046Y144580D01*
X67251Y144595D01*
X67456Y144610D01*
X67646D01*
X67734Y144617D01*
X68898D01*
Y139764D01*
D02*
G37*
G36*
X65501D02*
X63905D01*
X63781Y139771D01*
X63671D01*
X63569Y139778D01*
X63473Y139786D01*
X63393Y139793D01*
X63320Y139800D01*
X63254Y139808D01*
X63203Y139815D01*
X63151Y139822D01*
X63115D01*
X63086Y139830D01*
X63064Y139837D01*
X63049Y139844D01*
X63034D01*
X62946Y139881D01*
X62873Y139932D01*
X62815Y139983D01*
X62764Y140042D01*
X62727Y140086D01*
X62698Y140130D01*
X62683Y140159D01*
X62676Y140166D01*
X62639Y140269D01*
X62610Y140386D01*
X62588Y140503D01*
X62573Y140620D01*
X62566Y140730D01*
X62559Y140818D01*
Y140855D01*
Y140876D01*
Y140891D01*
Y140898D01*
Y141345D01*
X62566Y141513D01*
X62581Y141652D01*
X62610Y141777D01*
X62639Y141872D01*
X62668Y141953D01*
X62698Y142004D01*
X62712Y142040D01*
X62720Y142048D01*
X62785Y142128D01*
X62873Y142201D01*
X62976Y142253D01*
X63071Y142304D01*
X63166Y142333D01*
X63239Y142362D01*
X63269Y142370D01*
X63291D01*
X63305Y142377D01*
X63313D01*
X63173Y142414D01*
X63064Y142457D01*
X62968Y142494D01*
X62903Y142538D01*
X62851Y142575D01*
X62815Y142604D01*
X62793Y142626D01*
X62785Y142633D01*
X62742Y142706D01*
X62705Y142794D01*
X62683Y142897D01*
X62661Y142992D01*
X62654Y143080D01*
X62646Y143160D01*
Y143190D01*
Y143204D01*
Y143219D01*
Y143226D01*
Y143343D01*
X62654Y143446D01*
X62661Y143548D01*
X62676Y143636D01*
X62690Y143724D01*
X62705Y143797D01*
X62727Y143863D01*
X62742Y143921D01*
X62756Y143973D01*
X62778Y144017D01*
X62807Y144090D01*
X62829Y144126D01*
X62837Y144141D01*
X62910Y144236D01*
X62998Y144324D01*
X63078Y144390D01*
X63159Y144441D01*
X63225Y144478D01*
X63283Y144500D01*
X63320Y144515D01*
X63334Y144522D01*
X63459Y144551D01*
X63605Y144580D01*
X63759Y144595D01*
X63905Y144602D01*
X64037Y144610D01*
X64096Y144617D01*
X65501D01*
Y139764D01*
D02*
G37*
G36*
X68898Y129921D02*
X67148D01*
X67009Y129929D01*
X66892Y129936D01*
X66797Y129943D01*
X66724Y129950D01*
X66672Y129958D01*
X66636Y129965D01*
X66628D01*
X66548Y129987D01*
X66475Y130016D01*
X66409Y130046D01*
X66350Y130075D01*
X66306Y130097D01*
X66277Y130119D01*
X66255Y130133D01*
X66248Y130141D01*
X66197Y130192D01*
X66153Y130251D01*
X66116Y130302D01*
X66087Y130360D01*
X66065Y130412D01*
X66050Y130448D01*
X66035Y130478D01*
Y130485D01*
X66021Y130529D01*
X66014Y130587D01*
X65999Y130712D01*
X65984Y130858D01*
X65977Y131005D01*
X65970Y131136D01*
Y131195D01*
Y131254D01*
Y131297D01*
Y131327D01*
Y131349D01*
Y131356D01*
Y133062D01*
Y133186D01*
Y133296D01*
X65977Y133406D01*
Y133493D01*
Y133581D01*
X65984Y133654D01*
Y133720D01*
X65992Y133779D01*
X65999Y133830D01*
Y133874D01*
X66006Y133911D01*
Y133940D01*
X66014Y133969D01*
Y133984D01*
X66035Y134072D01*
X66065Y134152D01*
X66101Y134218D01*
X66138Y134284D01*
X66167Y134335D01*
X66197Y134372D01*
X66219Y134401D01*
X66226Y134408D01*
X66292Y134474D01*
X66372Y134533D01*
X66453Y134584D01*
X66533Y134621D01*
X66606Y134650D01*
X66665Y134672D01*
X66702Y134687D01*
X66716D01*
X66782Y134701D01*
X66863Y134716D01*
X66951Y134731D01*
X67046Y134738D01*
X67251Y134753D01*
X67456Y134767D01*
X67646D01*
X67734Y134774D01*
X68898D01*
Y129921D01*
D02*
G37*
G36*
X60919Y144705D02*
X61102Y144676D01*
X61263Y144639D01*
X61395Y144588D01*
X61497Y144536D01*
X61541Y144515D01*
X61578Y144500D01*
X61607Y144478D01*
X61629Y144471D01*
X61636Y144456D01*
X61643D01*
X61761Y144353D01*
X61856Y144258D01*
X61929Y144156D01*
X61988Y144068D01*
X62024Y143995D01*
X62053Y143929D01*
X62061Y143892D01*
X62068Y143885D01*
Y143878D01*
X62083Y143812D01*
X62090Y143746D01*
X62112Y143585D01*
X62127Y143417D01*
X62134Y143255D01*
Y143102D01*
X62141Y143036D01*
Y142985D01*
Y142933D01*
Y142897D01*
Y142875D01*
Y142868D01*
Y141425D01*
Y141250D01*
X62134Y141096D01*
Y140964D01*
X62127Y140862D01*
X62119Y140774D01*
Y140715D01*
X62112Y140686D01*
Y140672D01*
X62090Y140576D01*
X62068Y140496D01*
X62039Y140415D01*
X62010Y140342D01*
X61980Y140284D01*
X61951Y140232D01*
X61936Y140203D01*
X61929Y140196D01*
X61870Y140115D01*
X61797Y140042D01*
X61731Y139976D01*
X61658Y139918D01*
X61600Y139874D01*
X61548Y139844D01*
X61519Y139822D01*
X61504Y139815D01*
X61402Y139764D01*
X61292Y139727D01*
X61197Y139698D01*
X61102Y139683D01*
X61029Y139669D01*
X60963Y139661D01*
X60912D01*
X60816Y139669D01*
X60729Y139676D01*
X60648Y139698D01*
X60582Y139720D01*
X60524Y139734D01*
X60487Y139757D01*
X60458Y139764D01*
X60450Y139771D01*
X60377Y139815D01*
X60319Y139874D01*
X60260Y139925D01*
X60209Y139983D01*
X60172Y140027D01*
X60143Y140071D01*
X60128Y140101D01*
X60121Y140108D01*
X60004Y139764D01*
X59206D01*
Y142370D01*
X60685D01*
Y141630D01*
X60428D01*
Y141052D01*
Y140935D01*
X60436Y140832D01*
X60443Y140752D01*
X60450Y140693D01*
X60465Y140649D01*
X60472Y140613D01*
X60480Y140598D01*
Y140591D01*
X60502Y140554D01*
X60531Y140525D01*
X60560Y140510D01*
X60597Y140496D01*
X60626Y140489D01*
X60648Y140481D01*
X60670D01*
X60714Y140489D01*
X60751Y140496D01*
X60809Y140532D01*
X60838Y140569D01*
X60846Y140576D01*
Y140584D01*
X60860Y140635D01*
X60868Y140693D01*
X60875Y140767D01*
Y140832D01*
X60882Y140898D01*
Y140957D01*
Y140993D01*
Y141008D01*
Y143343D01*
Y143468D01*
X60875Y143570D01*
X60868Y143651D01*
X60860Y143717D01*
Y143761D01*
X60853Y143782D01*
X60846Y143797D01*
Y143804D01*
X60824Y143834D01*
X60802Y143863D01*
X60743Y143885D01*
X60699Y143900D01*
X60677D01*
X60633Y143892D01*
X60597Y143885D01*
X60567Y143863D01*
X60545Y143848D01*
X60516Y143804D01*
X60509Y143797D01*
Y143790D01*
X60502Y143768D01*
X60494Y143738D01*
X60480Y143665D01*
X60472Y143578D01*
Y143490D01*
X60465Y143409D01*
Y143336D01*
Y143307D01*
Y143292D01*
Y143277D01*
Y143270D01*
Y142831D01*
X59206D01*
Y143036D01*
X59213Y143248D01*
X59221Y143431D01*
X59243Y143585D01*
X59264Y143717D01*
X59286Y143812D01*
X59301Y143885D01*
X59316Y143929D01*
X59323Y143944D01*
X59374Y144061D01*
X59440Y144163D01*
X59521Y144251D01*
X59601Y144332D01*
X59674Y144397D01*
X59740Y144449D01*
X59784Y144478D01*
X59792Y144485D01*
X59799D01*
X59945Y144566D01*
X60099Y144624D01*
X60253Y144661D01*
X60399Y144690D01*
X60524Y144705D01*
X60582Y144712D01*
X60626Y144719D01*
X60721D01*
X60919Y144705D01*
D02*
G37*
G36*
X52289Y132622D02*
X52750Y129921D01*
X51520D01*
X51410Y130712D01*
X51381Y130902D01*
X51352Y131085D01*
X51330Y131246D01*
X51308Y131393D01*
X51293Y131517D01*
X51286Y131568D01*
X51278Y131612D01*
Y131649D01*
X51271Y131671D01*
Y131685D01*
Y131693D01*
X51235Y131502D01*
X51205Y131319D01*
X51169Y131144D01*
X51132Y130975D01*
X51103Y130822D01*
X51073Y130675D01*
X51037Y130536D01*
X51015Y130412D01*
X50986Y130302D01*
X50964Y130207D01*
X50942Y130119D01*
X50927Y130053D01*
X50912Y129994D01*
X50898Y129958D01*
X50890Y129929D01*
Y129921D01*
X49719D01*
X50393Y132622D01*
X49939Y134774D01*
X51000D01*
X51271Y133442D01*
X51315Y133676D01*
X51337Y133786D01*
X51359Y133889D01*
X51374Y133976D01*
X51388Y134042D01*
X51395Y134086D01*
X51403Y134094D01*
Y134101D01*
X51432Y134262D01*
X51461Y134401D01*
X51483Y134518D01*
X51505Y134613D01*
X51520Y134687D01*
X51527Y134738D01*
X51535Y134767D01*
Y134774D01*
X52750D01*
X52289Y132622D01*
D02*
G37*
G36*
X60919Y134862D02*
X61102Y134833D01*
X61263Y134796D01*
X61395Y134745D01*
X61497Y134694D01*
X61541Y134672D01*
X61578Y134657D01*
X61607Y134635D01*
X61629Y134628D01*
X61636Y134613D01*
X61643D01*
X61761Y134511D01*
X61856Y134416D01*
X61929Y134313D01*
X61988Y134225D01*
X62024Y134152D01*
X62053Y134086D01*
X62061Y134050D01*
X62068Y134042D01*
Y134035D01*
X62083Y133969D01*
X62090Y133903D01*
X62112Y133742D01*
X62127Y133574D01*
X62134Y133413D01*
Y133259D01*
X62141Y133193D01*
Y133142D01*
Y133091D01*
Y133054D01*
Y133032D01*
Y133025D01*
Y131583D01*
Y131407D01*
X62134Y131254D01*
Y131122D01*
X62127Y131019D01*
X62119Y130931D01*
Y130873D01*
X62112Y130844D01*
Y130829D01*
X62090Y130734D01*
X62068Y130653D01*
X62039Y130573D01*
X62010Y130499D01*
X61980Y130441D01*
X61951Y130390D01*
X61936Y130360D01*
X61929Y130353D01*
X61870Y130273D01*
X61797Y130199D01*
X61731Y130133D01*
X61658Y130075D01*
X61600Y130031D01*
X61548Y130002D01*
X61519Y129980D01*
X61504Y129973D01*
X61402Y129921D01*
X61292Y129885D01*
X61197Y129855D01*
X61102Y129841D01*
X61029Y129826D01*
X60963Y129819D01*
X60912D01*
X60816Y129826D01*
X60729Y129833D01*
X60648Y129855D01*
X60582Y129877D01*
X60524Y129892D01*
X60487Y129914D01*
X60458Y129921D01*
X60450Y129929D01*
X60377Y129973D01*
X60319Y130031D01*
X60260Y130082D01*
X60209Y130141D01*
X60172Y130185D01*
X60143Y130229D01*
X60128Y130258D01*
X60121Y130265D01*
X60004Y129921D01*
X59206D01*
Y132527D01*
X60685D01*
Y131788D01*
X60428D01*
Y131210D01*
Y131093D01*
X60436Y130990D01*
X60443Y130910D01*
X60450Y130851D01*
X60465Y130807D01*
X60472Y130770D01*
X60480Y130756D01*
Y130748D01*
X60502Y130712D01*
X60531Y130683D01*
X60560Y130668D01*
X60597Y130653D01*
X60626Y130646D01*
X60648Y130639D01*
X60670D01*
X60714Y130646D01*
X60751Y130653D01*
X60809Y130690D01*
X60838Y130727D01*
X60846Y130734D01*
Y130741D01*
X60860Y130792D01*
X60868Y130851D01*
X60875Y130924D01*
Y130990D01*
X60882Y131056D01*
Y131114D01*
Y131151D01*
Y131166D01*
Y133501D01*
Y133625D01*
X60875Y133728D01*
X60868Y133808D01*
X60860Y133874D01*
Y133918D01*
X60853Y133940D01*
X60846Y133955D01*
Y133962D01*
X60824Y133991D01*
X60802Y134020D01*
X60743Y134042D01*
X60699Y134057D01*
X60677D01*
X60633Y134050D01*
X60597Y134042D01*
X60567Y134020D01*
X60545Y134006D01*
X60516Y133962D01*
X60509Y133955D01*
Y133947D01*
X60502Y133925D01*
X60494Y133896D01*
X60480Y133823D01*
X60472Y133735D01*
Y133647D01*
X60465Y133567D01*
Y133493D01*
Y133464D01*
Y133449D01*
Y133435D01*
Y133428D01*
Y132988D01*
X59206D01*
Y133193D01*
X59213Y133406D01*
X59221Y133589D01*
X59243Y133742D01*
X59264Y133874D01*
X59286Y133969D01*
X59301Y134042D01*
X59316Y134086D01*
X59323Y134101D01*
X59374Y134218D01*
X59440Y134321D01*
X59521Y134408D01*
X59601Y134489D01*
X59674Y134555D01*
X59740Y134606D01*
X59784Y134635D01*
X59792Y134643D01*
X59799D01*
X59945Y134723D01*
X60099Y134782D01*
X60253Y134818D01*
X60399Y134848D01*
X60524Y134862D01*
X60582Y134870D01*
X60626Y134877D01*
X60721D01*
X60919Y134862D01*
D02*
G37*
G36*
X55334Y139764D02*
X54075D01*
Y141953D01*
X53987Y141945D01*
X53914Y141938D01*
X53855Y141923D01*
X53811Y141909D01*
X53782Y141887D01*
X53760Y141872D01*
X53745Y141865D01*
Y141857D01*
X53723Y141806D01*
X53709Y141740D01*
X53694Y141660D01*
X53687Y141579D01*
X53679Y141499D01*
Y141440D01*
Y141389D01*
Y141382D01*
Y141374D01*
Y139764D01*
X52508D01*
Y141037D01*
Y141140D01*
Y141235D01*
Y141323D01*
X52516Y141403D01*
Y141469D01*
X52523Y141528D01*
Y141579D01*
Y141616D01*
X52530Y141682D01*
X52537Y141726D01*
X52545Y141747D01*
Y141755D01*
X52559Y141806D01*
X52581Y141857D01*
X52633Y141945D01*
X52662Y141982D01*
X52684Y142011D01*
X52698Y142033D01*
X52706Y142040D01*
X52764Y142099D01*
X52838Y142150D01*
X52918Y142194D01*
X53006Y142231D01*
X53086Y142260D01*
X53152Y142282D01*
X53196Y142289D01*
X53204Y142297D01*
X53211D01*
X53065Y142318D01*
X52947Y142348D01*
X52852Y142384D01*
X52779Y142421D01*
X52720Y142465D01*
X52684Y142494D01*
X52662Y142516D01*
X52655Y142523D01*
X52625Y142567D01*
X52603Y142611D01*
X52567Y142728D01*
X52545Y142853D01*
X52523Y142977D01*
X52516Y143094D01*
Y143146D01*
X52508Y143197D01*
Y143234D01*
Y143263D01*
Y143277D01*
Y143285D01*
Y143394D01*
X52516Y143504D01*
X52530Y143599D01*
X52537Y143687D01*
X52552Y143768D01*
X52574Y143848D01*
X52589Y143914D01*
X52611Y143973D01*
X52647Y144068D01*
X52684Y144141D01*
X52706Y144178D01*
X52713Y144192D01*
X52794Y144288D01*
X52874Y144368D01*
X52962Y144427D01*
X53050Y144478D01*
X53123Y144507D01*
X53182Y144529D01*
X53218Y144544D01*
X53233D01*
X53299Y144558D01*
X53372Y144566D01*
X53460Y144580D01*
X53555Y144588D01*
X53753Y144602D01*
X53957Y144610D01*
X54053D01*
X54141Y144617D01*
X55334D01*
Y139764D01*
D02*
G37*
G36*
X59008Y138995D02*
X55546D01*
Y139303D01*
X59008D01*
Y138995D01*
D02*
G37*
G36*
X48621Y149606D02*
X46872D01*
X46733Y149614D01*
X46616Y149621D01*
X46520Y149628D01*
X46447Y149636D01*
X46396Y149643D01*
X46359Y149650D01*
X46352D01*
X46271Y149672D01*
X46198Y149701D01*
X46132Y149731D01*
X46074Y149760D01*
X46030Y149782D01*
X46001Y149804D01*
X45979Y149819D01*
X45971Y149826D01*
X45920Y149877D01*
X45876Y149936D01*
X45840Y149987D01*
X45810Y150046D01*
X45788Y150097D01*
X45774Y150133D01*
X45759Y150163D01*
Y150170D01*
X45744Y150214D01*
X45737Y150272D01*
X45722Y150397D01*
X45708Y150543D01*
X45701Y150690D01*
X45693Y150821D01*
Y150880D01*
Y150938D01*
Y150982D01*
Y151012D01*
Y151034D01*
Y151041D01*
Y152747D01*
Y152871D01*
Y152981D01*
X45701Y153091D01*
Y153179D01*
Y153266D01*
X45708Y153340D01*
Y153405D01*
X45715Y153464D01*
X45722Y153515D01*
Y153559D01*
X45730Y153596D01*
Y153625D01*
X45737Y153654D01*
Y153669D01*
X45759Y153757D01*
X45788Y153837D01*
X45825Y153903D01*
X45862Y153969D01*
X45891Y154020D01*
X45920Y154057D01*
X45942Y154086D01*
X45949Y154094D01*
X46015Y154159D01*
X46096Y154218D01*
X46176Y154269D01*
X46257Y154306D01*
X46330Y154335D01*
X46389Y154357D01*
X46425Y154372D01*
X46440D01*
X46506Y154386D01*
X46586Y154401D01*
X46674Y154416D01*
X46769Y154423D01*
X46974Y154437D01*
X47179Y154452D01*
X47370D01*
X47457Y154460D01*
X48621D01*
Y149606D01*
D02*
G37*
G36*
X59008Y148838D02*
X55546D01*
Y149145D01*
X59008D01*
Y148838D01*
D02*
G37*
G36*
X68898Y149606D02*
X67148D01*
X67009Y149614D01*
X66892Y149621D01*
X66797Y149628D01*
X66724Y149636D01*
X66672Y149643D01*
X66636Y149650D01*
X66628D01*
X66548Y149672D01*
X66475Y149701D01*
X66409Y149731D01*
X66350Y149760D01*
X66306Y149782D01*
X66277Y149804D01*
X66255Y149819D01*
X66248Y149826D01*
X66197Y149877D01*
X66153Y149936D01*
X66116Y149987D01*
X66087Y150046D01*
X66065Y150097D01*
X66050Y150133D01*
X66035Y150163D01*
Y150170D01*
X66021Y150214D01*
X66014Y150272D01*
X65999Y150397D01*
X65984Y150543D01*
X65977Y150690D01*
X65970Y150821D01*
Y150880D01*
Y150938D01*
Y150982D01*
Y151012D01*
Y151034D01*
Y151041D01*
Y152747D01*
Y152871D01*
Y152981D01*
X65977Y153091D01*
Y153179D01*
Y153266D01*
X65984Y153340D01*
Y153405D01*
X65992Y153464D01*
X65999Y153515D01*
Y153559D01*
X66006Y153596D01*
Y153625D01*
X66014Y153654D01*
Y153669D01*
X66035Y153757D01*
X66065Y153837D01*
X66101Y153903D01*
X66138Y153969D01*
X66167Y154020D01*
X66197Y154057D01*
X66219Y154086D01*
X66226Y154094D01*
X66292Y154159D01*
X66372Y154218D01*
X66453Y154269D01*
X66533Y154306D01*
X66606Y154335D01*
X66665Y154357D01*
X66702Y154372D01*
X66716D01*
X66782Y154386D01*
X66863Y154401D01*
X66951Y154416D01*
X67046Y154423D01*
X67251Y154437D01*
X67456Y154452D01*
X67646D01*
X67734Y154460D01*
X68898D01*
Y149606D01*
D02*
G37*
G36*
X65501D02*
X63905D01*
X63781Y149614D01*
X63671D01*
X63569Y149621D01*
X63473Y149628D01*
X63393Y149636D01*
X63320Y149643D01*
X63254Y149650D01*
X63203Y149657D01*
X63151Y149665D01*
X63115D01*
X63086Y149672D01*
X63064Y149680D01*
X63049Y149687D01*
X63034D01*
X62946Y149723D01*
X62873Y149775D01*
X62815Y149826D01*
X62764Y149884D01*
X62727Y149928D01*
X62698Y149972D01*
X62683Y150002D01*
X62676Y150009D01*
X62639Y150111D01*
X62610Y150229D01*
X62588Y150346D01*
X62573Y150463D01*
X62566Y150573D01*
X62559Y150660D01*
Y150697D01*
Y150719D01*
Y150734D01*
Y150741D01*
Y151187D01*
X62566Y151356D01*
X62581Y151495D01*
X62610Y151619D01*
X62639Y151715D01*
X62668Y151795D01*
X62698Y151846D01*
X62712Y151883D01*
X62720Y151890D01*
X62785Y151971D01*
X62873Y152044D01*
X62976Y152095D01*
X63071Y152146D01*
X63166Y152176D01*
X63239Y152205D01*
X63269Y152212D01*
X63291D01*
X63305Y152219D01*
X63313D01*
X63173Y152256D01*
X63064Y152300D01*
X62968Y152337D01*
X62903Y152381D01*
X62851Y152417D01*
X62815Y152446D01*
X62793Y152468D01*
X62785Y152476D01*
X62742Y152549D01*
X62705Y152637D01*
X62683Y152739D01*
X62661Y152834D01*
X62654Y152922D01*
X62646Y153003D01*
Y153032D01*
Y153047D01*
Y153061D01*
Y153069D01*
Y153186D01*
X62654Y153288D01*
X62661Y153391D01*
X62676Y153479D01*
X62690Y153566D01*
X62705Y153640D01*
X62727Y153706D01*
X62742Y153764D01*
X62756Y153815D01*
X62778Y153859D01*
X62807Y153932D01*
X62829Y153969D01*
X62837Y153984D01*
X62910Y154079D01*
X62998Y154167D01*
X63078Y154233D01*
X63159Y154284D01*
X63225Y154320D01*
X63283Y154342D01*
X63320Y154357D01*
X63334Y154364D01*
X63459Y154394D01*
X63605Y154423D01*
X63759Y154437D01*
X63905Y154445D01*
X64037Y154452D01*
X64096Y154460D01*
X65501D01*
Y149606D01*
D02*
G37*
G36*
X55546Y133801D02*
X54799D01*
Y129921D01*
X53540D01*
Y133801D01*
X52786D01*
Y134774D01*
X55546D01*
Y133801D01*
D02*
G37*
G36*
X65501Y129921D02*
X63905D01*
X63781Y129929D01*
X63671D01*
X63569Y129936D01*
X63473Y129943D01*
X63393Y129950D01*
X63320Y129958D01*
X63254Y129965D01*
X63203Y129973D01*
X63151Y129980D01*
X63115D01*
X63086Y129987D01*
X63064Y129994D01*
X63049Y130002D01*
X63034D01*
X62946Y130038D01*
X62873Y130090D01*
X62815Y130141D01*
X62764Y130199D01*
X62727Y130243D01*
X62698Y130287D01*
X62683Y130316D01*
X62676Y130324D01*
X62639Y130426D01*
X62610Y130543D01*
X62588Y130661D01*
X62573Y130778D01*
X62566Y130887D01*
X62559Y130975D01*
Y131012D01*
Y131034D01*
Y131049D01*
Y131056D01*
Y131502D01*
X62566Y131671D01*
X62581Y131810D01*
X62610Y131934D01*
X62639Y132029D01*
X62668Y132110D01*
X62698Y132161D01*
X62712Y132198D01*
X62720Y132205D01*
X62785Y132286D01*
X62873Y132359D01*
X62976Y132410D01*
X63071Y132461D01*
X63166Y132491D01*
X63239Y132520D01*
X63269Y132527D01*
X63291D01*
X63305Y132535D01*
X63313D01*
X63173Y132571D01*
X63064Y132615D01*
X62968Y132652D01*
X62903Y132695D01*
X62851Y132732D01*
X62815Y132761D01*
X62793Y132783D01*
X62785Y132791D01*
X62742Y132864D01*
X62705Y132952D01*
X62683Y133054D01*
X62661Y133149D01*
X62654Y133237D01*
X62646Y133318D01*
Y133347D01*
Y133362D01*
Y133376D01*
Y133384D01*
Y133501D01*
X62654Y133603D01*
X62661Y133706D01*
X62676Y133793D01*
X62690Y133881D01*
X62705Y133955D01*
X62727Y134020D01*
X62742Y134079D01*
X62756Y134130D01*
X62778Y134174D01*
X62807Y134247D01*
X62829Y134284D01*
X62837Y134299D01*
X62910Y134394D01*
X62998Y134482D01*
X63078Y134547D01*
X63159Y134599D01*
X63225Y134635D01*
X63283Y134657D01*
X63320Y134672D01*
X63334Y134679D01*
X63459Y134708D01*
X63605Y134738D01*
X63759Y134753D01*
X63905Y134760D01*
X64037Y134767D01*
X64096Y134774D01*
X65501D01*
Y129921D01*
D02*
G37*
G36*
X51813Y142465D02*
X52274Y139764D01*
X51044D01*
X50934Y140554D01*
X50905Y140745D01*
X50876Y140928D01*
X50854Y141089D01*
X50832Y141235D01*
X50817Y141359D01*
X50810Y141411D01*
X50803Y141455D01*
Y141491D01*
X50795Y141513D01*
Y141528D01*
Y141535D01*
X50759Y141345D01*
X50729Y141162D01*
X50693Y140986D01*
X50656Y140818D01*
X50627Y140664D01*
X50598Y140518D01*
X50561Y140379D01*
X50539Y140254D01*
X50510Y140144D01*
X50488Y140049D01*
X50466Y139961D01*
X50451Y139895D01*
X50437Y139837D01*
X50422Y139800D01*
X50415Y139771D01*
Y139764D01*
X49243D01*
X49917Y142465D01*
X49463Y144617D01*
X50524D01*
X50795Y143285D01*
X50839Y143519D01*
X50861Y143629D01*
X50883Y143731D01*
X50898Y143819D01*
X50912Y143885D01*
X50920Y143929D01*
X50927Y143936D01*
Y143944D01*
X50956Y144105D01*
X50986Y144244D01*
X51008Y144361D01*
X51029Y144456D01*
X51044Y144529D01*
X51051Y144580D01*
X51059Y144610D01*
Y144617D01*
X52274D01*
X51813Y142465D01*
D02*
G37*
G36*
X59008Y129153D02*
X55546D01*
Y129460D01*
X59008D01*
Y129153D01*
D02*
G37*
G36*
X117891Y85079D02*
X116632D01*
Y87158D01*
X116119Y85079D01*
X114816D01*
X115607Y87736D01*
X114882Y89932D01*
X116061D01*
X116632Y88043D01*
Y89932D01*
X117891D01*
Y85079D01*
D02*
G37*
G36*
X111574Y94468D02*
X108111D01*
Y94775D01*
X111574D01*
Y94468D01*
D02*
G37*
G36*
X123044Y100185D02*
X123198Y100170D01*
X123330Y100148D01*
X123439Y100119D01*
X123535Y100089D01*
X123600Y100067D01*
X123644Y100053D01*
X123652Y100046D01*
X123659D01*
X123769Y99987D01*
X123864Y99921D01*
X123937Y99855D01*
X124003Y99789D01*
X124054Y99723D01*
X124084Y99679D01*
X124106Y99650D01*
X124113Y99636D01*
X124157Y99526D01*
X124193Y99401D01*
X124215Y99270D01*
X124237Y99130D01*
X124245Y99013D01*
Y98962D01*
X124252Y98911D01*
Y98874D01*
Y98845D01*
Y98830D01*
Y98823D01*
X124245Y98684D01*
X124237Y98559D01*
X124223Y98450D01*
X124201Y98362D01*
X124186Y98289D01*
X124171Y98230D01*
X124164Y98201D01*
X124157Y98186D01*
X124113Y98098D01*
X124076Y98018D01*
X124032Y97952D01*
X123988Y97901D01*
X123952Y97857D01*
X123923Y97828D01*
X123908Y97806D01*
X123901Y97798D01*
X123871Y97769D01*
X123827Y97740D01*
X123740Y97667D01*
X123637Y97593D01*
X123535Y97520D01*
X123432Y97454D01*
X123352Y97396D01*
X123322Y97374D01*
X123300Y97359D01*
X123286Y97352D01*
X123278Y97344D01*
X123198Y97286D01*
X123117Y97235D01*
X123052Y97191D01*
X122986Y97147D01*
X122883Y97074D01*
X122803Y97008D01*
X122751Y96964D01*
X122715Y96934D01*
X122693Y96912D01*
X122686Y96905D01*
X122649Y96847D01*
X122620Y96759D01*
X122598Y96671D01*
X122583Y96576D01*
X122576Y96488D01*
X122568Y96415D01*
Y96386D01*
Y96364D01*
Y96349D01*
Y96342D01*
Y96276D01*
X122576Y96217D01*
X122590Y96166D01*
X122598Y96122D01*
X122612Y96093D01*
X122627Y96071D01*
X122634Y96056D01*
Y96049D01*
X122656Y96020D01*
X122686Y95998D01*
X122751Y95968D01*
X122781Y95961D01*
X122803Y95954D01*
X122825D01*
X122905Y95968D01*
X122956Y95990D01*
X122993Y96012D01*
X123000Y96027D01*
X123015Y96063D01*
X123022Y96115D01*
X123037Y96232D01*
X123044Y96290D01*
Y96334D01*
Y96364D01*
Y96378D01*
Y96978D01*
X124215D01*
Y96656D01*
X124208Y96466D01*
X124201Y96290D01*
X124179Y96144D01*
X124157Y96027D01*
X124142Y95932D01*
X124120Y95866D01*
X124113Y95822D01*
X124106Y95807D01*
X124054Y95705D01*
X123988Y95610D01*
X123908Y95529D01*
X123827Y95456D01*
X123754Y95397D01*
X123696Y95361D01*
X123652Y95331D01*
X123644Y95324D01*
X123637D01*
X123498Y95258D01*
X123352Y95214D01*
X123205Y95178D01*
X123073Y95156D01*
X122949Y95141D01*
X122898D01*
X122861Y95134D01*
X122773D01*
X122605Y95141D01*
X122451Y95156D01*
X122312Y95185D01*
X122195Y95214D01*
X122100Y95244D01*
X122027Y95273D01*
X122005Y95280D01*
X121983Y95288D01*
X121975Y95295D01*
X121968D01*
X121844Y95361D01*
X121748Y95426D01*
X121661Y95500D01*
X121595Y95566D01*
X121551Y95617D01*
X121514Y95668D01*
X121500Y95697D01*
X121492Y95705D01*
X121448Y95807D01*
X121419Y95932D01*
X121397Y96056D01*
X121382Y96180D01*
X121375Y96298D01*
X121368Y96349D01*
Y96386D01*
Y96422D01*
Y96451D01*
Y96466D01*
Y96473D01*
Y96605D01*
X121375Y96722D01*
X121390Y96832D01*
X121405Y96934D01*
X121419Y97030D01*
X121434Y97118D01*
X121456Y97191D01*
X121478Y97257D01*
X121500Y97315D01*
X121514Y97366D01*
X121536Y97410D01*
X121551Y97447D01*
X121565Y97469D01*
X121580Y97491D01*
X121588Y97505D01*
X121639Y97571D01*
X121697Y97637D01*
X121763Y97703D01*
X121844Y97769D01*
X122019Y97908D01*
X122202Y98040D01*
X122371Y98157D01*
X122444Y98208D01*
X122517Y98252D01*
X122568Y98281D01*
X122612Y98311D01*
X122642Y98325D01*
X122649Y98333D01*
X122751Y98399D01*
X122832Y98457D01*
X122890Y98508D01*
X122942Y98552D01*
X122971Y98581D01*
X122993Y98611D01*
X123008Y98625D01*
Y98633D01*
X123029Y98684D01*
X123044Y98735D01*
X123066Y98860D01*
Y98911D01*
X123073Y98955D01*
Y98984D01*
Y98991D01*
Y99057D01*
X123066Y99116D01*
X123052Y99167D01*
X123044Y99204D01*
X123029Y99240D01*
X123022Y99262D01*
X123015Y99270D01*
Y99277D01*
X122993Y99306D01*
X122964Y99335D01*
X122905Y99357D01*
X122861Y99372D01*
X122839D01*
X122773Y99357D01*
X122729Y99335D01*
X122700Y99313D01*
X122693Y99299D01*
X122678Y99270D01*
X122663Y99218D01*
X122656Y99167D01*
X122649Y99116D01*
X122642Y99065D01*
Y99021D01*
Y98991D01*
Y98977D01*
Y98618D01*
X121470D01*
Y98808D01*
Y98911D01*
X121478Y99013D01*
Y99101D01*
X121485Y99182D01*
X121500Y99255D01*
X121507Y99321D01*
X121529Y99438D01*
X121551Y99518D01*
X121565Y99584D01*
X121580Y99614D01*
X121588Y99628D01*
X121639Y99716D01*
X121705Y99797D01*
X121778Y99862D01*
X121858Y99921D01*
X121932Y99965D01*
X121990Y100002D01*
X122034Y100023D01*
X122041Y100031D01*
X122049D01*
X122180Y100082D01*
X122327Y100126D01*
X122466Y100155D01*
X122598Y100170D01*
X122707Y100185D01*
X122759D01*
X122803Y100192D01*
X122883D01*
X123044Y100185D01*
D02*
G37*
G36*
X28034Y84588D02*
X27288D01*
Y80709D01*
X26028D01*
Y84588D01*
X25275D01*
Y85562D01*
X28034D01*
Y84588D01*
D02*
G37*
G36*
X114597Y85079D02*
X113338D01*
Y87267D01*
X113250Y87260D01*
X113177Y87253D01*
X113118Y87238D01*
X113074Y87224D01*
X113045Y87201D01*
X113023Y87187D01*
X113008Y87180D01*
Y87172D01*
X112987Y87121D01*
X112972Y87055D01*
X112957Y86975D01*
X112950Y86894D01*
X112943Y86814D01*
Y86755D01*
Y86704D01*
Y86696D01*
Y86689D01*
Y85079D01*
X111771D01*
Y86352D01*
Y86455D01*
Y86550D01*
Y86638D01*
X111779Y86718D01*
Y86784D01*
X111786Y86843D01*
Y86894D01*
Y86931D01*
X111793Y86997D01*
X111801Y87041D01*
X111808Y87063D01*
Y87070D01*
X111823Y87121D01*
X111845Y87172D01*
X111896Y87260D01*
X111925Y87297D01*
X111947Y87326D01*
X111962Y87348D01*
X111969Y87355D01*
X112028Y87414D01*
X112101Y87465D01*
X112181Y87509D01*
X112269Y87546D01*
X112350Y87575D01*
X112416Y87597D01*
X112459Y87604D01*
X112467Y87612D01*
X112474D01*
X112328Y87633D01*
X112211Y87663D01*
X112115Y87699D01*
X112042Y87736D01*
X111984Y87780D01*
X111947Y87809D01*
X111925Y87831D01*
X111918Y87838D01*
X111889Y87882D01*
X111866Y87926D01*
X111830Y88043D01*
X111808Y88168D01*
X111786Y88292D01*
X111779Y88409D01*
Y88461D01*
X111771Y88512D01*
Y88548D01*
Y88578D01*
Y88592D01*
Y88600D01*
Y88709D01*
X111779Y88819D01*
X111793Y88914D01*
X111801Y89002D01*
X111815Y89083D01*
X111837Y89163D01*
X111852Y89229D01*
X111874Y89288D01*
X111910Y89383D01*
X111947Y89456D01*
X111969Y89493D01*
X111976Y89507D01*
X112057Y89603D01*
X112137Y89683D01*
X112225Y89742D01*
X112313Y89793D01*
X112386Y89822D01*
X112445Y89844D01*
X112481Y89859D01*
X112496D01*
X112562Y89873D01*
X112635Y89881D01*
X112723Y89895D01*
X112818Y89903D01*
X113016Y89917D01*
X113221Y89925D01*
X113316D01*
X113404Y89932D01*
X114597D01*
Y85079D01*
D02*
G37*
G36*
X120973D02*
X119714D01*
Y87033D01*
X119377D01*
X119230Y87041D01*
X119099Y87048D01*
X118982Y87070D01*
X118886Y87092D01*
X118806Y87106D01*
X118747Y87128D01*
X118718Y87136D01*
X118703Y87143D01*
X118616Y87194D01*
X118542Y87246D01*
X118476Y87297D01*
X118433Y87355D01*
X118396Y87399D01*
X118374Y87436D01*
X118359Y87465D01*
X118352Y87472D01*
X118315Y87560D01*
X118293Y87670D01*
X118272Y87780D01*
X118264Y87890D01*
X118257Y87992D01*
X118250Y88073D01*
Y88102D01*
Y88124D01*
Y88139D01*
Y88146D01*
Y88570D01*
Y88731D01*
X118257Y88871D01*
X118264Y88980D01*
X118272Y89075D01*
X118286Y89149D01*
X118293Y89200D01*
X118301Y89236D01*
Y89244D01*
X118323Y89324D01*
X118352Y89398D01*
X118381Y89456D01*
X118418Y89507D01*
X118447Y89551D01*
X118469Y89581D01*
X118484Y89603D01*
X118491Y89610D01*
X118550Y89661D01*
X118616Y89712D01*
X118755Y89785D01*
X118813Y89807D01*
X118864Y89829D01*
X118894Y89844D01*
X118908D01*
X119026Y89873D01*
X119150Y89895D01*
X119282Y89910D01*
X119413Y89925D01*
X119523D01*
X119574Y89932D01*
X120973D01*
Y85079D01*
D02*
G37*
G36*
X31196Y82685D02*
Y82539D01*
Y82407D01*
Y82283D01*
X31189Y82173D01*
Y82070D01*
Y81982D01*
X31182Y81909D01*
Y81843D01*
Y81785D01*
X31174Y81734D01*
Y81697D01*
Y81660D01*
X31167Y81638D01*
Y81624D01*
Y81609D01*
X31152Y81514D01*
X31123Y81426D01*
X31094Y81338D01*
X31057Y81265D01*
X31028Y81206D01*
X30999Y81163D01*
X30984Y81126D01*
X30977Y81119D01*
X30904Y81038D01*
X30830Y80965D01*
X30743Y80899D01*
X30662Y80848D01*
X30589Y80804D01*
X30530Y80774D01*
X30494Y80753D01*
X30479Y80745D01*
X30347Y80701D01*
X30216Y80665D01*
X30091Y80643D01*
X29967Y80621D01*
X29864Y80613D01*
X29784Y80606D01*
X29711D01*
X29564Y80613D01*
X29440Y80628D01*
X29322Y80643D01*
X29220Y80665D01*
X29140Y80687D01*
X29081Y80709D01*
X29044Y80716D01*
X29030Y80723D01*
X28927Y80774D01*
X28832Y80833D01*
X28752Y80892D01*
X28686Y80950D01*
X28634Y81002D01*
X28591Y81045D01*
X28569Y81075D01*
X28561Y81082D01*
X28503Y81170D01*
X28451Y81250D01*
X28407Y81331D01*
X28386Y81397D01*
X28364Y81455D01*
X28349Y81499D01*
X28342Y81529D01*
Y81536D01*
X28334Y81580D01*
X28327Y81631D01*
X28320Y81755D01*
X28312Y81880D01*
Y82012D01*
X28305Y82129D01*
Y82180D01*
Y82224D01*
Y82261D01*
Y82290D01*
Y82304D01*
Y82312D01*
Y85562D01*
X29564D01*
Y81982D01*
Y81858D01*
X29571Y81755D01*
X29579Y81675D01*
Y81616D01*
X29586Y81572D01*
X29593Y81543D01*
X29601Y81529D01*
Y81521D01*
X29615Y81492D01*
X29645Y81470D01*
X29696Y81441D01*
X29740Y81426D01*
X29762D01*
X29798Y81433D01*
X29828Y81441D01*
X29879Y81470D01*
X29901Y81499D01*
X29908Y81514D01*
X29915Y81558D01*
X29923Y81616D01*
X29930Y81682D01*
Y81748D01*
X29937Y81814D01*
Y81865D01*
Y81902D01*
Y81916D01*
Y85562D01*
X31196D01*
Y82685D01*
D02*
G37*
G36*
X114597Y95236D02*
X113338D01*
Y97425D01*
X113250Y97418D01*
X113177Y97410D01*
X113118Y97396D01*
X113074Y97381D01*
X113045Y97359D01*
X113023Y97344D01*
X113008Y97337D01*
Y97330D01*
X112987Y97278D01*
X112972Y97213D01*
X112957Y97132D01*
X112950Y97052D01*
X112943Y96971D01*
Y96912D01*
Y96861D01*
Y96854D01*
Y96847D01*
Y95236D01*
X111771D01*
Y96510D01*
Y96612D01*
Y96708D01*
Y96795D01*
X111779Y96876D01*
Y96942D01*
X111786Y97000D01*
Y97052D01*
Y97088D01*
X111793Y97154D01*
X111801Y97198D01*
X111808Y97220D01*
Y97227D01*
X111823Y97278D01*
X111845Y97330D01*
X111896Y97418D01*
X111925Y97454D01*
X111947Y97483D01*
X111962Y97505D01*
X111969Y97513D01*
X112028Y97571D01*
X112101Y97623D01*
X112181Y97667D01*
X112269Y97703D01*
X112350Y97732D01*
X112416Y97754D01*
X112459Y97762D01*
X112467Y97769D01*
X112474D01*
X112328Y97791D01*
X112211Y97820D01*
X112115Y97857D01*
X112042Y97893D01*
X111984Y97937D01*
X111947Y97967D01*
X111925Y97988D01*
X111918Y97996D01*
X111889Y98040D01*
X111866Y98084D01*
X111830Y98201D01*
X111808Y98325D01*
X111786Y98450D01*
X111779Y98567D01*
Y98618D01*
X111771Y98669D01*
Y98706D01*
Y98735D01*
Y98750D01*
Y98757D01*
Y98867D01*
X111779Y98977D01*
X111793Y99072D01*
X111801Y99160D01*
X111815Y99240D01*
X111837Y99321D01*
X111852Y99387D01*
X111874Y99445D01*
X111910Y99540D01*
X111947Y99614D01*
X111969Y99650D01*
X111976Y99665D01*
X112057Y99760D01*
X112137Y99840D01*
X112225Y99899D01*
X112313Y99950D01*
X112386Y99980D01*
X112445Y100002D01*
X112481Y100016D01*
X112496D01*
X112562Y100031D01*
X112635Y100038D01*
X112723Y100053D01*
X112818Y100060D01*
X113016Y100075D01*
X113221Y100082D01*
X113316D01*
X113404Y100089D01*
X114597D01*
Y95236D01*
D02*
G37*
G36*
X117891D02*
X116632D01*
Y97315D01*
X116119Y95236D01*
X114816D01*
X115607Y97893D01*
X114882Y100089D01*
X116061D01*
X116632Y98201D01*
Y100089D01*
X117891D01*
Y95236D01*
D02*
G37*
G36*
X108387Y148342D02*
X108587Y148269D01*
X108896Y148136D01*
X109003Y148075D01*
X109198Y147963D01*
X109224Y147949D01*
X109224Y147949D01*
X109225Y147949D01*
X109320Y147894D01*
X109864Y147582D01*
X109864Y147582D01*
X109864Y147582D01*
X110698Y147103D01*
X111708Y146525D01*
X111708Y146525D01*
X111708Y146525D01*
X111708Y146525D01*
X112126Y146285D01*
X112457Y146096D01*
X112874Y145857D01*
X112874Y145858D01*
X113761Y145350D01*
X114176Y145113D01*
X114177Y145113D01*
X114177Y145112D01*
X114592Y144875D01*
X115185Y144537D01*
X115597Y144302D01*
X115597D01*
X115597Y144302D01*
X115598Y144302D01*
X116322Y143889D01*
X116728Y143657D01*
X116736Y143652D01*
X116771Y143633D01*
X117114Y143437D01*
X117115Y143437D01*
X117115Y143437D01*
X117373Y143255D01*
X117608Y143055D01*
X117862Y142736D01*
X118035Y142344D01*
X118100Y142062D01*
X118142Y141803D01*
X118141Y141747D01*
X118141Y141747D01*
X118143Y141482D01*
X118146Y141200D01*
Y141200D01*
X118150Y141200D01*
X118141Y136806D01*
Y135302D01*
X118132Y135221D01*
X118104Y134996D01*
X118081Y134941D01*
X117998Y134763D01*
X117919Y134684D01*
X117787Y134571D01*
X117585Y134492D01*
X117556Y134481D01*
X117359Y134462D01*
X117219Y134450D01*
X117000Y134449D01*
X113505Y134450D01*
X113498D01*
X113043Y134450D01*
X113043D01*
X113042Y134446D01*
X112581Y134450D01*
X112271Y134453D01*
X111787Y134458D01*
X111786Y134458D01*
X111784Y134458D01*
X111579Y134447D01*
X111559Y134446D01*
X111557Y134446D01*
X111536Y134444D01*
X111535Y134444D01*
X111535Y134444D01*
X111296Y134403D01*
X111247Y134394D01*
X111247Y134394D01*
X111230Y134384D01*
X111173Y134352D01*
X111173Y134352D01*
X111020Y134264D01*
Y134264D01*
X111020Y134264D01*
X111020D01*
X110905Y134029D01*
Y134029D01*
Y134029D01*
X110905Y134029D01*
X110898Y133969D01*
X110872Y133739D01*
X110872Y133736D01*
X110872Y133736D01*
X110872Y133736D01*
X110872Y133642D01*
X110872Y133642D01*
X110872Y133642D01*
Y133642D01*
X110872Y133562D01*
X110872Y133531D01*
X110873Y133391D01*
X110874Y133176D01*
X110874Y133088D01*
X110878Y132369D01*
X110878Y132369D01*
X110878Y132369D01*
X110887Y131291D01*
X110887Y131290D01*
X110887Y131290D01*
X110894Y130790D01*
X110894Y130780D01*
X110900Y130328D01*
Y130328D01*
X110904Y130327D01*
X110904Y130243D01*
X110905Y130067D01*
X110905Y130008D01*
X110905Y130008D01*
Y130007D01*
Y130007D01*
X110905Y130007D01*
Y130007D01*
X110905Y130007D01*
X110905Y130007D01*
X110906Y129966D01*
X110906Y129939D01*
X110906Y129939D01*
X110906Y129939D01*
Y129938D01*
X110906Y129938D01*
X110906Y129938D01*
X110906Y129938D01*
X110912Y129904D01*
Y129904D01*
X110912Y129904D01*
X110913Y129901D01*
X110913Y129900D01*
X110913Y129900D01*
X110913Y129900D01*
X110915Y129890D01*
X110916Y129885D01*
X110916Y129884D01*
Y129884D01*
X110916D01*
Y129884D01*
X110917Y129875D01*
X110918Y129875D01*
X110918Y129869D01*
X110919Y129867D01*
Y129867D01*
X110929Y129810D01*
X110934Y129780D01*
X110937Y129767D01*
X110937Y129767D01*
X110940Y129750D01*
X110942Y129740D01*
X110943Y129736D01*
Y129736D01*
X110943Y129736D01*
X110974Y129693D01*
X111019Y129633D01*
Y129633D01*
X111020Y129633D01*
X111038Y129607D01*
Y129607D01*
X111038Y129607D01*
X111038D01*
X111170Y129591D01*
X111206Y129586D01*
X111206Y129586D01*
X111206D01*
X111206Y129586D01*
X111206D01*
X111209Y129587D01*
X111216Y129589D01*
X111223Y129591D01*
X111231Y129593D01*
X111255Y129601D01*
X111279Y129607D01*
X111279Y129607D01*
X111283Y129609D01*
X111300Y129614D01*
X111301Y129614D01*
X111311Y129617D01*
X111313Y129617D01*
X111322Y129620D01*
X111326Y129621D01*
X111326D01*
X111329Y129622D01*
X111350Y129628D01*
X111350Y129628D01*
X111352Y129629D01*
X111373Y129635D01*
X111373D01*
X111395Y129641D01*
X111395D01*
X111412Y129646D01*
X111414Y129647D01*
X111414Y129647D01*
X111415Y129647D01*
X111415D01*
X111455Y129666D01*
X111462Y129669D01*
X111464Y129670D01*
X111506Y129689D01*
X111592Y129729D01*
X111635Y129748D01*
X111635Y129749D01*
X111635Y129749D01*
X111635Y129749D01*
X111636Y129749D01*
X111636D01*
X111636Y129749D01*
X111636D01*
Y129749D01*
X112074Y129967D01*
X112076Y129968D01*
X112352Y130105D01*
X112402Y130130D01*
X112402Y130130D01*
X112403Y130130D01*
X112403Y130130D01*
X112404Y130131D01*
X112838Y130328D01*
X112887Y130350D01*
X113295Y130520D01*
X113348Y130543D01*
X113348Y130543D01*
X113349Y130543D01*
X113423Y130570D01*
X113496Y130596D01*
X113496Y130596D01*
X113795Y130750D01*
X113919Y130815D01*
X114318Y131181D01*
X114404Y131381D01*
X114526Y131666D01*
X114530Y131774D01*
X114532Y131827D01*
X114554Y132313D01*
X114570Y132406D01*
X114654Y132577D01*
X114682Y132622D01*
X114814Y132719D01*
X115028Y132779D01*
X115092Y132783D01*
X115250Y132792D01*
X117237Y132792D01*
X117405Y132792D01*
X117632Y132776D01*
X117820Y132721D01*
X117950Y132638D01*
X117952Y132636D01*
X118081Y132455D01*
X118139Y132249D01*
X118153Y132053D01*
X118153Y131875D01*
X118153Y131836D01*
X118158Y130970D01*
X118160Y130664D01*
X118154Y130417D01*
X118117Y130085D01*
X118110Y130048D01*
X118064Y129869D01*
X118025Y129718D01*
X117884Y129403D01*
X117873Y129377D01*
X117868Y129367D01*
X117868Y129366D01*
X117868Y129366D01*
X117694Y129148D01*
X117604Y129035D01*
X117388Y128844D01*
X117356Y128820D01*
X117052Y128611D01*
X117042Y128606D01*
X117042Y128605D01*
X116838Y128486D01*
X116413Y128240D01*
X116233Y128136D01*
X115807Y127889D01*
X115806Y127888D01*
X115805Y127888D01*
X115798Y127884D01*
X115382Y127645D01*
X115263Y127576D01*
X114994Y127422D01*
X114994Y127421D01*
X114994Y127421D01*
X114994Y127421D01*
X114286Y127015D01*
X113431Y126522D01*
X113431Y126522D01*
X113431Y126522D01*
X112443Y125953D01*
X112443D01*
X112443Y125953D01*
X112443Y125953D01*
X112026Y125713D01*
X111339Y125316D01*
X111339Y125316D01*
X111339Y125316D01*
X110138Y124621D01*
X110138D01*
X110138Y124621D01*
X110138Y124621D01*
X109722Y124379D01*
X109583Y124299D01*
X109182Y124066D01*
X109174Y124062D01*
X109142Y124043D01*
X108962Y123940D01*
X108763Y123839D01*
X108536Y123750D01*
X108449Y123722D01*
X108396Y123706D01*
X108258Y123688D01*
X108051Y123682D01*
X107965Y123695D01*
X107885Y123714D01*
X107758Y123755D01*
X107681Y123786D01*
X107542Y123856D01*
X107474Y123913D01*
X107473Y123914D01*
X107348Y124043D01*
X107270Y124138D01*
X107253Y124159D01*
X107191Y124294D01*
X107112Y124517D01*
X107099Y124585D01*
X107086Y124668D01*
X107069Y124821D01*
X107058Y125110D01*
Y125110D01*
Y125110D01*
Y125110D01*
X107058Y125113D01*
X107058Y125176D01*
X107060Y125566D01*
Y125566D01*
Y125566D01*
X107060Y126066D01*
X107064Y126479D01*
Y126479D01*
Y126479D01*
X107064Y126710D01*
X107065Y127209D01*
X107065Y127211D01*
Y127211D01*
X107065Y127223D01*
X107066Y127357D01*
X107069Y127671D01*
X107069Y127707D01*
X107068Y128115D01*
X107071Y128614D01*
X107071Y128614D01*
Y128614D01*
X107074Y129113D01*
Y129113D01*
Y129113D01*
Y129114D01*
X107074Y129613D01*
X107075Y129818D01*
X107078Y130317D01*
X107079Y130464D01*
X107081Y130779D01*
X107081Y130815D01*
X107080Y131279D01*
X107088Y132639D01*
X107092Y133705D01*
X107094Y134204D01*
X107094Y134213D01*
Y134214D01*
X107094Y134242D01*
X107095Y134351D01*
X107096Y134666D01*
X107096Y134702D01*
X107095Y135165D01*
X107096Y135330D01*
X107099Y135828D01*
X107099Y135842D01*
X107099Y135843D01*
X107099Y135879D01*
X107100Y135976D01*
X107102Y136290D01*
X107102Y136326D01*
X107102Y136658D01*
X107105Y136793D01*
X107114Y136919D01*
X107129Y137046D01*
X107145Y137138D01*
X107158Y137177D01*
X107200Y137276D01*
X107256Y137369D01*
X107328Y137448D01*
X107403Y137508D01*
X107520Y137576D01*
X107633Y137612D01*
X107652Y137615D01*
X107832Y137638D01*
X107982Y137648D01*
X108175Y137651D01*
X108192Y137651D01*
X113957Y137648D01*
X114218Y137682D01*
X114425Y137794D01*
X114534Y138007D01*
X114566Y138272D01*
Y138360D01*
X114566Y138530D01*
X114545Y139430D01*
X114545Y139450D01*
X114544Y139495D01*
X114544Y139497D01*
X114535Y139893D01*
Y139893D01*
X114533Y139919D01*
X114531Y139945D01*
X114532Y139970D01*
X114532Y140018D01*
Y140018D01*
X114532Y140092D01*
X114535Y140405D01*
Y140405D01*
X114535Y140405D01*
X114535Y140405D01*
X114535Y140443D01*
X114535Y140451D01*
X114537Y140470D01*
X114511Y140629D01*
X114505Y140663D01*
X114505Y140664D01*
X114433Y140821D01*
X114412Y140869D01*
X114400Y140895D01*
X114382Y140916D01*
X114231Y141086D01*
X114231Y141086D01*
X114231Y141086D01*
X114229Y141087D01*
X114067Y141195D01*
X113908Y141267D01*
X113861Y141288D01*
X113588Y141416D01*
X113563Y141427D01*
X113347Y141529D01*
X111961Y142183D01*
X111716Y142298D01*
X111716Y142298D01*
X111716Y142298D01*
X111606Y142349D01*
X111539Y142380D01*
X111508Y142394D01*
X111508D01*
X111474Y142410D01*
X111474D01*
X111439Y142426D01*
X111439D01*
X111425Y142429D01*
X111425D01*
X111395Y142438D01*
X111342Y142452D01*
X111342Y142452D01*
X111255Y142476D01*
X111242Y142480D01*
X111224Y142485D01*
X111221Y142485D01*
X111221D01*
X111221Y142485D01*
X111221Y142485D01*
X111191Y142480D01*
X111187Y142479D01*
X111155Y142474D01*
X111053Y142455D01*
X111049Y142454D01*
X111049Y142454D01*
Y142454D01*
X111049Y142454D01*
X110953Y142302D01*
X110949Y142274D01*
X110948Y142269D01*
X110935Y142179D01*
X110928Y142128D01*
X110928Y142128D01*
X110919Y142067D01*
X110919Y142066D01*
X110919Y142066D01*
Y142066D01*
Y141603D01*
Y141496D01*
Y141496D01*
X110923Y141496D01*
X110916Y140310D01*
X110915Y140060D01*
X110911Y139984D01*
X110894Y139801D01*
X110873Y139715D01*
X110838Y139625D01*
X110783Y139522D01*
X110763Y139496D01*
X110625Y139388D01*
X110576Y139362D01*
X110446Y139315D01*
X110410Y139306D01*
X110386Y139300D01*
X110268Y139292D01*
X110127Y139286D01*
X110127D01*
X110127Y139286D01*
Y139286D01*
X109891Y139286D01*
X108352Y139286D01*
X107857Y139286D01*
X107857D01*
X107392Y139363D01*
X107331Y139393D01*
X107212Y139489D01*
X107168Y139540D01*
X107123Y139627D01*
X107099Y139674D01*
X107056Y139809D01*
X107052Y139861D01*
X107039Y140069D01*
X107040Y140173D01*
Y140173D01*
Y140173D01*
X107040Y140329D01*
X107037Y142149D01*
X107037Y142621D01*
Y142621D01*
X107033Y142621D01*
X107037Y143508D01*
X107037D01*
Y143508D01*
X107029Y143970D01*
X107032Y146702D01*
Y146703D01*
X107032Y146878D01*
X107034Y147172D01*
X107115Y147630D01*
X107153Y147770D01*
X107166Y147816D01*
X107173Y147842D01*
X107173Y147842D01*
X107173Y147842D01*
X107365Y148063D01*
X107566Y148277D01*
X108007Y148384D01*
X108061Y148396D01*
X108115Y148408D01*
X108116Y148408D01*
X108387Y148342D01*
D02*
G37*
G36*
X104824Y148355D02*
X104975Y148310D01*
X105090Y148263D01*
X105173Y148202D01*
X105182Y148195D01*
X105321Y148066D01*
X105407Y147968D01*
X105460Y147890D01*
X105533Y147739D01*
X105602Y147523D01*
X105650Y147156D01*
X105650Y147069D01*
X105648Y146656D01*
X105648Y146589D01*
X105641Y145148D01*
X105641Y145148D01*
X105641Y145148D01*
X105634Y143351D01*
X105634Y143351D01*
X105634D01*
X105634Y143351D01*
X105632Y142879D01*
X105628Y141702D01*
X105628Y141702D01*
X105628D01*
X105628Y141702D01*
X105626Y141230D01*
X105623Y140225D01*
X105623Y140225D01*
X105623D01*
X105620Y138946D01*
X105620Y138946D01*
X105620D01*
X105617Y137889D01*
X105618Y137579D01*
X105615Y137079D01*
Y137079D01*
Y137079D01*
X105615Y137078D01*
X105614Y136675D01*
Y136675D01*
X105613Y136540D01*
X105613Y136175D01*
Y135482D01*
X105644Y133156D01*
X105647Y132658D01*
Y132658D01*
X105648Y132305D01*
X105648Y132158D01*
X105652Y125207D01*
X105649Y124969D01*
X105646Y124731D01*
Y124731D01*
X105646Y124730D01*
X105646Y124730D01*
X105635Y124687D01*
X105620Y124631D01*
X105620Y124629D01*
X105502Y124201D01*
X105346Y124020D01*
X105112Y123767D01*
X104787Y123692D01*
X104526Y123642D01*
X104526Y123642D01*
X104440Y123665D01*
X104276Y123709D01*
X104013Y123806D01*
X103746Y123924D01*
X103408Y124120D01*
X103311Y124177D01*
X102969Y124377D01*
X102731Y124516D01*
X102731Y124517D01*
X102643Y124563D01*
X102422Y124711D01*
X102225Y124880D01*
X102002Y125139D01*
X101941Y125285D01*
X101870Y125468D01*
X101821Y125707D01*
X101791Y125975D01*
X101789Y125997D01*
X101789Y125997D01*
X101789Y125997D01*
X101789D01*
X101789Y126486D01*
Y135816D01*
X101789Y136281D01*
Y136281D01*
Y136281D01*
Y136328D01*
Y136651D01*
Y136718D01*
Y136741D01*
Y136763D01*
Y136764D01*
Y136807D01*
Y136817D01*
Y136837D01*
Y136856D01*
Y136926D01*
Y136928D01*
Y136961D01*
Y136996D01*
Y136997D01*
Y137004D01*
Y137013D01*
Y137032D01*
Y137050D01*
Y137089D01*
Y137089D01*
Y137089D01*
X101789Y137089D01*
X101789D01*
X101785Y137086D01*
X101774Y137076D01*
X101769Y137072D01*
X101724Y137033D01*
X101661Y136978D01*
X101653Y136969D01*
X101652Y136967D01*
X101639Y136951D01*
X101631Y136941D01*
X101631Y136941D01*
X101612Y136916D01*
X101584Y136880D01*
X101546Y136832D01*
X101546Y136832D01*
X101546Y136832D01*
X101546Y136831D01*
X101545Y136831D01*
X101544Y136830D01*
X101544Y136830D01*
X101542Y136828D01*
X101535Y136818D01*
X101525Y136805D01*
X101523Y136803D01*
X101523Y136802D01*
X101458Y136697D01*
X101436Y136663D01*
X101424Y136644D01*
Y136644D01*
X101305Y136448D01*
X101289Y136421D01*
X101047Y136023D01*
X100936Y135851D01*
X100913Y135815D01*
X100855Y135726D01*
X100739Y135553D01*
X100576Y135318D01*
X100528Y135255D01*
X100450Y135155D01*
X100437Y135141D01*
X100306Y134991D01*
X100288Y134975D01*
X100195Y134892D01*
X100046Y134810D01*
X100016Y134801D01*
X99812Y134769D01*
X99696Y134800D01*
X99614Y134836D01*
X99510Y134900D01*
X99362Y135052D01*
X99312Y135114D01*
X99029Y135485D01*
X99028Y135486D01*
X99028Y135486D01*
X99028Y135487D01*
X99027Y135487D01*
X99027D01*
X98738Y135833D01*
X98724Y135849D01*
X98690Y135890D01*
X98687Y135895D01*
X98686Y135895D01*
X98686Y135895D01*
X98684Y135897D01*
X98563Y136033D01*
X98362Y136257D01*
X98344Y136277D01*
X98342Y136280D01*
X98327Y136296D01*
X98327Y136296D01*
X98327Y136296D01*
X98327Y136296D01*
X98327Y136296D01*
X98311Y136314D01*
X98308Y136318D01*
X98302Y136325D01*
X98302Y136325D01*
X98289Y136340D01*
X98286Y136344D01*
X98279Y136352D01*
X98279Y136352D01*
X98279D01*
X98279Y136352D01*
X98279Y136352D01*
X98279Y136352D01*
X98279Y136352D01*
X98153Y136309D01*
X98153Y136309D01*
Y136309D01*
X98153Y136309D01*
Y136309D01*
X98153Y136309D01*
X98153Y136309D01*
X98153Y136309D01*
Y136309D01*
Y136309D01*
X98153Y136296D01*
Y136290D01*
Y136276D01*
Y136276D01*
Y136250D01*
Y136240D01*
Y136199D01*
Y136195D01*
Y136194D01*
X98153Y136194D01*
X98153Y135804D01*
Y135739D01*
Y135739D01*
X98153Y135260D01*
Y131920D01*
X98175Y129322D01*
X98175Y128823D01*
Y128823D01*
X98175D01*
X98178Y128200D01*
X98176Y127964D01*
X98158Y127759D01*
X98122Y127665D01*
X97762Y127454D01*
X97761Y127454D01*
X97716Y127457D01*
X97658Y127467D01*
X97516Y127528D01*
X97422Y127571D01*
X96231Y128258D01*
X95802Y128506D01*
X95640Y128601D01*
X95639Y128601D01*
X95524Y128664D01*
X95163Y128953D01*
X95103Y129031D01*
X94813Y129411D01*
X94813Y129411D01*
X94773Y129511D01*
X94613Y129919D01*
X94599Y130005D01*
X94583Y130111D01*
X94548Y130522D01*
X94548Y130522D01*
X94548D01*
X94548Y130524D01*
X94548D01*
X94547Y131013D01*
X94544Y134618D01*
X94548Y135115D01*
Y135115D01*
X94548Y135116D01*
X94557Y135615D01*
X94578Y136744D01*
X94583Y137006D01*
X94582Y137502D01*
Y138345D01*
X94555Y140328D01*
X94553Y140826D01*
Y140826D01*
X94552D01*
Y141291D01*
X94553Y141631D01*
X94554Y141648D01*
X94577Y141872D01*
X94583Y141936D01*
X94627Y142156D01*
X94678Y142314D01*
X94743Y142497D01*
X94837Y142658D01*
X94912Y142776D01*
X95071Y142976D01*
X95173Y143084D01*
X95269Y143178D01*
X95362Y143245D01*
X95487Y143323D01*
X95638Y143395D01*
X95711Y143421D01*
X95742Y143431D01*
X95871Y143441D01*
X95984Y143448D01*
X96122Y143429D01*
X96246Y143384D01*
X96391Y143305D01*
X96538Y143205D01*
X96772Y142999D01*
X96790Y142983D01*
X96960Y142821D01*
X98585Y141279D01*
X98751Y141119D01*
X98750Y141119D01*
X98750Y141118D01*
X98750Y141118D01*
Y141118D01*
X98750Y141118D01*
X98750Y141118D01*
X98750Y141118D01*
Y141118D01*
X98750Y141118D01*
X98750Y141118D01*
X98821Y141050D01*
X98976Y140903D01*
X98976Y140903D01*
X98977Y140902D01*
X98977Y140902D01*
X98977Y140902D01*
X98978Y140902D01*
X98979Y140901D01*
X98979Y140901D01*
X98979Y140901D01*
X98979Y140901D01*
X99007Y140877D01*
X99042Y140847D01*
X99042Y140847D01*
X99042Y140847D01*
X99055Y140836D01*
X99065Y140828D01*
X99074Y140820D01*
X99075Y140820D01*
X99075Y140820D01*
X99093Y140804D01*
X99106Y140794D01*
X99114Y140787D01*
X99136Y140769D01*
X99136Y140768D01*
X99136Y140768D01*
X99137Y140768D01*
X99139Y140766D01*
X99140Y140765D01*
X99142Y140763D01*
X99142Y140763D01*
X99142Y140763D01*
X99144Y140761D01*
X99145Y140761D01*
X99147Y140759D01*
X99147Y140759D01*
X99147Y140759D01*
X99149Y140757D01*
X99150Y140756D01*
X99152Y140755D01*
X99152Y140755D01*
X99241Y140681D01*
X99285Y140645D01*
X99300Y140632D01*
X99316Y140619D01*
X99322Y140614D01*
X99339Y140600D01*
X99339Y140600D01*
X99339Y140600D01*
X99339Y140600D01*
X99339Y140600D01*
X99339Y140600D01*
X99339Y140600D01*
X99339Y140600D01*
X99339D01*
X99339Y140600D01*
X99339D01*
Y140600D01*
X99339D01*
X99344Y140607D01*
X99347Y140612D01*
X99353Y140623D01*
Y140623D01*
X99353D01*
X99380Y140669D01*
X99382Y140672D01*
X99384Y140676D01*
X99434Y140760D01*
X99434Y140760D01*
X99437Y140765D01*
X99439Y140768D01*
X99439Y140769D01*
X99439Y140769D01*
X99441Y140773D01*
X99443Y140776D01*
X99444Y140777D01*
X99444Y140777D01*
X99445Y140779D01*
X99461Y140806D01*
X99476Y140832D01*
X99476Y140833D01*
X99477Y140834D01*
X99496Y140867D01*
X99497Y140868D01*
X99518Y140903D01*
X99518Y140905D01*
X99519Y140906D01*
X99519Y140906D01*
X99519Y140906D01*
X99519Y140906D01*
Y140906D01*
X99519Y140906D01*
X99519Y140906D01*
Y140906D01*
X99519Y140906D01*
X99519Y140906D01*
Y140906D01*
Y140906D01*
X99519Y140906D01*
X99519Y140906D01*
X99519Y140906D01*
X99519Y140906D01*
X99519D01*
X99519Y140906D01*
X99520Y140908D01*
X99520Y140908D01*
X99521Y140909D01*
X99521Y140909D01*
X99521Y140909D01*
X99522Y140911D01*
X99522Y140912D01*
X99524Y140915D01*
X99524Y140915D01*
X99524Y140915D01*
X99524Y140915D01*
X99524Y140916D01*
X99524Y140916D01*
X99524Y140916D01*
X99525Y140916D01*
X99525Y140916D01*
X99525Y140917D01*
X99525Y140918D01*
X99526Y140918D01*
X99526Y140918D01*
X99526Y140919D01*
X99526Y140919D01*
X99527Y140921D01*
X99528Y140921D01*
X99529Y140924D01*
X99529Y140924D01*
X99529Y140924D01*
X99531Y140927D01*
X99532Y140929D01*
X99534Y140933D01*
X99534Y140933D01*
X99534Y140934D01*
Y140934D01*
X99535Y140935D01*
X99574Y141008D01*
X99579Y141018D01*
X99809Y141446D01*
X99811Y141450D01*
Y141450D01*
X100047Y141890D01*
X102347Y146180D01*
X102582Y146617D01*
X102582Y146618D01*
X102647Y146735D01*
X102692Y146817D01*
X102892Y147166D01*
X103143Y147498D01*
X103264Y147650D01*
X103270Y147656D01*
X103466Y147843D01*
X103543Y147912D01*
X103683Y148040D01*
X103856Y148168D01*
X103899Y148199D01*
X104151Y148322D01*
X104187Y148335D01*
X104413Y148387D01*
X104615Y148395D01*
X104824Y148355D01*
D02*
G37*
G36*
X38209Y79940D02*
X34747D01*
Y80247D01*
X38209D01*
Y79940D01*
D02*
G37*
G36*
X120973Y95236D02*
X119714D01*
Y97191D01*
X119377D01*
X119230Y97198D01*
X119099Y97205D01*
X118982Y97227D01*
X118886Y97249D01*
X118806Y97264D01*
X118747Y97286D01*
X118718Y97293D01*
X118703Y97300D01*
X118616Y97352D01*
X118542Y97403D01*
X118476Y97454D01*
X118433Y97513D01*
X118396Y97557D01*
X118374Y97593D01*
X118359Y97623D01*
X118352Y97630D01*
X118315Y97718D01*
X118293Y97828D01*
X118272Y97937D01*
X118264Y98047D01*
X118257Y98150D01*
X118250Y98230D01*
Y98259D01*
Y98281D01*
Y98296D01*
Y98303D01*
Y98728D01*
Y98889D01*
X118257Y99028D01*
X118264Y99138D01*
X118272Y99233D01*
X118286Y99306D01*
X118293Y99357D01*
X118301Y99394D01*
Y99401D01*
X118323Y99482D01*
X118352Y99555D01*
X118381Y99614D01*
X118418Y99665D01*
X118447Y99709D01*
X118469Y99738D01*
X118484Y99760D01*
X118491Y99767D01*
X118550Y99819D01*
X118616Y99870D01*
X118755Y99943D01*
X118813Y99965D01*
X118864Y99987D01*
X118894Y100002D01*
X118908D01*
X119026Y100031D01*
X119150Y100053D01*
X119282Y100067D01*
X119413Y100082D01*
X119523D01*
X119574Y100089D01*
X120973D01*
Y95236D01*
D02*
G37*
G36*
X107899D02*
X106845D01*
Y97439D01*
X106186Y95236D01*
X105081D01*
Y100089D01*
X106135D01*
Y97901D01*
X106845Y100089D01*
X107899D01*
Y95236D01*
D02*
G37*
G36*
X33253Y85657D02*
X33392Y85642D01*
X33517Y85620D01*
X33619Y85598D01*
X33707Y85569D01*
X33773Y85547D01*
X33817Y85532D01*
X33824Y85525D01*
X33832D01*
X33941Y85474D01*
X34037Y85408D01*
X34124Y85342D01*
X34190Y85284D01*
X34249Y85225D01*
X34286Y85181D01*
X34315Y85152D01*
X34322Y85137D01*
X34381Y85042D01*
X34432Y84947D01*
X34468Y84852D01*
X34490Y84764D01*
X34512Y84691D01*
X34527Y84632D01*
X34534Y84596D01*
Y84581D01*
X34542Y84522D01*
Y84449D01*
X34549Y84295D01*
X34556Y84120D01*
Y83951D01*
X34564Y83798D01*
Y83724D01*
Y83666D01*
Y83622D01*
Y83578D01*
Y83556D01*
Y83549D01*
Y82714D01*
Y82583D01*
Y82458D01*
Y82341D01*
X34556Y82239D01*
Y82143D01*
Y82055D01*
X34549Y81982D01*
Y81909D01*
Y81851D01*
X34542Y81799D01*
Y81763D01*
Y81726D01*
X34534Y81697D01*
Y81682D01*
Y81675D01*
Y81668D01*
X34512Y81558D01*
X34483Y81455D01*
X34446Y81360D01*
X34410Y81280D01*
X34366Y81206D01*
X34337Y81155D01*
X34315Y81126D01*
X34307Y81111D01*
X34234Y81023D01*
X34146Y80943D01*
X34066Y80877D01*
X33985Y80826D01*
X33920Y80782D01*
X33861Y80753D01*
X33824Y80738D01*
X33810Y80731D01*
X33692Y80687D01*
X33568Y80657D01*
X33451Y80635D01*
X33341Y80621D01*
X33246Y80613D01*
X33173Y80606D01*
X33107D01*
X32961Y80613D01*
X32829Y80628D01*
X32704Y80650D01*
X32602Y80672D01*
X32514Y80694D01*
X32448Y80716D01*
X32412Y80731D01*
X32397Y80738D01*
X32287Y80789D01*
X32185Y80855D01*
X32104Y80914D01*
X32031Y80980D01*
X31980Y81031D01*
X31936Y81075D01*
X31914Y81111D01*
X31907Y81119D01*
X31848Y81214D01*
X31797Y81316D01*
X31753Y81404D01*
X31731Y81492D01*
X31709Y81565D01*
X31694Y81624D01*
X31687Y81660D01*
Y81675D01*
X31680Y81741D01*
X31672Y81807D01*
X31665Y81968D01*
X31658Y82136D01*
Y82312D01*
X31650Y82465D01*
Y82539D01*
Y82597D01*
Y82648D01*
Y82685D01*
Y82707D01*
Y82714D01*
Y83549D01*
Y83681D01*
Y83805D01*
Y83922D01*
X31658Y84025D01*
Y84120D01*
X31665Y84208D01*
Y84288D01*
Y84354D01*
X31672Y84413D01*
Y84464D01*
X31680Y84500D01*
Y84537D01*
X31687Y84566D01*
Y84581D01*
Y84596D01*
X31709Y84705D01*
X31738Y84808D01*
X31775Y84903D01*
X31811Y84983D01*
X31848Y85057D01*
X31885Y85108D01*
X31907Y85137D01*
X31914Y85152D01*
X31987Y85240D01*
X32075Y85320D01*
X32155Y85386D01*
X32236Y85437D01*
X32302Y85481D01*
X32360Y85511D01*
X32397Y85525D01*
X32412Y85532D01*
X32529Y85576D01*
X32653Y85606D01*
X32763Y85635D01*
X32873Y85650D01*
X32968Y85657D01*
X33041Y85664D01*
X33107D01*
X33253Y85657D01*
D02*
G37*
G36*
X107899Y85079D02*
X106640D01*
Y87033D01*
X106303D01*
X106157Y87041D01*
X106025Y87048D01*
X105908Y87070D01*
X105813Y87092D01*
X105732Y87106D01*
X105674Y87128D01*
X105645Y87136D01*
X105630Y87143D01*
X105542Y87194D01*
X105469Y87246D01*
X105403Y87297D01*
X105359Y87355D01*
X105322Y87399D01*
X105300Y87436D01*
X105286Y87465D01*
X105279Y87472D01*
X105242Y87560D01*
X105220Y87670D01*
X105198Y87780D01*
X105191Y87890D01*
X105183Y87992D01*
X105176Y88073D01*
Y88102D01*
Y88124D01*
Y88139D01*
Y88146D01*
Y88570D01*
Y88731D01*
X105183Y88871D01*
X105191Y88980D01*
X105198Y89075D01*
X105213Y89149D01*
X105220Y89200D01*
X105227Y89236D01*
Y89244D01*
X105249Y89324D01*
X105279Y89398D01*
X105308Y89456D01*
X105344Y89507D01*
X105374Y89551D01*
X105396Y89581D01*
X105410Y89603D01*
X105418Y89610D01*
X105476Y89661D01*
X105542Y89712D01*
X105681Y89785D01*
X105740Y89807D01*
X105791Y89829D01*
X105820Y89844D01*
X105835D01*
X105952Y89873D01*
X106076Y89895D01*
X106208Y89910D01*
X106340Y89925D01*
X106450D01*
X106501Y89932D01*
X107899D01*
Y85079D01*
D02*
G37*
G36*
X42917Y24549D02*
X42171D01*
Y20669D01*
X40912D01*
Y24549D01*
X40158D01*
Y25523D01*
X42917D01*
Y24549D01*
D02*
G37*
G36*
X46109Y20669D02*
X44806D01*
X44733Y21540D01*
X44279D01*
X44206Y20669D01*
X42917D01*
X43649Y25523D01*
X45465D01*
X46109Y20669D01*
D02*
G37*
G36*
X49213D02*
X47617D01*
X47492Y20677D01*
X47383D01*
X47280Y20684D01*
X47185Y20691D01*
X47104Y20699D01*
X47031Y20706D01*
X46965Y20713D01*
X46914Y20720D01*
X46863Y20728D01*
X46826D01*
X46797Y20735D01*
X46775Y20742D01*
X46760Y20750D01*
X46746D01*
X46658Y20786D01*
X46585Y20838D01*
X46526Y20889D01*
X46475Y20947D01*
X46438Y20991D01*
X46409Y21035D01*
X46394Y21065D01*
X46387Y21072D01*
X46350Y21174D01*
X46321Y21292D01*
X46299Y21409D01*
X46285Y21526D01*
X46277Y21635D01*
X46270Y21723D01*
Y21760D01*
Y21782D01*
Y21797D01*
Y21804D01*
Y22250D01*
X46277Y22419D01*
X46292Y22558D01*
X46321Y22682D01*
X46350Y22777D01*
X46380Y22858D01*
X46409Y22909D01*
X46424Y22946D01*
X46431Y22953D01*
X46497Y23034D01*
X46585Y23107D01*
X46687Y23158D01*
X46782Y23209D01*
X46878Y23239D01*
X46951Y23268D01*
X46980Y23275D01*
X47002D01*
X47017Y23282D01*
X47024D01*
X46885Y23319D01*
X46775Y23363D01*
X46680Y23400D01*
X46614Y23444D01*
X46563Y23480D01*
X46526Y23509D01*
X46504Y23531D01*
X46497Y23539D01*
X46453Y23612D01*
X46416Y23700D01*
X46394Y23802D01*
X46372Y23897D01*
X46365Y23985D01*
X46358Y24066D01*
Y24095D01*
Y24110D01*
Y24124D01*
Y24132D01*
Y24249D01*
X46365Y24351D01*
X46372Y24454D01*
X46387Y24542D01*
X46402Y24629D01*
X46416Y24703D01*
X46438Y24769D01*
X46453Y24827D01*
X46468Y24878D01*
X46490Y24922D01*
X46519Y24995D01*
X46541Y25032D01*
X46548Y25047D01*
X46621Y25142D01*
X46709Y25230D01*
X46790Y25295D01*
X46870Y25347D01*
X46936Y25383D01*
X46995Y25405D01*
X47031Y25420D01*
X47046Y25427D01*
X47170Y25457D01*
X47317Y25486D01*
X47470Y25501D01*
X47617Y25508D01*
X47749Y25515D01*
X47807Y25523D01*
X49213D01*
Y20669D01*
D02*
G37*
G36*
X33160D02*
X30964D01*
Y21643D01*
X31901D01*
Y22704D01*
X31103D01*
Y23627D01*
X31901D01*
Y24549D01*
X31052D01*
Y25523D01*
X33160D01*
Y20669D01*
D02*
G37*
G36*
X42323Y70866D02*
X41217D01*
Y74065D01*
X40749Y70866D01*
X39973D01*
X39541Y74138D01*
X39534Y70866D01*
X38429D01*
Y75719D01*
X40076D01*
X40368Y73450D01*
X40544Y74687D01*
X40573Y74900D01*
X40603Y75097D01*
X40625Y75273D01*
X40654Y75427D01*
X40661Y75492D01*
X40668Y75551D01*
X40676Y75602D01*
X40683Y75639D01*
X40690Y75675D01*
X40698Y75697D01*
Y75712D01*
Y75719D01*
X42323D01*
Y70866D01*
D02*
G37*
G36*
X33341Y75807D02*
X33524Y75778D01*
X33685Y75741D01*
X33817Y75690D01*
X33920Y75639D01*
X33963Y75617D01*
X34000Y75602D01*
X34029Y75580D01*
X34051Y75573D01*
X34059Y75558D01*
X34066D01*
X34183Y75456D01*
X34278Y75361D01*
X34351Y75258D01*
X34410Y75170D01*
X34446Y75097D01*
X34476Y75031D01*
X34483Y74995D01*
X34490Y74987D01*
Y74980D01*
X34505Y74914D01*
X34512Y74848D01*
X34534Y74687D01*
X34549Y74519D01*
X34556Y74358D01*
Y74204D01*
X34564Y74138D01*
Y74087D01*
Y74036D01*
Y73999D01*
Y73977D01*
Y73970D01*
Y72528D01*
Y72352D01*
X34556Y72198D01*
Y72067D01*
X34549Y71964D01*
X34542Y71876D01*
Y71818D01*
X34534Y71789D01*
Y71774D01*
X34512Y71679D01*
X34490Y71598D01*
X34461Y71518D01*
X34432Y71444D01*
X34403Y71386D01*
X34373Y71335D01*
X34359Y71305D01*
X34351Y71298D01*
X34293Y71218D01*
X34220Y71144D01*
X34154Y71078D01*
X34080Y71020D01*
X34022Y70976D01*
X33971Y70947D01*
X33941Y70925D01*
X33927Y70917D01*
X33824Y70866D01*
X33715Y70829D01*
X33619Y70800D01*
X33524Y70786D01*
X33451Y70771D01*
X33385Y70764D01*
X33334D01*
X33239Y70771D01*
X33151Y70778D01*
X33070Y70800D01*
X33005Y70822D01*
X32946Y70837D01*
X32909Y70859D01*
X32880Y70866D01*
X32873Y70873D01*
X32800Y70917D01*
X32741Y70976D01*
X32682Y71027D01*
X32631Y71086D01*
X32594Y71130D01*
X32565Y71174D01*
X32551Y71203D01*
X32543Y71210D01*
X32426Y70866D01*
X31628D01*
Y73472D01*
X33107D01*
Y72733D01*
X32851D01*
Y72154D01*
Y72037D01*
X32858Y71935D01*
X32865Y71854D01*
X32873Y71796D01*
X32887Y71752D01*
X32895Y71715D01*
X32902Y71701D01*
Y71693D01*
X32924Y71657D01*
X32953Y71627D01*
X32983Y71613D01*
X33019Y71598D01*
X33048Y71591D01*
X33070Y71583D01*
X33092D01*
X33136Y71591D01*
X33173Y71598D01*
X33231Y71635D01*
X33261Y71671D01*
X33268Y71679D01*
Y71686D01*
X33283Y71737D01*
X33290Y71796D01*
X33297Y71869D01*
Y71935D01*
X33305Y72001D01*
Y72059D01*
Y72096D01*
Y72110D01*
Y74446D01*
Y74570D01*
X33297Y74673D01*
X33290Y74753D01*
X33283Y74819D01*
Y74863D01*
X33275Y74885D01*
X33268Y74900D01*
Y74907D01*
X33246Y74936D01*
X33224Y74965D01*
X33165Y74987D01*
X33122Y75002D01*
X33100D01*
X33056Y74995D01*
X33019Y74987D01*
X32990Y74965D01*
X32968Y74951D01*
X32939Y74907D01*
X32931Y74900D01*
Y74892D01*
X32924Y74870D01*
X32917Y74841D01*
X32902Y74768D01*
X32895Y74680D01*
Y74592D01*
X32887Y74511D01*
Y74438D01*
Y74409D01*
Y74394D01*
Y74380D01*
Y74372D01*
Y73933D01*
X31628D01*
Y74138D01*
X31636Y74351D01*
X31643Y74533D01*
X31665Y74687D01*
X31687Y74819D01*
X31709Y74914D01*
X31723Y74987D01*
X31738Y75031D01*
X31745Y75046D01*
X31797Y75163D01*
X31863Y75266D01*
X31943Y75353D01*
X32024Y75434D01*
X32097Y75500D01*
X32163Y75551D01*
X32207Y75580D01*
X32214Y75587D01*
X32221D01*
X32368Y75668D01*
X32521Y75727D01*
X32675Y75763D01*
X32822Y75792D01*
X32946Y75807D01*
X33005Y75814D01*
X33048Y75822D01*
X33143D01*
X33341Y75807D01*
D02*
G37*
G36*
X40158Y19901D02*
X36695D01*
Y20208D01*
X40158D01*
Y19901D01*
D02*
G37*
G36*
X29412Y25610D02*
X29595Y25581D01*
X29756Y25544D01*
X29888Y25493D01*
X29990Y25442D01*
X30034Y25420D01*
X30071Y25405D01*
X30100Y25383D01*
X30122Y25376D01*
X30129Y25361D01*
X30137D01*
X30254Y25259D01*
X30349Y25164D01*
X30422Y25061D01*
X30481Y24973D01*
X30517Y24900D01*
X30547Y24834D01*
X30554Y24798D01*
X30561Y24791D01*
Y24783D01*
X30576Y24717D01*
X30583Y24651D01*
X30605Y24490D01*
X30620Y24322D01*
X30627Y24161D01*
Y24007D01*
X30634Y23941D01*
Y23890D01*
Y23839D01*
Y23802D01*
Y23780D01*
Y23773D01*
Y22331D01*
Y22155D01*
X30627Y22002D01*
Y21870D01*
X30620Y21767D01*
X30612Y21679D01*
Y21621D01*
X30605Y21592D01*
Y21577D01*
X30583Y21482D01*
X30561Y21401D01*
X30532Y21321D01*
X30503Y21248D01*
X30473Y21189D01*
X30444Y21138D01*
X30430Y21109D01*
X30422Y21101D01*
X30364Y21021D01*
X30290Y20947D01*
X30224Y20882D01*
X30151Y20823D01*
X30093Y20779D01*
X30042Y20750D01*
X30012Y20728D01*
X29998Y20720D01*
X29895Y20669D01*
X29785Y20633D01*
X29690Y20603D01*
X29595Y20589D01*
X29522Y20574D01*
X29456Y20567D01*
X29405D01*
X29309Y20574D01*
X29222Y20582D01*
X29141Y20603D01*
X29075Y20625D01*
X29017Y20640D01*
X28980Y20662D01*
X28951Y20669D01*
X28943Y20677D01*
X28870Y20720D01*
X28812Y20779D01*
X28753Y20830D01*
X28702Y20889D01*
X28665Y20933D01*
X28636Y20977D01*
X28621Y21006D01*
X28614Y21013D01*
X28497Y20669D01*
X27699D01*
Y23275D01*
X29178D01*
Y22536D01*
X28922D01*
Y21958D01*
Y21840D01*
X28929Y21738D01*
X28936Y21657D01*
X28943Y21599D01*
X28958Y21555D01*
X28965Y21518D01*
X28973Y21504D01*
Y21496D01*
X28995Y21460D01*
X29024Y21431D01*
X29053Y21416D01*
X29090Y21401D01*
X29119Y21394D01*
X29141Y21387D01*
X29163D01*
X29207Y21394D01*
X29244Y21401D01*
X29302Y21438D01*
X29331Y21475D01*
X29339Y21482D01*
Y21489D01*
X29353Y21540D01*
X29361Y21599D01*
X29368Y21672D01*
Y21738D01*
X29375Y21804D01*
Y21862D01*
Y21899D01*
Y21914D01*
Y24249D01*
Y24373D01*
X29368Y24476D01*
X29361Y24556D01*
X29353Y24622D01*
Y24666D01*
X29346Y24688D01*
X29339Y24703D01*
Y24710D01*
X29317Y24739D01*
X29295Y24769D01*
X29236Y24791D01*
X29192Y24805D01*
X29170D01*
X29127Y24798D01*
X29090Y24791D01*
X29061Y24769D01*
X29039Y24754D01*
X29009Y24710D01*
X29002Y24703D01*
Y24695D01*
X28995Y24673D01*
X28987Y24644D01*
X28973Y24571D01*
X28965Y24483D01*
Y24395D01*
X28958Y24315D01*
Y24241D01*
Y24212D01*
Y24197D01*
Y24183D01*
Y24176D01*
Y23736D01*
X27699D01*
Y23941D01*
X27706Y24154D01*
X27714Y24337D01*
X27736Y24490D01*
X27758Y24622D01*
X27780Y24717D01*
X27794Y24791D01*
X27809Y24834D01*
X27816Y24849D01*
X27867Y24966D01*
X27933Y25069D01*
X28014Y25157D01*
X28094Y25237D01*
X28168Y25303D01*
X28234Y25354D01*
X28277Y25383D01*
X28285Y25391D01*
X28292D01*
X28438Y25471D01*
X28592Y25530D01*
X28746Y25566D01*
X28892Y25596D01*
X29017Y25610D01*
X29075Y25618D01*
X29119Y25625D01*
X29214D01*
X29412Y25610D01*
D02*
G37*
G36*
X42323Y80709D02*
X41217D01*
Y83908D01*
X40749Y80709D01*
X39973D01*
X39541Y83981D01*
X39534Y80709D01*
X38429D01*
Y85562D01*
X40076D01*
X40368Y83293D01*
X40544Y84530D01*
X40573Y84742D01*
X40603Y84940D01*
X40625Y85115D01*
X40654Y85269D01*
X40661Y85335D01*
X40668Y85394D01*
X40676Y85445D01*
X40683Y85481D01*
X40690Y85518D01*
X40698Y85540D01*
Y85554D01*
Y85562D01*
X42323D01*
Y80709D01*
D02*
G37*
G36*
X111574Y84310D02*
X108111D01*
Y84618D01*
X111574D01*
Y84310D01*
D02*
G37*
G36*
X123044Y90027D02*
X123198Y90012D01*
X123330Y89991D01*
X123439Y89961D01*
X123535Y89932D01*
X123600Y89910D01*
X123644Y89895D01*
X123652Y89888D01*
X123659D01*
X123769Y89829D01*
X123864Y89763D01*
X123937Y89698D01*
X124003Y89632D01*
X124054Y89566D01*
X124084Y89522D01*
X124106Y89493D01*
X124113Y89478D01*
X124157Y89368D01*
X124193Y89244D01*
X124215Y89112D01*
X124237Y88973D01*
X124245Y88856D01*
Y88805D01*
X124252Y88753D01*
Y88717D01*
Y88687D01*
Y88673D01*
Y88665D01*
X124245Y88526D01*
X124237Y88402D01*
X124223Y88292D01*
X124201Y88204D01*
X124186Y88131D01*
X124171Y88073D01*
X124164Y88043D01*
X124157Y88029D01*
X124113Y87941D01*
X124076Y87860D01*
X124032Y87795D01*
X123988Y87743D01*
X123952Y87699D01*
X123923Y87670D01*
X123908Y87648D01*
X123901Y87641D01*
X123871Y87612D01*
X123827Y87582D01*
X123740Y87509D01*
X123637Y87436D01*
X123535Y87363D01*
X123432Y87297D01*
X123352Y87238D01*
X123322Y87216D01*
X123300Y87201D01*
X123286Y87194D01*
X123278Y87187D01*
X123198Y87128D01*
X123117Y87077D01*
X123052Y87033D01*
X122986Y86989D01*
X122883Y86916D01*
X122803Y86850D01*
X122751Y86806D01*
X122715Y86777D01*
X122693Y86755D01*
X122686Y86748D01*
X122649Y86689D01*
X122620Y86601D01*
X122598Y86514D01*
X122583Y86418D01*
X122576Y86330D01*
X122568Y86257D01*
Y86228D01*
Y86206D01*
Y86191D01*
Y86184D01*
Y86118D01*
X122576Y86060D01*
X122590Y86008D01*
X122598Y85965D01*
X122612Y85935D01*
X122627Y85913D01*
X122634Y85899D01*
Y85891D01*
X122656Y85862D01*
X122686Y85840D01*
X122751Y85811D01*
X122781Y85803D01*
X122803Y85796D01*
X122825D01*
X122905Y85811D01*
X122956Y85833D01*
X122993Y85855D01*
X123000Y85869D01*
X123015Y85906D01*
X123022Y85957D01*
X123037Y86074D01*
X123044Y86133D01*
Y86177D01*
Y86206D01*
Y86221D01*
Y86821D01*
X124215D01*
Y86499D01*
X124208Y86308D01*
X124201Y86133D01*
X124179Y85986D01*
X124157Y85869D01*
X124142Y85774D01*
X124120Y85708D01*
X124113Y85664D01*
X124106Y85650D01*
X124054Y85547D01*
X123988Y85452D01*
X123908Y85372D01*
X123827Y85298D01*
X123754Y85240D01*
X123696Y85203D01*
X123652Y85174D01*
X123644Y85167D01*
X123637D01*
X123498Y85101D01*
X123352Y85057D01*
X123205Y85020D01*
X123073Y84998D01*
X122949Y84984D01*
X122898D01*
X122861Y84976D01*
X122773D01*
X122605Y84984D01*
X122451Y84998D01*
X122312Y85027D01*
X122195Y85057D01*
X122100Y85086D01*
X122027Y85115D01*
X122005Y85123D01*
X121983Y85130D01*
X121975Y85137D01*
X121968D01*
X121844Y85203D01*
X121748Y85269D01*
X121661Y85342D01*
X121595Y85408D01*
X121551Y85459D01*
X121514Y85511D01*
X121500Y85540D01*
X121492Y85547D01*
X121448Y85650D01*
X121419Y85774D01*
X121397Y85899D01*
X121382Y86023D01*
X121375Y86140D01*
X121368Y86191D01*
Y86228D01*
Y86265D01*
Y86294D01*
Y86308D01*
Y86316D01*
Y86448D01*
X121375Y86565D01*
X121390Y86674D01*
X121405Y86777D01*
X121419Y86872D01*
X121434Y86960D01*
X121456Y87033D01*
X121478Y87099D01*
X121500Y87158D01*
X121514Y87209D01*
X121536Y87253D01*
X121551Y87289D01*
X121565Y87311D01*
X121580Y87333D01*
X121588Y87348D01*
X121639Y87414D01*
X121697Y87480D01*
X121763Y87546D01*
X121844Y87612D01*
X122019Y87751D01*
X122202Y87882D01*
X122371Y87999D01*
X122444Y88051D01*
X122517Y88095D01*
X122568Y88124D01*
X122612Y88153D01*
X122642Y88168D01*
X122649Y88175D01*
X122751Y88241D01*
X122832Y88300D01*
X122890Y88351D01*
X122942Y88395D01*
X122971Y88424D01*
X122993Y88453D01*
X123008Y88468D01*
Y88475D01*
X123029Y88526D01*
X123044Y88578D01*
X123066Y88702D01*
Y88753D01*
X123073Y88797D01*
Y88827D01*
Y88834D01*
Y88900D01*
X123066Y88958D01*
X123052Y89010D01*
X123044Y89046D01*
X123029Y89083D01*
X123022Y89105D01*
X123015Y89112D01*
Y89119D01*
X122993Y89149D01*
X122964Y89178D01*
X122905Y89200D01*
X122861Y89214D01*
X122839D01*
X122773Y89200D01*
X122729Y89178D01*
X122700Y89156D01*
X122693Y89141D01*
X122678Y89112D01*
X122663Y89061D01*
X122656Y89010D01*
X122649Y88958D01*
X122642Y88907D01*
Y88863D01*
Y88834D01*
Y88819D01*
Y88461D01*
X121470D01*
Y88651D01*
Y88753D01*
X121478Y88856D01*
Y88944D01*
X121485Y89024D01*
X121500Y89097D01*
X121507Y89163D01*
X121529Y89280D01*
X121551Y89361D01*
X121565Y89427D01*
X121580Y89456D01*
X121588Y89471D01*
X121639Y89559D01*
X121705Y89639D01*
X121778Y89705D01*
X121858Y89763D01*
X121932Y89807D01*
X121990Y89844D01*
X122034Y89866D01*
X122041Y89873D01*
X122049D01*
X122180Y89925D01*
X122327Y89969D01*
X122466Y89998D01*
X122598Y90012D01*
X122707Y90027D01*
X122759D01*
X122803Y90034D01*
X122883D01*
X123044Y90027D01*
D02*
G37*
G36*
X38209Y70098D02*
X34747D01*
Y70405D01*
X38209D01*
Y70098D01*
D02*
G37*
G36*
X27822Y70866D02*
X26072D01*
X25933Y70873D01*
X25816Y70881D01*
X25721Y70888D01*
X25648Y70895D01*
X25597Y70903D01*
X25560Y70910D01*
X25553D01*
X25472Y70932D01*
X25399Y70961D01*
X25333Y70991D01*
X25275Y71020D01*
X25231Y71042D01*
X25201Y71064D01*
X25179Y71078D01*
X25172Y71086D01*
X25121Y71137D01*
X25077Y71196D01*
X25040Y71247D01*
X25011Y71305D01*
X24989Y71357D01*
X24974Y71393D01*
X24960Y71422D01*
Y71430D01*
X24945Y71474D01*
X24938Y71532D01*
X24923Y71657D01*
X24908Y71803D01*
X24901Y71949D01*
X24894Y72081D01*
Y72140D01*
Y72198D01*
Y72242D01*
Y72272D01*
Y72294D01*
Y72301D01*
Y74006D01*
Y74131D01*
Y74241D01*
X24901Y74351D01*
Y74438D01*
Y74526D01*
X24908Y74599D01*
Y74665D01*
X24916Y74724D01*
X24923Y74775D01*
Y74819D01*
X24930Y74856D01*
Y74885D01*
X24938Y74914D01*
Y74929D01*
X24960Y75017D01*
X24989Y75097D01*
X25026Y75163D01*
X25062Y75229D01*
X25092Y75280D01*
X25121Y75317D01*
X25143Y75346D01*
X25150Y75353D01*
X25216Y75419D01*
X25297Y75478D01*
X25377Y75529D01*
X25458Y75566D01*
X25531Y75595D01*
X25589Y75617D01*
X25626Y75631D01*
X25641D01*
X25706Y75646D01*
X25787Y75661D01*
X25875Y75675D01*
X25970Y75683D01*
X26175Y75697D01*
X26380Y75712D01*
X26570D01*
X26658Y75719D01*
X27822D01*
Y70866D01*
D02*
G37*
G36*
X36483Y20669D02*
X35429D01*
Y22873D01*
X34770Y20669D01*
X33665D01*
Y25523D01*
X34719D01*
Y23334D01*
X35429Y25523D01*
X36483D01*
Y20669D01*
D02*
G37*
%LPC*%
G36*
X64242Y132110D02*
X64147Y132103D01*
X64066Y132088D01*
X64008Y132081D01*
X63957Y132066D01*
X63927Y132051D01*
X63905Y132037D01*
X63891Y132029D01*
X63869Y131993D01*
X63847Y131942D01*
X63832Y131883D01*
X63825Y131817D01*
X63818Y131759D01*
Y131707D01*
Y131671D01*
Y131656D01*
Y131202D01*
Y131100D01*
X63832Y131019D01*
X63840Y130953D01*
X63854Y130902D01*
X63869Y130866D01*
X63883Y130844D01*
X63891Y130836D01*
X63898Y130829D01*
X63935Y130807D01*
X63986Y130785D01*
X64037Y130770D01*
X64096Y130763D01*
X64154Y130756D01*
X64198Y130748D01*
X64242D01*
Y132110D01*
D02*
G37*
G36*
X33122Y84844D02*
X33107D01*
X33063Y84837D01*
X33034Y84830D01*
X32983Y84800D01*
X32961Y84764D01*
X32953Y84757D01*
Y84749D01*
X32939Y84705D01*
X32924Y84640D01*
X32917Y84566D01*
Y84493D01*
X32909Y84427D01*
Y84369D01*
Y84325D01*
Y84317D01*
Y84310D01*
Y82077D01*
Y81931D01*
X32917Y81814D01*
X32924Y81719D01*
Y81646D01*
X32931Y81594D01*
X32939Y81558D01*
X32946Y81543D01*
Y81536D01*
X32961Y81499D01*
X32990Y81470D01*
X33012Y81455D01*
X33041Y81441D01*
X33092Y81426D01*
X33114D01*
X33158Y81433D01*
X33195Y81441D01*
X33239Y81477D01*
X33268Y81507D01*
X33275Y81514D01*
Y81521D01*
X33283Y81543D01*
Y81572D01*
X33290Y81646D01*
X33297Y81734D01*
Y81821D01*
X33305Y81902D01*
Y81975D01*
Y82004D01*
Y82026D01*
Y82034D01*
Y82041D01*
Y84310D01*
Y84442D01*
X33297Y84544D01*
X33290Y84625D01*
X33275Y84683D01*
X33268Y84720D01*
X33261Y84749D01*
X33253Y84764D01*
X33231Y84793D01*
X33209Y84808D01*
X33158Y84837D01*
X33122Y84844D01*
D02*
G37*
G36*
X26563Y74892D02*
X26490D01*
X26431Y74885D01*
X26380Y74878D01*
X26343Y74870D01*
X26314Y74863D01*
X26292Y74856D01*
X26277Y74848D01*
X26226Y74812D01*
X26197Y74760D01*
X26182Y74724D01*
X26175Y74717D01*
Y74709D01*
X26168Y74665D01*
X26160Y74599D01*
Y74533D01*
X26153Y74460D01*
Y74394D01*
Y74336D01*
Y74299D01*
Y74292D01*
Y74285D01*
Y72396D01*
Y72308D01*
Y72228D01*
X26160Y72162D01*
Y72096D01*
X26168Y72037D01*
X26175Y71993D01*
X26182Y71913D01*
X26197Y71854D01*
X26212Y71818D01*
X26219Y71803D01*
Y71796D01*
X26255Y71759D01*
X26299Y71737D01*
X26358Y71715D01*
X26417Y71708D01*
X26468Y71701D01*
X26519Y71693D01*
X26563D01*
Y74892D01*
D02*
G37*
G36*
X47954Y22858D02*
X47858Y22851D01*
X47778Y22836D01*
X47719Y22829D01*
X47668Y22814D01*
X47639Y22799D01*
X47617Y22785D01*
X47602Y22777D01*
X47580Y22741D01*
X47558Y22690D01*
X47544Y22631D01*
X47536Y22565D01*
X47529Y22507D01*
Y22455D01*
Y22419D01*
Y22404D01*
Y21950D01*
Y21848D01*
X47544Y21767D01*
X47551Y21701D01*
X47566Y21650D01*
X47580Y21614D01*
X47595Y21592D01*
X47602Y21584D01*
X47609Y21577D01*
X47646Y21555D01*
X47697Y21533D01*
X47749Y21518D01*
X47807Y21511D01*
X47866Y21504D01*
X47910Y21496D01*
X47954D01*
Y22858D01*
D02*
G37*
G36*
X44506Y24439D02*
X44484Y24219D01*
X44469Y24000D01*
X44447Y23802D01*
X44433Y23612D01*
X44418Y23429D01*
X44403Y23261D01*
X44389Y23107D01*
X44374Y22968D01*
X44359Y22836D01*
X44352Y22726D01*
X44337Y22631D01*
X44330Y22550D01*
X44323Y22485D01*
Y22441D01*
X44315Y22411D01*
Y22404D01*
X44740D01*
X44725Y22529D01*
X44718Y22675D01*
X44696Y22829D01*
X44682Y22990D01*
X44645Y23326D01*
X44623Y23495D01*
X44601Y23663D01*
X44586Y23817D01*
X44564Y23963D01*
X44550Y24095D01*
X44535Y24212D01*
X44521Y24307D01*
X44513Y24381D01*
Y24403D01*
X44506Y24424D01*
Y24432D01*
Y24439D01*
D02*
G37*
G36*
X77481Y24695D02*
X77415D01*
X77357Y24688D01*
X77313Y24681D01*
X77276D01*
X77247Y24673D01*
X77232D01*
X77218Y24666D01*
X77166Y24637D01*
X77130Y24600D01*
X77108Y24564D01*
X77100Y24556D01*
Y24549D01*
X77086Y24505D01*
X77071Y24461D01*
X77064Y24351D01*
X77057Y24307D01*
Y24263D01*
Y24234D01*
Y24227D01*
Y24146D01*
Y24080D01*
X77064Y23963D01*
X77071Y23868D01*
X77086Y23802D01*
X77093Y23751D01*
X77108Y23722D01*
X77115Y23707D01*
Y23700D01*
X77137Y23671D01*
X77174Y23649D01*
X77254Y23627D01*
X77291Y23619D01*
X77327Y23612D01*
X77481D01*
Y24695D01*
D02*
G37*
G36*
X74033Y24439D02*
X74011Y24219D01*
X73997Y24000D01*
X73975Y23802D01*
X73960Y23612D01*
X73946Y23429D01*
X73931Y23261D01*
X73916Y23107D01*
X73902Y22968D01*
X73887Y22836D01*
X73880Y22726D01*
X73865Y22631D01*
X73858Y22550D01*
X73850Y22485D01*
Y22441D01*
X73843Y22411D01*
Y22404D01*
X74268D01*
X74253Y22529D01*
X74246Y22675D01*
X74224Y22829D01*
X74209Y22990D01*
X74173Y23326D01*
X74151Y23495D01*
X74129Y23663D01*
X74114Y23817D01*
X74092Y23963D01*
X74077Y24095D01*
X74063Y24212D01*
X74048Y24307D01*
X74041Y24381D01*
Y24403D01*
X74033Y24424D01*
Y24432D01*
Y24439D01*
D02*
G37*
G36*
X64752Y24695D02*
X64664D01*
X64598Y24681D01*
X64539Y24673D01*
X64495Y24659D01*
X64459Y24644D01*
X64437Y24629D01*
X64430Y24622D01*
X64422Y24615D01*
X64393Y24578D01*
X64378Y24534D01*
X64349Y24424D01*
Y24373D01*
X64342Y24337D01*
Y24307D01*
Y24293D01*
Y23890D01*
Y23795D01*
X64356Y23722D01*
X64364Y23656D01*
X64378Y23612D01*
X64393Y23575D01*
X64400Y23546D01*
X64415Y23539D01*
Y23531D01*
X64444Y23502D01*
X64481Y23487D01*
X64561Y23458D01*
X64605D01*
X64635Y23451D01*
X64752D01*
Y24695D01*
D02*
G37*
G36*
X47954D02*
X47888D01*
X47829Y24688D01*
X47785Y24681D01*
X47749D01*
X47719Y24673D01*
X47705D01*
X47690Y24666D01*
X47639Y24637D01*
X47602Y24600D01*
X47580Y24564D01*
X47573Y24556D01*
Y24549D01*
X47558Y24505D01*
X47544Y24461D01*
X47536Y24351D01*
X47529Y24307D01*
Y24263D01*
Y24234D01*
Y24227D01*
Y24146D01*
Y24080D01*
X47536Y23963D01*
X47544Y23868D01*
X47558Y23802D01*
X47566Y23751D01*
X47580Y23722D01*
X47588Y23707D01*
Y23700D01*
X47609Y23671D01*
X47646Y23649D01*
X47727Y23627D01*
X47763Y23619D01*
X47800Y23612D01*
X47954D01*
Y24695D01*
D02*
G37*
G36*
X119714Y99262D02*
X119626D01*
X119560Y99248D01*
X119501Y99240D01*
X119457Y99226D01*
X119421Y99211D01*
X119399Y99196D01*
X119392Y99189D01*
X119384Y99182D01*
X119355Y99145D01*
X119340Y99101D01*
X119311Y98991D01*
Y98940D01*
X119304Y98904D01*
Y98874D01*
Y98860D01*
Y98457D01*
Y98362D01*
X119318Y98289D01*
X119326Y98223D01*
X119340Y98179D01*
X119355Y98142D01*
X119362Y98113D01*
X119377Y98106D01*
Y98098D01*
X119406Y98069D01*
X119443Y98054D01*
X119523Y98025D01*
X119567D01*
X119596Y98018D01*
X119714D01*
Y99262D01*
D02*
G37*
G36*
X113338D02*
X113265D01*
X113199Y99248D01*
X113140Y99240D01*
X113104Y99226D01*
X113067Y99211D01*
X113045Y99204D01*
X113038Y99189D01*
X113030D01*
X113001Y99152D01*
X112979Y99108D01*
X112950Y99006D01*
Y98962D01*
X112943Y98918D01*
Y98889D01*
Y98882D01*
Y98618D01*
X112950Y98508D01*
X112957Y98420D01*
X112972Y98355D01*
X112987Y98311D01*
X113008Y98274D01*
X113023Y98252D01*
X113030Y98237D01*
X113038D01*
X113074Y98216D01*
X113118Y98201D01*
X113221Y98186D01*
X113265Y98179D01*
X113338D01*
Y99262D01*
D02*
G37*
G36*
Y89105D02*
X113265D01*
X113199Y89090D01*
X113140Y89083D01*
X113104Y89068D01*
X113067Y89053D01*
X113045Y89046D01*
X113038Y89032D01*
X113030D01*
X113001Y88995D01*
X112979Y88951D01*
X112950Y88849D01*
Y88805D01*
X112943Y88761D01*
Y88731D01*
Y88724D01*
Y88461D01*
X112950Y88351D01*
X112957Y88263D01*
X112972Y88197D01*
X112987Y88153D01*
X113008Y88117D01*
X113023Y88095D01*
X113030Y88080D01*
X113038D01*
X113074Y88058D01*
X113118Y88043D01*
X113221Y88029D01*
X113265Y88021D01*
X113338D01*
Y89105D01*
D02*
G37*
G36*
X106640D02*
X106552D01*
X106486Y89090D01*
X106428Y89083D01*
X106384Y89068D01*
X106347Y89053D01*
X106325Y89039D01*
X106318Y89032D01*
X106311Y89024D01*
X106281Y88988D01*
X106267Y88944D01*
X106237Y88834D01*
Y88783D01*
X106230Y88746D01*
Y88717D01*
Y88702D01*
Y88300D01*
Y88204D01*
X106245Y88131D01*
X106252Y88065D01*
X106267Y88021D01*
X106281Y87985D01*
X106289Y87955D01*
X106303Y87948D01*
Y87941D01*
X106333Y87912D01*
X106369Y87897D01*
X106450Y87868D01*
X106494D01*
X106523Y87860D01*
X106640D01*
Y89105D01*
D02*
G37*
G36*
X119714D02*
X119626D01*
X119560Y89090D01*
X119501Y89083D01*
X119457Y89068D01*
X119421Y89053D01*
X119399Y89039D01*
X119392Y89032D01*
X119384Y89024D01*
X119355Y88988D01*
X119340Y88944D01*
X119311Y88834D01*
Y88783D01*
X119304Y88746D01*
Y88717D01*
Y88702D01*
Y88300D01*
Y88204D01*
X119318Y88131D01*
X119326Y88065D01*
X119340Y88021D01*
X119355Y87985D01*
X119362Y87955D01*
X119377Y87948D01*
Y87941D01*
X119406Y87912D01*
X119443Y87897D01*
X119523Y87868D01*
X119567D01*
X119596Y87860D01*
X119714D01*
Y89105D01*
D02*
G37*
G36*
X77481Y22858D02*
X77386Y22851D01*
X77305Y22836D01*
X77247Y22829D01*
X77196Y22814D01*
X77166Y22799D01*
X77144Y22785D01*
X77130Y22777D01*
X77108Y22741D01*
X77086Y22690D01*
X77071Y22631D01*
X77064Y22565D01*
X77057Y22507D01*
Y22455D01*
Y22419D01*
Y22404D01*
Y21950D01*
Y21848D01*
X77071Y21767D01*
X77078Y21701D01*
X77093Y21650D01*
X77108Y21614D01*
X77122Y21592D01*
X77130Y21584D01*
X77137Y21577D01*
X77174Y21555D01*
X77225Y21533D01*
X77276Y21518D01*
X77335Y21511D01*
X77393Y21504D01*
X77437Y21496D01*
X77481D01*
Y22858D01*
D02*
G37*
G36*
X67639Y143790D02*
X67565D01*
X67507Y143782D01*
X67456Y143775D01*
X67419Y143768D01*
X67390Y143761D01*
X67368Y143753D01*
X67353Y143746D01*
X67302Y143709D01*
X67273Y143658D01*
X67258Y143621D01*
X67251Y143614D01*
Y143607D01*
X67243Y143563D01*
X67236Y143497D01*
Y143431D01*
X67229Y143358D01*
Y143292D01*
Y143234D01*
Y143197D01*
Y143190D01*
Y143182D01*
Y141294D01*
Y141206D01*
Y141125D01*
X67236Y141059D01*
Y140993D01*
X67243Y140935D01*
X67251Y140891D01*
X67258Y140811D01*
X67273Y140752D01*
X67287Y140715D01*
X67295Y140701D01*
Y140693D01*
X67331Y140657D01*
X67375Y140635D01*
X67434Y140613D01*
X67492Y140606D01*
X67543Y140598D01*
X67595Y140591D01*
X67639D01*
Y143790D01*
D02*
G37*
G36*
X54075D02*
X54001D01*
X53936Y143775D01*
X53877Y143768D01*
X53840Y143753D01*
X53804Y143738D01*
X53782Y143731D01*
X53774Y143717D01*
X53767D01*
X53738Y143680D01*
X53716Y143636D01*
X53687Y143534D01*
Y143490D01*
X53679Y143446D01*
Y143417D01*
Y143409D01*
Y143146D01*
X53687Y143036D01*
X53694Y142948D01*
X53709Y142882D01*
X53723Y142838D01*
X53745Y142802D01*
X53760Y142780D01*
X53767Y142765D01*
X53774D01*
X53811Y142743D01*
X53855Y142728D01*
X53957Y142714D01*
X54001Y142706D01*
X54075D01*
Y143790D01*
D02*
G37*
G36*
X64242Y141953D02*
X64147Y141945D01*
X64066Y141930D01*
X64008Y141923D01*
X63957Y141909D01*
X63927Y141894D01*
X63905Y141879D01*
X63891Y141872D01*
X63869Y141835D01*
X63847Y141784D01*
X63832Y141726D01*
X63825Y141660D01*
X63818Y141601D01*
Y141550D01*
Y141513D01*
Y141499D01*
Y141045D01*
Y140942D01*
X63832Y140862D01*
X63840Y140796D01*
X63854Y140745D01*
X63869Y140708D01*
X63883Y140686D01*
X63891Y140679D01*
X63898Y140672D01*
X63935Y140649D01*
X63986Y140628D01*
X64037Y140613D01*
X64096Y140606D01*
X64154Y140598D01*
X64198Y140591D01*
X64242D01*
Y141953D01*
D02*
G37*
G36*
X67639Y133947D02*
X67565D01*
X67507Y133940D01*
X67456Y133933D01*
X67419Y133925D01*
X67390Y133918D01*
X67368Y133911D01*
X67353Y133903D01*
X67302Y133867D01*
X67273Y133816D01*
X67258Y133779D01*
X67251Y133772D01*
Y133764D01*
X67243Y133720D01*
X67236Y133654D01*
Y133589D01*
X67229Y133515D01*
Y133449D01*
Y133391D01*
Y133354D01*
Y133347D01*
Y133340D01*
Y131451D01*
Y131363D01*
Y131283D01*
X67236Y131217D01*
Y131151D01*
X67243Y131093D01*
X67251Y131049D01*
X67258Y130968D01*
X67273Y130910D01*
X67287Y130873D01*
X67295Y130858D01*
Y130851D01*
X67331Y130814D01*
X67375Y130792D01*
X67434Y130770D01*
X67492Y130763D01*
X67543Y130756D01*
X67595Y130748D01*
X67639D01*
Y133947D01*
D02*
G37*
G36*
X64242D02*
X64176D01*
X64118Y133940D01*
X64074Y133933D01*
X64037D01*
X64008Y133925D01*
X63993D01*
X63979Y133918D01*
X63927Y133889D01*
X63891Y133852D01*
X63869Y133816D01*
X63862Y133808D01*
Y133801D01*
X63847Y133757D01*
X63832Y133713D01*
X63825Y133603D01*
X63818Y133559D01*
Y133515D01*
Y133486D01*
Y133479D01*
Y133398D01*
Y133332D01*
X63825Y133215D01*
X63832Y133120D01*
X63847Y133054D01*
X63854Y133003D01*
X63869Y132974D01*
X63876Y132959D01*
Y132952D01*
X63898Y132922D01*
X63935Y132901D01*
X64015Y132878D01*
X64052Y132871D01*
X64088Y132864D01*
X64242D01*
Y133947D01*
D02*
G37*
G36*
Y143790D02*
X64176D01*
X64118Y143782D01*
X64074Y143775D01*
X64037D01*
X64008Y143768D01*
X63993D01*
X63979Y143761D01*
X63927Y143731D01*
X63891Y143695D01*
X63869Y143658D01*
X63862Y143651D01*
Y143643D01*
X63847Y143599D01*
X63832Y143555D01*
X63825Y143446D01*
X63818Y143402D01*
Y143358D01*
Y143329D01*
Y143321D01*
Y143241D01*
Y143175D01*
X63825Y143058D01*
X63832Y142963D01*
X63847Y142897D01*
X63854Y142845D01*
X63869Y142816D01*
X63876Y142802D01*
Y142794D01*
X63898Y142765D01*
X63935Y142743D01*
X64015Y142721D01*
X64052Y142714D01*
X64088Y142706D01*
X64242D01*
Y143790D01*
D02*
G37*
G36*
Y153632D02*
X64176D01*
X64118Y153625D01*
X64074Y153618D01*
X64037D01*
X64008Y153610D01*
X63993D01*
X63979Y153603D01*
X63927Y153574D01*
X63891Y153537D01*
X63869Y153500D01*
X63862Y153493D01*
Y153486D01*
X63847Y153442D01*
X63832Y153398D01*
X63825Y153288D01*
X63818Y153244D01*
Y153200D01*
Y153171D01*
Y153164D01*
Y153083D01*
Y153017D01*
X63825Y152900D01*
X63832Y152805D01*
X63847Y152739D01*
X63854Y152688D01*
X63869Y152659D01*
X63876Y152644D01*
Y152637D01*
X63898Y152608D01*
X63935Y152585D01*
X64015Y152564D01*
X64052Y152556D01*
X64088Y152549D01*
X64242D01*
Y153632D01*
D02*
G37*
G36*
X61516Y24805D02*
X61502D01*
X61458Y24798D01*
X61428Y24791D01*
X61377Y24761D01*
X61355Y24725D01*
X61348Y24717D01*
Y24710D01*
X61333Y24666D01*
X61319Y24600D01*
X61311Y24527D01*
Y24454D01*
X61304Y24388D01*
Y24329D01*
Y24285D01*
Y24278D01*
Y24271D01*
Y22038D01*
Y21892D01*
X61311Y21775D01*
X61319Y21679D01*
Y21606D01*
X61326Y21555D01*
X61333Y21518D01*
X61340Y21504D01*
Y21496D01*
X61355Y21460D01*
X61384Y21431D01*
X61406Y21416D01*
X61436Y21401D01*
X61487Y21387D01*
X61509D01*
X61553Y21394D01*
X61589Y21401D01*
X61633Y21438D01*
X61663Y21467D01*
X61670Y21475D01*
Y21482D01*
X61677Y21504D01*
Y21533D01*
X61685Y21606D01*
X61692Y21694D01*
Y21782D01*
X61699Y21862D01*
Y21936D01*
Y21965D01*
Y21987D01*
Y21994D01*
Y22002D01*
Y24271D01*
Y24403D01*
X61692Y24505D01*
X61685Y24586D01*
X61670Y24644D01*
X61663Y24681D01*
X61655Y24710D01*
X61648Y24725D01*
X61626Y24754D01*
X61604Y24769D01*
X61553Y24798D01*
X61516Y24805D01*
D02*
G37*
G36*
X67639Y153632D02*
X67565D01*
X67507Y153625D01*
X67456Y153618D01*
X67419Y153610D01*
X67390Y153603D01*
X67368Y153596D01*
X67353Y153588D01*
X67302Y153552D01*
X67273Y153500D01*
X67258Y153464D01*
X67251Y153457D01*
Y153449D01*
X67243Y153405D01*
X67236Y153340D01*
Y153274D01*
X67229Y153200D01*
Y153135D01*
Y153076D01*
Y153039D01*
Y153032D01*
Y153025D01*
Y151136D01*
Y151048D01*
Y150968D01*
X67236Y150902D01*
Y150836D01*
X67243Y150777D01*
X67251Y150734D01*
X67258Y150653D01*
X67273Y150594D01*
X67287Y150558D01*
X67295Y150543D01*
Y150536D01*
X67331Y150499D01*
X67375Y150477D01*
X67434Y150455D01*
X67492Y150448D01*
X67543Y150441D01*
X67595Y150434D01*
X67639D01*
Y153632D01*
D02*
G37*
G36*
X47362D02*
X47289D01*
X47230Y153625D01*
X47179Y153618D01*
X47143Y153610D01*
X47113Y153603D01*
X47091Y153596D01*
X47077Y153588D01*
X47025Y153552D01*
X46996Y153500D01*
X46982Y153464D01*
X46974Y153457D01*
Y153449D01*
X46967Y153405D01*
X46960Y153340D01*
Y153274D01*
X46952Y153200D01*
Y153135D01*
Y153076D01*
Y153039D01*
Y153032D01*
Y153025D01*
Y151136D01*
Y151048D01*
Y150968D01*
X46960Y150902D01*
Y150836D01*
X46967Y150777D01*
X46974Y150734D01*
X46982Y150653D01*
X46996Y150594D01*
X47011Y150558D01*
X47018Y150543D01*
Y150536D01*
X47055Y150499D01*
X47099Y150477D01*
X47157Y150455D01*
X47216Y150448D01*
X47267Y150441D01*
X47318Y150434D01*
X47362D01*
Y153632D01*
D02*
G37*
G36*
X64242Y151795D02*
X64147Y151788D01*
X64066Y151773D01*
X64008Y151766D01*
X63957Y151751D01*
X63927Y151736D01*
X63905Y151722D01*
X63891Y151715D01*
X63869Y151678D01*
X63847Y151627D01*
X63832Y151568D01*
X63825Y151502D01*
X63818Y151444D01*
Y151392D01*
Y151356D01*
Y151341D01*
Y150887D01*
Y150785D01*
X63832Y150704D01*
X63840Y150638D01*
X63854Y150587D01*
X63869Y150551D01*
X63883Y150529D01*
X63891Y150521D01*
X63898Y150514D01*
X63935Y150492D01*
X63986Y150470D01*
X64037Y150455D01*
X64096Y150448D01*
X64154Y150441D01*
X64198Y150434D01*
X64242D01*
Y151795D01*
D02*
G37*
%LPD*%
D96*
X86653Y144063D02*
X86657Y144439D01*
X86832Y145563D01*
X87343Y146886D01*
X88190Y148013D01*
X89059Y148737D01*
X89380Y148925D01*
X90024Y149304D01*
X91960Y150435D01*
X94379Y151839D01*
X96602Y153122D01*
X98596Y154264D01*
X100325Y155252D01*
X101755Y156065D01*
X102852Y156688D01*
X103398Y157000D01*
X103580Y157105D01*
X103904Y157288D01*
X104966Y157680D01*
X106367Y157857D01*
X107770Y157648D01*
X108834Y157245D01*
X109162Y157063D01*
X109567Y156836D01*
X113582Y154528D01*
X113983Y154296D01*
X114044Y154261D01*
X114225Y154156D01*
X114597Y153941D01*
X115082Y153662D01*
X115659Y153329D01*
X116311Y152953D01*
X117018Y152544D01*
X117763Y152115D01*
X118527Y151674D01*
X119291Y151233D01*
X120036Y150803D01*
X120744Y150395D01*
X121396Y150019D01*
X121973Y149686D01*
X122457Y149406D01*
X122829Y149192D01*
X123010Y149087D01*
X123071Y149052D01*
X123378Y148875D01*
X124228Y148222D01*
X125116Y147209D01*
X125705Y146014D01*
X125943Y144984D01*
X125961Y144638D01*
X125997Y143983D01*
X126032Y140704D01*
X126005Y137421D02*
X126032Y140704D01*
X126005Y137421D02*
X126009Y136765D01*
X126012Y136354D01*
X126009Y132967D02*
X126012Y136354D01*
X126009Y131837D02*
Y132967D01*
Y130872D02*
Y131837D01*
Y128699D02*
Y130872D01*
Y127975D02*
Y128699D01*
X126005Y127588D02*
X126009Y127975D01*
X125817Y126430D02*
X126005Y127588D01*
X125275Y125081D02*
X125817Y126430D01*
X124387Y123936D02*
X125275Y125081D01*
X123486Y123200D02*
X124387Y123936D01*
X123155Y123006D02*
X123486Y123200D01*
X122005Y122333D02*
X123155Y123006D01*
X110453Y115678D02*
X122005Y122333D01*
X109296Y115015D02*
X110453Y115678D01*
X108945Y114815D02*
X109296Y115015D01*
X107799Y114379D02*
X108945Y114815D01*
X106299Y114173D02*
X107799Y114379D01*
X104801Y114394D02*
X106299Y114173D01*
X103657Y114837D02*
X104801Y114394D01*
X103307Y115038D02*
X103657Y114837D01*
X102677Y115400D02*
X103307Y115038D01*
X100786Y116487D02*
X102677Y115400D01*
X98428Y117843D02*
X100786Y116487D01*
X96266Y119089D02*
X98428Y117843D01*
X94330Y120204D02*
X96266Y119089D01*
X92654Y121171D02*
X94330Y120204D01*
X91268Y121970D02*
X92654Y121171D01*
X90206Y122583D02*
X91268Y121970D01*
X89676Y122889D02*
X90206Y122583D01*
X89500Y122990D02*
X89676Y122889D01*
X89193Y123169D02*
X89500Y122990D01*
X88351Y123838D02*
X89193Y123169D01*
X87486Y124877D02*
X88351Y123838D01*
X86922Y126102D02*
X87486Y124877D01*
X86694Y127154D02*
X86922Y126102D01*
X86674Y127507D02*
X86694Y127154D01*
X86648Y127954D02*
X86674Y127507D01*
X86586Y132436D02*
X86648Y127954D01*
X86585Y132884D02*
X86586Y132436D01*
X86585Y132884D02*
X86589Y133357D01*
X86650Y138040D01*
X86653Y138508D01*
X86656Y138971D01*
X86651Y143600D02*
X86656Y138971D01*
X86651Y143600D02*
X86653Y144063D01*
D97*
X106340Y116924D02*
X106536Y116927D01*
X107491Y117093D01*
X108390Y117453D01*
X108557Y117554D01*
X108581Y117567D01*
X108652Y117608D01*
X108816Y117702D01*
X109025Y117822D01*
X109258Y117955D01*
X109490Y118089D01*
X109700Y118210D01*
X109863Y118304D01*
X109934Y118344D01*
X109958Y118358D01*
X110891Y118895D01*
X115630Y121622D01*
X120389Y124380D01*
X121333Y124933D01*
X121580Y125076D01*
X122255Y125622D01*
X122911Y126462D01*
X123307Y127461D01*
X123444Y128332D01*
X123446Y128622D01*
Y129233D01*
Y130607D01*
Y131065D01*
Y131341D01*
Y131960D01*
Y132167D01*
Y132194D01*
Y132272D01*
Y132482D01*
Y132797D01*
Y133111D01*
Y133216D01*
Y133280D01*
Y133471D01*
Y133553D01*
Y133580D01*
Y134362D01*
X123496Y136120D01*
Y136706D01*
Y137203D01*
Y138321D01*
Y138694D01*
Y139347D01*
X123484Y141304D02*
X123496Y139347D01*
X123427Y143487D02*
X123484Y141304D01*
X123405Y143920D02*
X123427Y143487D01*
X123392Y144164D02*
X123405Y143920D01*
X123230Y144889D02*
X123392Y144164D01*
X122813Y145748D02*
X123230Y144889D01*
X122157Y146499D02*
X122813Y145748D01*
X121500Y147002D02*
X122157Y146499D01*
X121263Y147139D02*
X121500Y147002D01*
X120565Y147543D02*
X121263Y147139D01*
X113576Y151576D02*
X120565Y147543D01*
X112876Y151978D02*
X113576Y151576D01*
X112754Y152049D02*
X112876Y151978D01*
X112386Y152263D02*
X112754Y152049D01*
X112018Y152477D02*
X112386Y152263D01*
X111773Y152619D02*
X112018Y152477D01*
X111670Y152678D02*
X111773Y152619D01*
X111650Y152690D02*
X111670Y152678D01*
X111388Y152842D02*
X111650Y152690D01*
X108715Y154375D02*
X111388Y152842D01*
X108447Y154523D02*
X108715Y154375D01*
X108285Y154618D02*
X108447Y154523D01*
X107418Y154959D02*
X108285Y154618D01*
X106501Y155119D02*
X107418Y154959D01*
X106313Y155123D02*
X106501Y155119D01*
X106138Y155121D02*
X106313Y155123D01*
X105281Y154975D02*
X106138Y155121D01*
X104471Y154655D02*
X105281Y154975D01*
X104320Y154566D02*
X104471Y154655D01*
X103189Y153925D02*
X104320Y154566D01*
X97640Y150747D02*
X103189Y153925D01*
X92275Y147631D02*
X97640Y150747D01*
X91236Y147021D02*
X92275Y147631D01*
X91004Y146884D02*
X91236Y147021D01*
X90373Y146362D02*
X91004Y146884D01*
X89750Y145541D02*
X90373Y146362D01*
X89370Y144563D02*
X89750Y145541D01*
X89237Y143713D02*
X89370Y144563D01*
X89234Y143429D02*
X89237Y143713D01*
X89234Y142714D02*
Y143429D01*
Y141105D02*
Y142714D01*
Y140568D02*
Y141105D01*
Y140000D02*
Y140568D01*
Y138722D02*
Y140000D01*
Y138296D02*
Y138722D01*
Y137747D02*
Y138296D01*
X89212Y136281D02*
X89234Y137747D01*
X89209Y136097D02*
X89212Y136281D01*
X89206Y135854D02*
X89209Y136097D01*
X89184Y133389D02*
X89206Y135854D01*
X89184Y133389D02*
X89184Y133144D01*
Y133113D02*
Y133144D01*
Y133022D02*
Y133113D01*
Y132814D02*
Y133022D01*
Y132606D02*
Y132814D01*
Y132515D02*
Y132606D01*
Y132485D02*
Y132515D01*
Y131424D02*
Y132485D01*
Y131424D02*
X89244Y128591D01*
X89264Y128241D01*
X89278Y127984D01*
X89441Y127219D01*
X89849Y126322D01*
X90487Y125555D01*
X91122Y125053D01*
X91352Y124919D01*
X92318Y124357D01*
X97181Y121545D01*
X102022Y118761D01*
X102976Y118212D01*
X102995Y118201D01*
X103051Y118169D01*
X103181Y118095D01*
X103346Y118000D01*
X103530Y117894D01*
X103714Y117789D01*
X103880Y117693D01*
X104009Y117619D01*
X104065Y117587D01*
X104084Y117576D01*
X104256Y117472D01*
X105176Y117095D01*
X106156Y116919D01*
X106356Y116915D01*
X106355Y116916D02*
X106356Y116915D01*
X106341Y116923D02*
X106355Y116916D01*
X106340Y116924D02*
X106341Y116923D01*
M02*
