M48
;Layer_Color=2894892
;FILE_FORMAT=2:4
INCH,TZ
;TYPE=PLATED
T1F00S00C0.0120
T2F00S00C0.0276
T4F00S00C0.0402
T5F00S00C0.0689
;TYPE=NON_PLATED
T6F00S00C0.1142
%
T01
X492Y3740
X886
X1280
X1673
X2067
X2461
X2756Y4134
Y4528
Y4921
Y5315
X2461Y5709
X2067
X1673
X1575Y6102
X1181Y6299
Y6693
X1575Y6890
Y7283
X1870Y7677
X2264
X2362Y8699
X1612
Y9449
Y10199
X2362
X3112
Y9449
Y8699
X2362Y9449
X4035Y9547
X4134Y9941
X4528Y9941
X4823Y9744
X5118Y9547
X5315Y9252
X4921Y9055
X4232Y10433
X1870Y11220
X1476Y11614
X1673Y12402
X2264Y12795
X492Y12894
X689Y11220
X728Y10827
X610Y10407
X591Y9977
Y9547
X295Y9744
Y10138
Y9252
X492Y8957
X827Y8110
X689Y7579
X394Y7283
Y6890
Y6496
Y6102
Y5709
X3543Y6398
X3169Y6890
X3248Y7283
X4134Y7185
X6201Y7283
Y6063
X6890Y5709
X7480Y5315
X7874Y6398
X8169
X8465
Y7087
X8169
X7874
X8366Y8465
X8957Y8268
X9941Y8071
X9547Y7480
X10138Y7087
Y5217
X9941Y1181
X7283Y2756
X6004Y3937
X6004Y4429
X4724Y2953
X5118Y2165
X6772Y8642
X7382Y11220
X8661Y10039
X10138Y10532
X9941Y9252
X5906Y12461
Y12894
Y13760
Y14626
X6496Y14173
X5256
X8071Y15059
X10925Y10236
X11417Y10138
X10612Y9762
X10335Y9154
X10728Y8465
X10236Y7776
X11122Y7480
X11890Y8484
X12303Y9646
Y10827
X12795Y7579
X13386Y6417
X12598Y6004
T02
X8494Y1972
X10404
T04
X4921Y6465
Y7465
Y8465
X3937Y13386
Y14386
Y15386
X13114Y9902
Y8902
T05
X4331Y1181
X6299
T06
X1575Y1575
Y14961
X12598Y1575
M30
